<svg width="245" height="424" viewBox="0 0 245 424" fill="none" xmlns="http://www.w3.org/2000/svg">
<g clip-path="url(#clip0)">
<rect width="245" height="424" rx="10" fill="white"/>
<rect x="244.5" y="0.5" width="423" height="244" rx="9.5" transform="rotate(90 244.5 0.5)" stroke="#ADADAD"/>
<path fill-rule="evenodd" clip-rule="evenodd" d="M86.0966 -204.506C126.256 -197.423 165.374 -192.432 201.188 -172.949C241.821 -150.845 287.498 -128.58 304.604 -85.6394C322.059 -41.8234 300 95.5 251.5 114.5C207.22 131.847 216 213.006 157 213.006C98 213.006 185.5 213.006 86.0966 213.006C38.8292 213.006 32.5101 138.698 -2.1512 106.596C-30.3719 80.4583 -66.0698 76.7673 -81.9586 41.7553C-98.1288 6.12315 -89.0763 -30.7953 -81.9588 -69.2657C-73.4587 -115.209 -88.3476 -164.494 -46.2226 -198.393C-9.91301 -227.613 17.4623 -216.612 86.0966 -204.506Z" fill="url(#paint0_linear)"/>
<ellipse cy="-0.5" rx="80" ry="79.5" fill="url(#paint1_linear)"/>
<path d="M228.04 91.2332L223.352 99.7128L214.744 95.2659L210.056 103.745L201.448 99.2986L196.761 107.778" stroke="#F6B028" stroke-width="2"/>
<path d="M225.24 82L220.552 90.4796L211.944 86.0327L207.257 94.5123L198.648 90.0654L193.961 98.545" stroke="#F6B028" stroke-width="2"/>
</g>
<defs>
<linearGradient id="paint0_linear" x1="-23.3361" y1="-217.274" x2="255.175" y2="110.697" gradientUnits="userSpaceOnUse">
<stop stop-color="#F6B028"/>
<stop offset="1" stop-color="#DB538C"/>
</linearGradient>
<linearGradient id="paint1_linear" x1="-40.4979" y1="-66.4751" x2="45.0514" y2="65.6359" gradientUnits="userSpaceOnUse">
<stop stop-color="#DB538C"/>
<stop offset="1" stop-color="#BD67D5"/>
</linearGradient>
<clipPath id="clip0">
<rect width="245" height="424" rx="10" fill="white"/>
</clipPath>
</defs>
</svg>
