<svg width="290" height="162" viewBox="0 0 290 162" fill="none" xmlns="http://www.w3.org/2000/svg">
<g clip-path="url(#clip0)">
<path d="M0 9C0 4.02944 4.02944 0 9 0H281C285.971 0 290 4.02944 290 9V162H0V9Z" fill="#BD67D5"/>
<g filter="url(#filter0_bi)">
<path fill-rule="evenodd" clip-rule="evenodd" d="M229.162 151.981C221.979 175.903 231.444 162.453 209.934 175.17C188.917 187.596 155.12 181.368 131.464 175.17C109.253 169.351 77.6306 193.934 64.4079 175.17C51.1041 156.291 77.9724 141.964 75.407 119.037C72.8168 95.8867 50.6623 75.234 57.9285 53.1192C65.3897 30.4111 88.941 15.6331 111.752 8.41944C133.275 1.61341 155.665 9.52628 177.511 15.3035C198.216 20.7789 205.553 36.0601 218.495 53.1193C231.154 69.8053 244.029 80.7183 242.984 101.606C242.092 119.439 234.294 134.886 229.162 151.981Z" fill="white" fill-opacity="0.3"/>
</g>
<path d="M104.063 27.8055C98.1566 34.0145 97.3394 43.8454 100.207 50.2995C108.02 67.8507 145.237 65.4407 156.949 64.6918C172.045 63.7114 184.188 62.9353 188.89 55.0107C197.177 41.1766 174.726 14.4617 172.088 15.5237C171.486 15.7688 172.461 17.253 171.816 18.9278C167.959 28.8267 120.349 10.7036 104.063 27.8055Z" fill="#3A2222"/>
<path d="M208.776 98.9527C210.002 63.9954 184.033 34.8113 150.773 33.768C117.512 32.7248 89.5552 60.2176 88.3287 95.1748C87.1022 130.132 113.071 159.316 146.331 160.36C179.592 161.403 207.549 133.91 208.776 98.9527Z" fill="#8CC754"/>
<path d="M168.261 56.9985C177.966 56.9985 185.834 49.7442 185.834 40.7955C185.834 31.8469 177.966 24.5926 168.261 24.5926C158.556 24.5926 150.688 31.8469 150.688 40.7955C150.688 49.7442 158.556 56.9985 168.261 56.9985Z" fill="#FBFBFB" stroke="#272727" stroke-miterlimit="10"/>
<path d="M126.816 56.9985C136.522 56.9985 144.389 49.7442 144.389 40.7955C144.389 31.8469 136.522 24.5926 126.816 24.5926C117.111 24.5926 109.244 31.8469 109.244 40.7955C109.244 49.7442 117.111 56.9985 126.816 56.9985Z" fill="#FBFBFB" stroke="#272727" stroke-miterlimit="10"/>
<path d="M184.676 124.245C184.676 144.034 167.984 160.092 147.374 160.092C126.763 160.092 110.071 144.034 110.071 124.245C110.071 104.456 126.763 88.3979 147.374 88.3979C167.984 88.3979 184.676 104.456 184.676 124.245Z" fill="#75B539" stroke="#75B539" stroke-width="0.5"/>
<path d="M127.799 56.6478C135.076 56.6478 140.975 51.2083 140.975 44.4984C140.975 37.7885 135.076 32.349 127.799 32.349C120.521 32.349 114.622 37.7885 114.622 44.4984C114.622 51.2083 120.521 56.6478 127.799 56.6478Z" fill="#272727" stroke="#272727" stroke-miterlimit="10"/>
<path d="M167.413 56.6478C174.69 56.6478 180.59 51.2083 180.59 44.4984C180.59 37.7885 174.69 32.349 167.413 32.349C160.136 32.349 154.237 37.7885 154.237 44.4984C154.237 51.2083 160.136 56.6478 167.413 56.6478Z" fill="#272727" stroke="#272727" stroke-miterlimit="10"/>
<path d="M181.418 24.1954C180.852 24.22 180.287 24.1278 179.721 24.139C172.076 24.2907 164.791 27.787 157.16 28.556C145.806 29.6913 126.61 34.9896 112.001 46.2078C103.27 52.9658 98.697 59.8049 95.7581 58.3722C92.8191 56.9395 94.3245 49.3165 94.9266 46.2078C96.2382 37.4265 100.593 29.3005 107.313 23.0955C114.983 16.2699 123.212 14.4723 132.387 12.4584C141.597 10.4572 151.124 10.1041 160.472 11.4177C169.962 12.6341 167.282 13.9992 177.819 15.8374C179.445 16.1173 182.303 16.5725 183.736 18.3179C184.055 18.7072 184.333 19.1374 184.533 19.5996C184.698 19.9805 184.787 20.3888 184.795 20.8044C184.807 21.4701 184.607 22.124 184.222 22.6819C183.837 23.2399 183.283 23.6765 182.633 23.9357C182.245 24.09 181.834 24.1772 181.418 24.1954Z" fill="#9F2E2E"/>
<path d="M131.442 14.8209C132.315 12.4369 123.878 5.23165 117.92 7.40254C116.357 7.96192 114.357 9.4003 114.399 10.9852C114.484 13.7554 120.822 16.1128 126.033 16.0994C127.864 16.0861 130.991 16.0861 131.442 14.8209Z" fill="#3A2222"/>
<path d="M114.398 70.697C123.23 78.0569 134.681 81.9527 146.429 81.5937C156.856 81.1188 166.845 77.4791 174.927 71.2108" stroke="#006633" stroke-width="3" stroke-miterlimit="10"/>
<rect width="78.4687" height="45.812" rx="10" transform="matrix(0.998731 0.0503654 -0.0597629 0.998213 63.7378 93.6349)" fill="#C4C4C4"/>
<rect width="72.6718" height="37.7294" rx="10" transform="matrix(0.998731 0.0503654 -0.0597629 0.998213 66.2744 97.5869)" fill="#DFDFDF"/>
<rect width="15.8731" height="63.3904" rx="7.93653" transform="matrix(0.915717 0.401825 -0.462019 0.88687 178.806 67.5743)" fill="#2C3A6A"/>
<rect width="7.93653" height="63.3904" rx="3.96826" transform="matrix(0.915717 0.401825 -0.462019 0.88687 182.439 69.1689)" fill="#586BAF"/>
<path d="M150.75 126.57C150.286 121.95 155.315 118.686 159.907 120.627C164.598 122.61 165.311 128.515 161.183 131.195C157.054 133.875 151.224 131.291 150.75 126.57Z" fill="#9A968E"/>
<path d="M151.284 133.356C151.096 131.486 153.132 130.165 154.99 130.95C156.889 131.753 157.178 134.143 155.507 135.228C153.835 136.313 151.476 135.267 151.284 133.356Z" fill="#EE9E15"/>
</g>
<defs>
<filter id="filter0_bi" x="-5" y="-38.9998" width="294.99" height="293.236" filterUnits="userSpaceOnUse" color-interpolation-filters="sRGB">
<feFlood flood-opacity="0" result="BackgroundImageFix"/>
<feGaussianBlur in="BackgroundImage" stdDeviation="5"/>
<feComposite in2="SourceAlpha" operator="in" result="effect1_backgroundBlur"/>
<feBlend mode="normal" in="SourceGraphic" in2="effect1_backgroundBlur" result="shape"/>
<feColorMatrix in="SourceAlpha" type="matrix" values="0 0 0 0 0 0 0 0 0 0 0 0 0 0 0 0 0 0 127 0" result="hardAlpha"/>
<feOffset/>
<feGaussianBlur stdDeviation="5"/>
<feComposite in2="hardAlpha" operator="arithmetic" k2="-1" k3="1"/>
<feColorMatrix type="matrix" values="0 0 0 0 1 0 0 0 0 1 0 0 0 0 1 0 0 0 0.2 0"/>
<feBlend mode="normal" in2="shape" result="effect2_innerShadow"/>
</filter>
<clipPath id="clip0">
<rect width="290" height="162" fill="white"/>
</clipPath>
</defs>
</svg>
