<svg width="24" height="24" viewBox="0 0 24 24" fill="none" xmlns="http://www.w3.org/2000/svg">
<path fill-rule="evenodd" clip-rule="evenodd" d="M12 2.4C6.69807 2.4 2.4 6.69807 2.4 12C2.4 17.3019 6.69807 21.6 12 21.6C17.3019 21.6 21.6 17.3019 21.6 12C21.6 6.69807 17.3019 2.4 12 2.4ZM0 12C0 5.37258 5.37258 0 12 0C18.6274 0 24 5.37258 24 12C24 18.6274 18.6274 24 12 24C5.37258 24 0 18.6274 0 12Z" fill="#72B236"/>
<path fill-rule="evenodd" clip-rule="evenodd" d="M7.2002 9.60002C7.2002 8.93728 7.73745 8.40002 8.4002 8.40002H8.4122C9.07494 8.40002 9.6122 8.93728 9.6122 9.60002C9.6122 10.2628 9.07494 10.8 8.4122 10.8H8.4002C7.73745 10.8 7.2002 10.2628 7.2002 9.60002Z" fill="#72B236"/>
<path fill-rule="evenodd" clip-rule="evenodd" d="M14.4004 9.60002C14.4004 8.93728 14.9376 8.40002 15.6004 8.40002H15.6124C16.2751 8.40002 16.8124 8.93728 16.8124 9.60002C16.8124 10.2628 16.2751 10.8 15.6124 10.8H15.6004C14.9376 10.8 14.4004 10.2628 14.4004 9.60002Z" fill="#72B236"/>
<path fill-rule="evenodd" clip-rule="evenodd" d="M8.15998 14.7429C8.63337 14.2791 9.39313 14.2868 9.85695 14.7602C10.1363 15.0453 10.4697 15.2718 10.8376 15.4264C11.2056 15.581 11.6007 15.6606 11.9998 15.6606C12.3989 15.6606 12.794 15.581 13.162 15.4264C13.5299 15.2718 13.8633 15.0453 14.1427 14.7602C14.6065 14.2868 15.3662 14.2791 15.8396 14.7429C16.313 15.2067 16.3208 15.9665 15.8569 16.4399C15.3542 16.953 14.754 17.3607 14.0917 17.639C13.4294 17.9173 12.7182 18.0606 11.9998 18.0606C11.2814 18.0606 10.5702 17.9173 9.90789 17.639C9.24557 17.3607 8.64545 16.953 8.14266 16.4399C7.67884 15.9665 7.68659 15.2067 8.15998 14.7429Z" fill="#72B236"/>
<path fill-rule="evenodd" clip-rule="evenodd" d="M6.45481 1.65439C7.12994 0.97926 8.04561 0.599976 9.00039 0.599976C9.66313 0.599976 10.2004 1.13723 10.2004 1.79998C10.2004 2.46272 9.66313 2.69998 9.00039 2.69998C8.68213 2.69998 8.37691 3.1264 8.15186 3.35145C7.92682 3.57649 7.80039 3.88172 7.80039 4.19998C7.80039 4.51823 7.92682 4.82346 8.15186 5.0485C8.37691 5.27355 8.68213 5.39998 9.00039 5.39998C9.66313 5.39998 10.2004 5.93723 10.2004 6.59998C10.2004 7.26272 9.66313 7.79998 9.00039 7.79998C8.04561 7.79998 7.12994 7.42069 6.45481 6.74556C5.77968 6.07043 5.40039 5.15476 5.40039 4.19998C5.40039 3.2452 5.77968 2.32952 6.45481 1.65439Z" fill="#72B236"/>
</svg>
