<svg width="290" height="162" viewBox="0 0 290 162" fill="none" xmlns="http://www.w3.org/2000/svg">
<g clip-path="url(#clip0)">
<path d="M0 0H290V162H0V0Z" fill="#BD67D5"/>
<g filter="url(#filter0_b)">
<path fill-rule="evenodd" clip-rule="evenodd" d="M142.079 209.178C119.705 208.792 96.7298 218.443 76.5917 208.671C54.7374 198.065 53.1552 178.299 52.0693 154C50.9639 129.264 63.3579 118.801 71.5313 95.4325C79.363 73.0411 59.8044 44.1856 75.1254 26.0908C90.2405 8.23926 118.772 10.3996 142.079 12.1127C164.067 13.729 186.926 19.5629 202.254 35.4353C216.55 50.2391 214.033 73.3203 220.171 92.9772C226.211 112.321 239.766 129.393 237.893 149.573C235.754 172.63 228.864 198.74 209.225 210.958C189.728 223.087 165.027 209.574 142.079 209.178Z" fill="white" fill-opacity="0.3"/>
</g>
<path d="M205.669 92.168C206.928 54.193 180.958 22.5121 147.664 21.4068C114.37 20.3016 86.3586 50.1905 85.0997 88.1656C83.8408 126.141 109.811 157.822 143.105 158.927C176.399 160.032 204.41 130.143 205.669 92.168Z" fill="#8CC754"/>
<path d="M125 63.6486C131.019 66.1089 137.373 67.2318 143.739 66.9603C153.093 66.4784 162.164 63.038 170 57" stroke="#006633" stroke-width="4" stroke-miterlimit="10"/>
<path d="M119.338 43.9922C128.994 43.9922 136.822 36.159 136.822 26.4961C136.822 16.8333 128.994 9 119.338 9C109.681 9 101.854 16.8333 101.854 26.4961C101.854 36.159 109.681 43.9922 119.338 43.9922Z" fill="#FBFBFB" stroke="#272727" stroke-miterlimit="10"/>
<path d="M118.895 43.9924C126.106 43.9924 131.952 38.043 131.952 30.7042C131.952 23.3653 126.106 17.416 118.895 17.416C111.683 17.416 105.837 23.3653 105.837 30.7042C105.837 38.043 111.683 43.9924 118.895 43.9924Z" fill="#272727" stroke="#272727" stroke-miterlimit="10"/>
<path d="M162.936 43.9922C172.714 43.9922 180.641 36.159 180.641 26.4961C180.641 16.8333 172.714 9 162.936 9C153.157 9 145.23 16.8333 145.23 26.4961C145.23 36.159 153.157 43.9922 162.936 43.9922Z" fill="#FBFBFB" stroke="#272727" stroke-miterlimit="10"/>
<path d="M144.346 158.271C165.125 158.271 181.969 140.72 181.969 119.07C181.969 97.4207 165.125 79.8702 144.346 79.8702C123.566 79.8702 106.722 97.4207 106.722 119.07C106.722 140.72 123.566 158.271 144.346 158.271Z" fill="#72B236"/>
<path d="M162.493 43.9924C169.827 43.9924 175.772 38.043 175.772 30.7042C175.772 23.3653 169.827 17.416 162.493 17.416C155.159 17.416 149.214 23.3653 149.214 30.7042C149.214 38.043 155.159 43.9924 162.493 43.9924Z" fill="#272727" stroke="#272727" stroke-miterlimit="10"/>
<rect x="194.88" y="48.3694" width="18.0416" height="76.0326" rx="3" transform="rotate(0.476095 194.88 48.3694)" fill="#2C3A6A"/>
<rect x="199.391" y="48.4067" width="9.02082" height="76.0326" rx="3" transform="rotate(0.476095 199.391 48.4067)" fill="#586BAF"/>
<path d="M192.339 119.034C191.561 117.705 192.513 116.033 194.053 116.024L212.793 115.91C214.333 115.901 215.305 117.561 214.543 118.899L205.272 135.186C204.51 136.524 202.585 136.535 201.808 135.207L192.339 119.034Z" fill="#9A968E"/>
<path d="M198.417 129.742L208.806 129.679L203.666 138.708L198.417 129.742Z" fill="#FFFCF8"/>
<circle cx="121.183" cy="111.643" r="25.8842" fill="#B34271"/>
<circle cx="121.183" cy="109.166" r="25.8842" fill="#DB538C"/>
<path d="M197.095 84.9139C204.014 83.2287 203.953 81.4669 207.249 81.8274C209.516 82.0414 211.63 83.0659 213.204 84.7128C214.612 86.1683 215.422 88.0997 215.474 90.124C215.483 94.3142 211.857 96.6743 211.352 96.9857C210.105 97.7696 207.133 99.1728 205.711 97.8978C204.566 96.8684 205.084 94.6602 205.124 94.504C205.323 93.7592 205.668 93.0612 206.137 92.4502C206.607 91.8392 207.193 91.3273 207.862 90.9438C208.025 91.1053 205.013 96.246 200.549 97.1079C198.821 97.4531 196.337 97.2509 195.656 95.9294C194.782 94.2223 197.778 91.0799 199.462 89.6784C200.467 88.8733 201.535 88.1515 202.656 87.5201C202.656 87.5201 198.557 91.1663 195.894 90.021C194.51 89.4165 193.507 87.5944 194.014 86.4309C194.382 85.5072 195.615 85.2808 197.095 84.9139Z" fill="#72B236" stroke="#72B236" stroke-width="0.25" stroke-miterlimit="10"/>
<path d="M116 90V129" stroke="white" stroke-width="9"/>
<path d="M128 90V129" stroke="white" stroke-width="9"/>
</g>
<defs>
<filter id="filter0_b" x="48" y="7" width="194.069" height="213" filterUnits="userSpaceOnUse" color-interpolation-filters="sRGB">
<feFlood flood-opacity="0" result="BackgroundImageFix"/>
<feGaussianBlur in="BackgroundImage" stdDeviation="2"/>
<feComposite in2="SourceAlpha" operator="in" result="effect1_backgroundBlur"/>
<feBlend mode="normal" in="SourceGraphic" in2="effect1_backgroundBlur" result="shape"/>
</filter>
<clipPath id="clip0">
<path d="M0 9C0 4.02944 4.02944 0 9 0H281C285.971 0 290 4.02944 290 9V162H0V9Z" fill="white"/>
</clipPath>
</defs>
</svg>
