<svg width="290" height="162" viewBox="0 0 290 162" fill="none" xmlns="http://www.w3.org/2000/svg">
<g clip-path="url(#clip0)">
<path d="M0 9C0 4.02944 4.02944 0 9 0H281C285.971 0 290 4.02944 290 9V162H0V9Z" fill="#F6B028"/>
<g filter="url(#filter0_bi)">
<path fill-rule="evenodd" clip-rule="evenodd" d="M229.456 125.152C228.954 148.262 230.554 146.972 214.821 163.787C199.448 180.217 142.551 189.886 120.376 190.432C99.5558 190.945 84.6247 185.627 68.536 172.328C52.3486 158.948 94.8769 154.958 87.099 135.228C79.2458 115.308 54.8934 102.617 55.9061 81.0926C56.9459 58.9911 73.9654 39.8208 92.1643 27.5659C109.335 16.0035 130.818 17.3063 151.309 16.8494C170.73 16.4165 192.072 13.14 207.504 24.9946C222.598 36.5898 225.249 57.9817 229.378 76.8219C232.903 92.9063 229.816 108.638 229.456 125.152Z" fill="white" fill-opacity="0.3"/>
</g>
<path d="M206.668 93.3682C207.927 55.3932 181.958 23.7123 148.663 22.607C115.369 21.5018 87.3581 51.3907 86.0992 89.3658C84.8404 127.341 110.81 159.022 144.104 160.127C177.399 161.232 205.41 131.343 206.668 93.3682Z" fill="#8CC754"/>
<path d="M126.499 66.2313C131.389 67.9285 136.552 68.7032 141.725 68.5159C149.325 68.1835 156.695 65.81 163.062 61.6446" stroke="#006633" stroke-width="4" stroke-miterlimit="10"/>
<path d="M120.338 45.1924C129.994 45.1924 137.822 37.3592 137.822 27.6963C137.822 18.0335 129.994 10.2002 120.338 10.2002C110.681 10.2002 102.854 18.0335 102.854 27.6963C102.854 37.3592 110.681 45.1924 120.338 45.1924Z" fill="#FBFBFB" stroke="#272727" stroke-miterlimit="10"/>
<path d="M119.894 45.1926C127.106 45.1926 132.952 39.2432 132.952 31.9044C132.952 24.5655 127.106 18.6162 119.894 18.6162C112.683 18.6162 106.836 24.5655 106.836 31.9044C106.836 39.2432 112.683 45.1926 119.894 45.1926Z" fill="#272727" stroke="#272727" stroke-miterlimit="10"/>
<path d="M163.935 45.1924C173.714 45.1924 181.641 37.3592 181.641 27.6963C181.641 18.0335 173.714 10.2002 163.935 10.2002C154.157 10.2002 146.23 18.0335 146.23 27.6963C146.23 37.3592 154.157 45.1924 163.935 45.1924Z" fill="#FBFBFB" stroke="#272727" stroke-miterlimit="10"/>
<path d="M145.346 159.471C166.125 159.471 182.97 141.92 182.97 120.271C182.97 98.6209 166.125 81.0704 145.346 81.0704C124.567 81.0704 107.722 98.6209 107.722 120.271C107.722 141.92 124.567 159.471 145.346 159.471Z" fill="#72B236"/>
<path d="M163.492 45.1926C170.826 45.1926 176.771 39.2432 176.771 31.9044C176.771 24.5655 170.826 18.6162 163.492 18.6162C156.159 18.6162 150.213 24.5655 150.213 31.9044C150.213 39.2432 156.159 45.1926 163.492 45.1926Z" fill="#272727" stroke="#272727" stroke-miterlimit="10"/>
<rect x="216.765" y="51.2396" width="18.0416" height="76.0326" rx="3" transform="rotate(25.5534 216.765 51.2396)" fill="#2C3A6A"/>
<rect x="220.834" y="53.1849" width="9.02082" height="76.0326" rx="3" transform="rotate(25.5534 220.834 53.1849)" fill="#586BAF"/>
<path d="M184.512 114.166C184.371 112.633 185.942 111.522 187.34 112.166L204.362 120.006C205.761 120.65 205.937 122.566 204.68 123.455L189.38 134.277C188.123 135.166 186.375 134.361 186.233 132.827L184.512 114.166Z" fill="#9A968E"/>
<path d="M185.479 126.44L194.916 130.787L186.433 136.786L185.479 126.44Z" fill="#FFFCF8"/>
<circle cx="122.183" cy="112.843" r="25.8842" fill="#B34271"/>
<circle cx="122.183" cy="110.367" r="25.8842" fill="#DB538C"/>
<path d="M113.083 93.5001L141.596 109.962L113.083 126.424L113.083 93.5001Z" fill="#FBFBFB"/>
<path d="M203.281 85.2779C210.262 86.6842 210.953 85.0625 213.787 86.7862C215.749 87.9409 217.23 89.7648 217.957 91.9234C218.615 93.8385 218.53 95.9312 217.719 97.7865C215.951 101.586 211.667 102.187 211.078 102.255C209.616 102.436 206.33 102.447 205.582 100.69C204.981 99.2721 206.386 97.4916 206.488 97.3669C206.985 96.7768 207.592 96.2906 208.277 95.9364C208.962 95.5822 209.709 95.3669 210.477 95.3029C210.557 95.5184 205.65 98.8978 201.241 97.7865C199.53 97.3669 197.366 96.1308 197.309 94.6451C197.241 92.7286 201.287 91.1523 203.406 90.5966C204.657 90.2931 205.93 90.0921 207.214 89.9956C207.214 89.9956 201.955 91.5606 200.029 89.3945C199.032 88.2605 198.896 86.1852 199.847 85.346C200.573 84.6656 201.785 84.9831 203.281 85.2779Z" fill="#72B236" stroke="#72B236" stroke-width="0.25" stroke-miterlimit="10"/>
</g>
<defs>
<filter id="filter0_bi" x="22" y="-21" width="244.506" height="247.655" filterUnits="userSpaceOnUse" color-interpolation-filters="sRGB">
<feFlood flood-opacity="0" result="BackgroundImageFix"/>
<feGaussianBlur in="BackgroundImage" stdDeviation="5"/>
<feComposite in2="SourceAlpha" operator="in" result="effect1_backgroundBlur"/>
<feBlend mode="normal" in="SourceGraphic" in2="effect1_backgroundBlur" result="shape"/>
<feColorMatrix in="SourceAlpha" type="matrix" values="0 0 0 0 0 0 0 0 0 0 0 0 0 0 0 0 0 0 127 0" result="hardAlpha"/>
<feOffset/>
<feGaussianBlur stdDeviation="5"/>
<feComposite in2="hardAlpha" operator="arithmetic" k2="-1" k3="1"/>
<feColorMatrix type="matrix" values="0 0 0 0 1 0 0 0 0 1 0 0 0 0 1 0 0 0 0.2 0"/>
<feBlend mode="normal" in2="shape" result="effect2_innerShadow"/>
</filter>
<clipPath id="clip0">
<rect width="290" height="162" fill="white"/>
</clipPath>
</defs>
</svg>
