<svg width="610" height="460" viewBox="0 0 610 460" fill="none" xmlns="http://www.w3.org/2000/svg">
<path fill-rule="evenodd" clip-rule="evenodd" d="M267.961 19.2733C328.498 29.9655 387.465 37.4988 441.452 66.9072C502.703 100.273 571.557 133.883 597.344 198.7C623.656 264.84 605.164 340.878 576.338 405.961C549.503 466.55 495.128 505.822 443.128 546.888C388.689 589.881 336.128 662.331 267.961 649.499C197.935 636.318 66.8798 595.346 14.6306 546.888C-27.9099 507.435 38.5816 443.85 14.6305 391C-9.74487 337.214 3.90103 281.486 14.6302 223.416C27.4434 154.065 4.99954 79.6705 68.4995 28.5C123.233 -15.6066 164.5 1.00001 267.961 19.2733Z" fill="url(#paint0_linear)"/>
<circle cx="144.5" cy="120.5" r="120.5" fill="url(#paint1_linear)"/>
<circle cx="486" cy="351" r="35" fill="url(#paint2_linear)"/>
<path d="M457.131 162.326L475.13 153.414L484.544 171.155L502.543 162.243L511.958 179.983L529.956 171.072" stroke="#F6B028" stroke-width="5"/>
<path d="M451 181.363L468.999 172.451L478.414 190.192L496.412 181.28L505.827 199.021L523.825 190.109" stroke="#F6B028" stroke-width="5"/>
<path d="M91.0635 201.295L100.78 183.718L118.624 192.936L128.34 175.359L146.184 184.577L155.9 167" stroke="#F6B028" stroke-width="5"/>
<path d="M96.8682 220.434L106.585 202.857L124.428 212.075L134.145 194.498L151.989 203.716L161.705 186.139" stroke="#F6B028" stroke-width="5"/>
<defs>
<linearGradient id="paint0_linear" x1="103" y1="2.07676e-05" x2="523.5" y2="494.5" gradientUnits="userSpaceOnUse">
<stop stop-color="#F6B028"/>
<stop offset="1" stop-color="#DB538C"/>
</linearGradient>
<linearGradient id="paint1_linear" x1="83.5" y1="20.5" x2="213.5" y2="220" gradientUnits="userSpaceOnUse">
<stop stop-color="#DB538C"/>
<stop offset="1" stop-color="#BD67D5"/>
</linearGradient>
<linearGradient id="paint2_linear" x1="468.282" y1="321.954" x2="506.041" y2="379.9" gradientUnits="userSpaceOnUse">
<stop stop-color="#DB538C"/>
<stop offset="1" stop-color="#F6B028"/>
</linearGradient>
</defs>
</svg>
