<svg width="18" height="17" viewBox="0 0 18 17" fill="none" xmlns="http://www.w3.org/2000/svg">
<g clip-path="url(#clip0)">
<path d="M3.7706 0C2.05107 0 0.666504 1.38456 0.666504 3.1041V13.8959C0.666504 15.6155 2.05107 17 3.7706 17H9.61967V10.3541H7.8623V7.96132H9.61967V5.91707C9.61967 4.311 10.658 2.83635 13.05 2.83635C14.0184 2.83635 14.7345 2.92932 14.7345 2.92932L14.6782 5.16377C14.6782 5.16377 13.9479 5.15687 13.1509 5.15687C12.2883 5.15687 12.15 5.55429 12.15 6.21406V7.96134H14.7468L14.6336 10.3541H12.15V17H14.5624C16.2819 17 17.6665 15.6155 17.6665 13.8959V3.10412C17.6665 1.38458 16.2819 1.7e-05 14.5624 1.7e-05H3.77059L3.7706 0Z" fill="white"/>
</g>
<defs>
<clipPath id="clip0">
<rect width="17" height="17" fill="white" transform="translate(0.666504)"/>
</clipPath>
</defs>
</svg>
