<svg id="Capa_1" enable-background="new 0 0 512 512" height="512" viewBox="0 0 512 512" width="512" xmlns="http://www.w3.org/2000/svg"><g><path d="m475.666 208.302c-5.69-26.223-16.125-51.435-30.613-73.963l21.836-28.075-61.152-61.152-28.075 21.836c-22.526-14.488-47.738-24.923-73.963-30.613l-4.409-36.335h-86.58l-4.408 36.334c-26.225 5.69-51.437 16.125-73.963 30.613l-28.075-21.836-61.152 61.152 21.836 28.075c-14.488 22.528-24.923 47.74-30.613 73.963l-36.335 4.409v86.58l36.335 4.408c5.689 26.223 16.125 51.434 30.613 73.961l-21.836 28.075 61.152 61.154 28.075-21.836c22.526 14.488 47.738 24.923 73.963 30.613l4.408 36.335h86.58l4.409-36.334c26.225-5.69 51.437-16.125 73.963-30.613l28.075 21.836 61.152-61.154-21.836-28.075c14.488-22.526 24.923-47.738 30.613-73.961l36.334-4.409v-86.58zm6.334 64.408-31.998 3.882-1.82 11.109c-4.885 29.812-16.274 57.335-33.851 81.803l-6.543 9.108 19.161 24.635-23.7 23.7-24.635-19.161-9.108 6.543c-24.467 17.577-51.99 28.966-81.804 33.851l-11.109 1.82-3.883 32h-33.42l-3.882-31.998-11.11-1.82c-29.814-4.885-57.337-16.274-81.804-33.851l-9.108-6.543-24.635 19.161-23.7-23.7 19.161-24.635-6.543-9.108c-17.578-24.469-28.966-51.991-33.851-81.802l-1.82-11.11-31.998-3.884v-33.42l31.999-3.882 1.82-11.11c4.884-29.811 16.273-57.334 33.851-81.805l6.542-9.108-19.16-24.635 23.699-23.699 24.636 19.161 9.108-6.543c24.467-17.577 51.99-28.966 81.804-33.851l11.11-1.82 3.881-31.998h33.42l3.883 31.998 11.109 1.82c29.814 4.885 57.337 16.274 81.804 33.851l9.108 6.543 24.636-19.161 23.699 23.699-19.161 24.635 6.542 9.108c17.577 24.47 28.966 51.994 33.851 81.805l1.82 11.109 31.999 3.883z"/><path d="m196 121c-19.555 0-36.228 12.541-42.42 30h-32.58v30h32.58c6.192 17.459 22.865 30 42.42 30s36.228-12.541 42.42-30h152.58v-30h-152.58c-6.192-17.459-22.865-30-42.42-30zm0 60c-8.271 0-15-6.729-15-15s6.729-15 15-15 15 6.729 15 15-6.729 15-15 15z"/><path d="m316 211c-19.555 0-36.228 12.541-42.42 30h-152.58v30h152.58c6.192 17.459 22.865 30 42.42 30s36.228-12.541 42.42-30h32.58v-30h-32.58c-6.192-17.459-22.865-30-42.42-30zm0 60c-8.271 0-15-6.729-15-15s6.729-15 15-15 15 6.729 15 15-6.729 15-15 15z"/><path d="m196 301c-19.555 0-36.228 12.541-42.42 30h-32.58v30h32.58c6.192 17.459 22.865 30 42.42 30s36.228-12.541 42.42-30h152.58v-30h-152.58c-6.192-17.459-22.865-30-42.42-30zm0 60c-8.271 0-15-6.729-15-15s6.729-15 15-15 15 6.729 15 15-6.729 15-15 15z"/></g></svg>