<svg width="16" height="16" viewBox="0 0 16 16" fill="none" xmlns="http://www.w3.org/2000/svg">
<path d="M14.5051 3.22681L14.5051 3.22682C14.6344 3.27065 14.7471 3.35496 14.827 3.468C14.9069 3.58104 14.95 3.71702 14.95 3.85664V5.99959C14.95 6.1761 14.8813 6.34518 14.7593 6.46969C14.6373 6.59416 14.4721 6.6639 14.3 6.6639H13.6H13.55V6.7139V11.8455V11.8807L13.5831 11.8926C13.9815 12.0358 14.3269 12.3014 14.5717 12.6532C14.8166 13.0049 14.9487 13.4255 14.95 13.8572V15.2857C14.95 15.4622 14.8813 15.6313 14.7593 15.7558C14.6373 15.8803 14.4721 15.95 14.3 15.95H1.7C1.52794 15.95 1.36272 15.8803 1.24074 15.7558C1.11872 15.6313 1.05 15.4622 1.05 15.2857V13.8571C1.05127 13.4255 1.18345 13.0049 1.42826 12.6532C1.67308 12.3014 2.01848 12.0358 2.41691 11.8926L2.45 11.8807V11.8455V6.7139V6.6639H2.4H1.7C1.52794 6.6639 1.36272 6.59416 1.24074 6.46969C1.11872 6.34518 1.05 6.1761 1.05 5.99959V3.85664C1.05001 3.71702 1.0931 3.58104 1.17303 3.468C1.25295 3.35496 1.36559 3.27065 1.49486 3.22682L1.4949 3.22681L7.79486 1.08388C7.92805 1.03871 8.07195 1.03871 8.20514 1.08388L14.5051 3.22681ZM13.6 14.6214H13.65V14.5714V13.8571V13.857C13.6498 13.6547 13.571 13.4605 13.4305 13.3172C13.29 13.1738 13.0992 13.0929 12.9001 13.0927H12.9H3.1H3.09995C2.90078 13.0929 2.71004 13.1738 2.56952 13.3172C2.42903 13.4605 2.3502 13.6547 2.35 13.857V13.8571V14.5714V14.6214H2.4H13.6ZM3.75 11.7141V11.7641H3.8H5.2H5.25V11.7141V6.7139V6.6639H5.2H3.8H3.75V6.7139V11.7141ZM6.55 11.7141V11.7641H6.6H9.4H9.45V11.7141V6.7139V6.6639H9.4H6.6H6.55V6.7139V11.7141ZM10.75 11.7141V11.7641H10.8H12.2H12.25V11.7141V6.7139V6.6639H12.2H10.8H10.75V6.7139V11.7141ZM2.35 5.28527V5.33527H2.4H13.6H13.65V5.28527V4.37166V4.33586L13.6161 4.32433L8.0161 2.41925L8 2.41377L7.9839 2.41925L2.3839 4.32361L2.35 4.33514V4.37095V5.28527Z" fill="#72B236" stroke="white" stroke-width="0.1"/>
</svg>
