<svg width="51" height="19" viewBox="0 0 51 19" fill="none" xmlns="http://www.w3.org/2000/svg">
<path d="M29.2511 4.691C28.1102 3.69442 26.6437 3.14344 25.123 3.14608C23.5445 3.14608 22.1005 3.72919 20.9951 4.69145L29.2511 4.691ZM29.2511 4.691C29.2414 4.70828 29.2318 4.72559 29.2222 4.74293L29.441 4.86386L29.613 4.68248C29.5982 4.66843 29.5834 4.65445 29.5684 4.64056C30.5148 3.03352 31.918 1.74168 33.602 0.931463C35.3634 0.0840481 37.3447 -0.194545 39.2715 0.134286C41.1982 0.463118 42.975 1.38309 44.3556 2.76673C45.7362 4.15037 46.6523 5.92917 46.9768 7.85664H48.6758C49.0922 7.85664 49.4916 8.02207 49.7861 8.31654C50.0806 8.611 50.246 9.01039 50.246 9.42683C50.246 9.84327 50.0806 10.2427 49.7861 10.5371C49.4916 10.8316 49.0922 10.997 48.6758 10.997H46.9768C46.5872 13.3301 45.3341 15.4312 43.4666 16.8829C41.5991 18.3347 39.2538 19.0308 36.8967 18.833C34.5396 18.6352 32.3432 17.558 30.7437 15.8154C29.1442 14.0727 28.2588 11.7922 28.2634 9.42683C28.2634 8.59395 27.9325 7.79518 27.3436 7.20625C26.7546 6.61731 25.9559 6.28645 25.123 6.28645C24.2901 6.28645 23.4913 6.61731 22.9024 7.20625C22.3135 7.79518 21.9826 8.59395 21.9826 9.42683C21.9871 11.7922 21.1017 14.0727 19.5023 15.8154C17.9028 17.558 15.7063 18.6352 13.3492 18.833C10.9921 19.0308 8.64688 18.3347 6.77939 16.8829C4.91189 15.4312 3.65883 13.3301 3.26913 10.997H1.57019C1.15375 10.997 0.754364 10.8316 0.459897 10.5371C0.16543 10.2427 0 9.84327 0 9.42683C0 9.01039 0.16543 8.611 0.459897 8.31654C0.754364 8.02207 1.15375 7.85664 1.57019 7.85664L29.2511 4.691ZM20.5862 4.9848L20.7422 5.26703L20.9766 5.04563C22.0596 4.02302 23.5188 3.39608 25.123 3.39608L25.1234 3.39608C26.6657 3.39341 28.15 3.98387 29.269 5.04525L29.5035 5.26768L29.6598 4.9848C30.5802 3.31948 31.9958 1.98167 33.7104 1.15675C35.4251 0.331818 37.3538 0.0606173 39.2294 0.380723C41.1051 0.700829 42.8347 1.59639 44.1786 2.94331C45.5226 4.29024 46.4143 6.02183 46.7303 7.89815L46.7654 8.10664H46.9768H48.6758C49.0259 8.10664 49.3617 8.24573 49.6093 8.49331C49.8569 8.7409 49.996 9.07669 49.996 9.42683C49.996 9.77696 49.8569 10.1128 49.6093 10.3603C49.3617 10.6079 49.0259 10.747 48.6758 10.747H46.9768H46.7651L46.7303 10.9558C46.3509 13.227 45.1311 15.2723 43.3132 16.6855C41.4952 18.0988 39.2122 18.7764 36.9176 18.5839C34.6231 18.3914 32.4849 17.3427 30.9279 15.6463C29.3709 13.9499 28.509 11.7299 28.5134 9.42731V9.42683C28.5134 8.52764 28.1562 7.66529 27.5203 7.02947C26.8845 6.39365 26.0222 6.03645 25.123 6.03645C24.2238 6.03645 23.3615 6.39365 22.7256 7.02947C22.0898 7.66529 21.7326 8.52764 21.7326 9.42683V9.42731C21.737 11.7299 20.8751 13.9499 19.3181 15.6463C17.7611 17.3427 15.6229 18.3914 13.3283 18.5839C11.0338 18.7764 8.75076 18.0988 6.93282 16.6855C5.11489 15.2723 3.89507 13.227 3.51571 10.9558L3.48083 10.747H3.26913H1.57019C1.22005 10.747 0.884256 10.6079 0.636674 10.3603C0.389091 10.1128 0.25 9.77696 0.25 9.42683C0.25 9.07669 0.389091 8.7409 0.636674 8.49331C0.884257 8.24573 1.22005 8.10664 1.57019 8.10664H3.26913H3.48055L3.51566 7.89815C3.83163 6.02183 4.72338 4.29024 6.06734 2.94331C7.4113 1.59639 9.14093 0.700829 11.0165 0.380723C12.8922 0.0606173 14.8209 0.331818 16.5355 1.15675C18.2502 1.98167 19.6658 3.31948 20.5862 4.9848ZM17.1794 4.80889C15.9547 3.58414 14.2936 2.89608 12.5615 2.89608C10.8294 2.89608 9.16831 3.58414 7.94356 4.80889C6.71881 6.03364 6.03075 7.69476 6.03075 9.42683C6.03075 11.1589 6.71881 12.82 7.94356 14.0448C9.16831 15.2695 10.8294 15.9576 12.5615 15.9576C14.2936 15.9576 15.9547 15.2695 17.1794 14.0448C18.4042 12.82 19.0922 11.1589 19.0922 9.42683C19.0922 7.69476 18.4042 6.03364 17.1794 4.80889ZM42.3024 14.0448C43.5272 12.82 44.2152 11.1589 44.2152 9.42683C44.2152 7.69476 43.5272 6.03364 42.3024 4.80889C41.0777 3.58414 39.4165 2.89608 37.6845 2.89608C35.9524 2.89608 34.2913 3.58414 33.0666 4.80889C31.8418 6.03364 31.1537 7.69476 31.1537 9.42683C31.1537 11.1589 31.8418 12.82 33.0666 14.0448C34.2913 15.2695 35.9524 15.9576 37.6845 15.9576C39.4165 15.9576 41.0777 15.2695 42.3024 14.0448Z" fill="#FBFBFB" stroke="#8CC754" stroke-width="0.5"/>
</svg>
