<svg width="290" height="162" viewBox="0 0 290 162" fill="none" xmlns="http://www.w3.org/2000/svg">
<g clip-path="url(#clip0)">
<path d="M0 0H290V162H0V0Z" fill="#BD67D5"/>
<g filter="url(#filter0_b)">
<path fill-rule="evenodd" clip-rule="evenodd" d="M142.079 209.178C119.705 208.792 96.7298 218.443 76.5917 208.671C54.7374 198.065 53.1552 178.299 52.0693 154C50.9639 129.264 63.3579 118.801 71.5313 95.4325C79.363 73.0411 59.8044 44.1856 75.1254 26.0908C90.2405 8.23926 118.772 10.3996 142.079 12.1127C164.067 13.729 186.926 19.5629 202.254 35.4353C216.55 50.2391 214.033 73.3203 220.171 92.9772C226.211 112.321 239.766 129.393 237.893 149.573C235.754 172.63 228.864 198.74 209.225 210.958C189.728 223.087 165.027 209.574 142.079 209.178Z" fill="white" fill-opacity="0.3"/>
</g>
<path fill-rule="evenodd" clip-rule="evenodd" d="M203.531 96.4578C204.706 61.5206 180.652 32.396 149.92 31.4066C119.125 30.3554 93.2162 57.8723 92.0413 92.7477C90.8664 127.685 114.921 156.81 145.653 157.861C176.447 158.85 202.356 131.395 203.531 96.4578Z" fill="#85BE4F"/>
<path fill-rule="evenodd" clip-rule="evenodd" d="M123.701 52.1826C132.606 52.1826 139.902 45.0097 139.902 36.1671C139.902 27.3246 132.606 20.1517 123.701 20.1517C114.735 20.1517 107.438 27.3246 107.438 36.1671C107.438 45.0097 114.735 52.1826 123.701 52.1826Z" fill="white" stroke="#1D1D1B" stroke-width="0.2646"/>
<path fill-rule="evenodd" clip-rule="evenodd" d="M123.269 52.1824C130.009 52.1824 135.513 46.679 135.513 39.8771C135.513 33.137 130.009 27.6336 123.269 27.6336C116.467 27.6336 110.964 33.137 110.964 39.8771C110.964 46.679 116.467 52.1824 123.269 52.1824Z" fill="black" stroke="#1D1D1B" stroke-width="0.2646"/>
<path fill-rule="evenodd" clip-rule="evenodd" d="M164.018 52.1826C172.984 52.1826 180.219 45.0097 180.219 36.1671C180.219 27.3246 172.984 20.1517 164.018 20.1517C155.052 20.1517 147.755 27.3246 147.755 36.1671C147.755 45.0097 155.052 52.1826 164.018 52.1826Z" fill="white" stroke="#1D1D1B" stroke-width="0.2646"/>
<path fill-rule="evenodd" clip-rule="evenodd" d="M146.704 157.365C165.934 157.365 181.517 141.164 181.517 121.191C181.517 101.218 165.934 85.0173 146.704 85.0173C127.473 85.0173 111.828 101.218 111.828 121.191C111.828 141.164 127.473 157.365 146.704 157.365Z" fill="#2DA03A"/>
<path fill-rule="evenodd" clip-rule="evenodd" d="M163.587 52.1824C170.327 52.1824 175.83 46.679 175.83 39.8771C175.83 33.137 170.327 27.6336 163.587 27.6336C156.785 27.6336 151.281 33.137 151.281 39.8771C151.281 46.679 156.785 52.1824 163.587 52.1824Z" fill="black" stroke="#1D1D1B" stroke-width="0.2646"/>
<path d="M141.199 78.2782C144.353 79.3913 147.692 79.886 151.093 79.7623C155.978 79.5768 160.739 78.0309 164.882 75.3719" stroke="#37441D" stroke-width="5"/>
<path fill-rule="evenodd" clip-rule="evenodd" d="M103.047 24.2956H185.907C191.967 24.2956 196.852 29.1806 196.852 35.2405V56.6975C196.852 62.7574 191.967 67.6425 185.907 67.6425H103.047C96.9876 67.6425 92.1025 62.7574 92.1025 56.6975V35.2405C92.1025 29.1806 96.9876 24.2956 103.047 24.2956Z" fill="#2C3A6A"/>
<path fill-rule="evenodd" clip-rule="evenodd" d="M92.2266 35.1166C92.2266 29.0567 97.1734 24.1099 103.171 24.1099H186.031C192.091 24.1099 196.976 29.0567 196.976 35.1166V50.019H92.2266V35.1166Z" fill="#6378C0"/>
<path d="M106.14 18.8539L135.512 11.8665" stroke="#37441D" stroke-width="5"/>
<path d="M151.714 11L180.22 17.5546" stroke="#37441D" stroke-width="5"/>
<path fill-rule="evenodd" clip-rule="evenodd" d="M213.918 73.7632L227.213 80.1323C227.893 80.4415 228.141 81.2453 227.831 81.8637L197.346 145.616C197.037 146.235 196.295 146.544 195.615 146.235L182.32 139.866C181.64 139.556 181.393 138.753 181.702 138.072L212.125 74.3816C212.496 73.7632 213.238 73.454 213.918 73.7632Z" fill="#2C3A6A"/>
<path fill-rule="evenodd" clip-rule="evenodd" d="M217.816 75.6802L223.32 78.2773C223.938 78.5865 224.247 79.3903 223.938 80.0087L193.453 143.7C193.144 144.38 192.34 144.627 191.722 144.318L186.218 141.721C185.6 141.412 185.291 140.608 185.6 139.989L216.085 76.2986C216.394 75.6184 217.198 75.3092 217.816 75.6802Z" fill="#586BAF"/>
<path fill-rule="evenodd" clip-rule="evenodd" d="M181.518 132.013C181.456 131.333 182.136 130.838 182.754 131.147L202.418 140.175C203.036 140.484 203.098 141.35 202.542 141.721L184.857 154.212C184.3 154.645 183.558 154.274 183.496 153.593L181.518 132.013Z" fill="#9A968E"/>
<path fill-rule="evenodd" clip-rule="evenodd" d="M182.568 145.617L191.658 149.821L183.496 155.634L182.568 145.617Z" fill="#F6B028"/>
<path fill-rule="evenodd" clip-rule="evenodd" d="M199.637 105.98C206.438 107.341 207.119 105.733 209.901 107.403C211.818 108.516 213.24 110.247 213.982 112.349C214.601 114.143 214.539 116.183 213.735 117.915C212.004 121.563 207.799 122.181 207.242 122.243C205.82 122.367 202.605 122.429 201.863 120.697C201.306 119.337 202.666 117.667 202.79 117.544C203.223 116.987 203.841 116.492 204.522 116.183C205.202 115.812 205.944 115.627 206.686 115.565C206.748 115.75 201.924 119.028 197.658 117.915C195.988 117.544 193.886 116.369 193.824 114.947C193.762 113.091 197.658 111.607 199.76 111.051C200.997 110.742 202.234 110.556 203.47 110.494C203.47 110.494 198.338 111.978 196.483 109.876C195.494 108.825 195.37 106.846 196.297 106.042C196.978 105.362 198.152 105.671 199.637 105.98Z" fill="#72B236" stroke="#2C3A6A" stroke-width="0.1693"/>
<path fill-rule="evenodd" clip-rule="evenodd" d="M175.211 49.5863C175.211 49.8336 175.273 50.1428 175.458 50.2665C175.706 50.3283 176.015 50.1428 176.2 50.081C176.262 50.0191 176.324 50.0191 176.386 50.0191L177.004 49.6481C177.066 49.6481 177.128 49.5863 177.19 49.5863C177.437 49.4008 177.746 49.1534 177.994 48.9679C178.117 48.9061 178.179 48.8442 178.303 48.7206L178.798 48.2877C179.416 47.6694 180.467 46.7418 181.024 46.0616L181.642 45.4433C182.013 44.9486 181.951 44.8868 182.26 44.3302C182.322 44.2066 182.384 44.1447 182.446 44.0211C182.508 43.8974 182.57 43.8356 182.631 43.7737C183.312 43.0935 184.054 43.65 184.61 44.1447C184.672 44.2066 184.672 44.2066 184.734 44.2684C184.858 44.3302 184.919 44.5157 184.919 44.6394C184.981 44.8249 184.981 44.8868 184.919 45.0723C184.61 46.1235 183.064 46.2471 182.508 46.4945C182.199 46.68 181.828 46.9892 181.58 47.2984C181.271 47.6694 180.838 47.9785 180.529 48.4114C180.343 48.6587 180.034 48.9679 179.787 49.2771L179.045 50.2665C178.736 50.6375 178.427 51.0703 178.056 51.4413C177.561 51.936 177.437 52.6781 178.303 52.8636C180.034 53.2964 182.755 52.6162 184.425 52.1215C184.796 51.9979 184.981 51.8124 185.229 51.6269C185.538 51.4413 185.909 51.3795 186.218 51.4413C186.96 51.5032 187.578 52.7399 187.455 53.5438C187.331 54.1621 186.836 54.2858 186.28 54.2858C185.29 54.2858 184.919 53.6674 183.93 53.6674C182.941 53.6674 182.879 53.7293 182.075 53.8529L180.22 54.3476C180.096 54.4095 180.096 54.4713 179.972 54.5331L179.107 54.8423C178.859 54.9041 178.736 55.0278 178.488 55.0897C177.685 55.2133 177.499 55.6462 176.881 55.8317L176.2 56.0172C175.706 56.2027 175.953 56.2645 175.026 56.3882C174.902 56.45 174.778 56.45 174.716 56.5119C174.407 56.5737 173.851 56.5737 173.542 56.5737C173.171 56.5737 172.676 56.5119 172.305 56.3882C172.119 56.3264 171.996 56.2027 171.872 56.1409C171.13 55.7698 170.635 54.966 170.264 54.224C169.831 53.2964 169.646 51.565 169.646 50.5756C169.646 50.0191 170.079 49.5244 170.141 48.9061C170.141 48.0404 170.202 47.3602 169.831 46.4945C169.831 46.4327 169.77 46.3708 169.77 46.2471L169.399 45.5051C169.028 44.8249 168.533 44.8868 168.038 44.0829C167.791 43.5264 167.915 42.9699 168.347 42.5988C168.78 42.166 169.955 41.8568 170.326 42.4752C170.821 43.1554 170.512 44.0211 170.512 44.5157C170.512 44.8249 170.573 45.0723 170.635 45.3196C170.759 46.0616 170.759 45.9998 171.068 46.7418C171.068 46.8037 171.13 46.9273 171.13 47.051C171.192 47.1747 171.254 47.2365 171.315 47.3602C171.686 47.9785 171.748 47.9785 172.119 48.4114C172.305 48.6587 172.923 49.2153 173.232 49.2153H173.294C173.727 48.5351 173.974 47.793 174.222 47.051C174.531 46.2471 174.716 45.3814 174.902 44.5776C174.964 44.3302 175.026 44.0211 175.087 43.7737C175.397 42.537 175.087 42.8462 175.087 41.9186C175.087 41.4858 175.273 41.3003 175.582 40.9911C175.768 40.8056 175.768 40.8674 176.077 40.8056C176.757 40.6201 176.819 40.5583 177.314 41.1148C177.437 41.2385 177.375 41.2385 177.499 41.3621C177.746 41.8568 177.746 41.4858 177.685 42.2278C177.623 42.6607 177.437 43.279 176.943 43.4645C176.757 43.5882 176.633 43.5882 176.448 43.7737C176.139 44.0211 176.077 44.4539 175.953 44.8249C175.582 45.7525 175.458 47.1747 175.335 48.1641C175.335 48.5969 175.211 49.0916 175.211 49.5863Z" fill="#82BF4E"/>
<path d="M125.331 28.5541L123.91 31.8364H123.16L121.744 28.5541H122.565L123.563 30.8986L124.576 28.5541H125.331ZM127.696 31.8364L127.063 30.9221H127.026H126.365V31.8364H125.605V28.5541H127.026C127.317 28.5541 127.568 28.6025 127.781 28.6994C127.997 28.7963 128.162 28.9339 128.278 29.1121C128.394 29.2902 128.451 29.5013 128.451 29.7451C128.451 29.9889 128.392 30.1999 128.273 30.3781C128.158 30.5532 127.992 30.6876 127.776 30.7814L128.512 31.8364H127.696ZM127.682 29.7451C127.682 29.5606 127.623 29.42 127.504 29.3231C127.385 29.223 127.212 29.173 126.984 29.173H126.365V30.3172H126.984C127.212 30.3172 127.385 30.2671 127.504 30.1671C127.623 30.0671 127.682 29.9264 127.682 29.7451Z" fill="#2DA03A"/>
<path fill-rule="evenodd" clip-rule="evenodd" d="M111.335 48.8436C111.335 49.0909 111.273 49.4001 111.026 49.462C110.779 49.5856 110.531 49.4001 110.284 49.3383C110.222 49.2764 110.222 49.2764 110.16 49.2764L109.542 48.9054C109.48 48.8436 109.418 48.8436 109.356 48.8436C109.047 48.6581 108.8 48.4107 108.491 48.2252C108.429 48.1634 108.367 48.1016 108.243 47.9779L107.749 47.545C107.13 46.9885 106.079 45.9992 105.523 45.3808L104.966 44.7624C104.533 44.2678 104.657 44.1441 104.348 43.6494C104.286 43.5257 104.224 43.4639 104.162 43.3402C104.1 43.2165 104.039 43.1547 103.915 43.0929C103.297 42.4127 102.554 42.9692 101.998 43.4639C101.936 43.5257 101.874 43.5257 101.812 43.5876C101.751 43.6494 101.689 43.7731 101.627 43.8967C101.627 44.1441 101.627 44.1441 101.689 44.3914C101.998 45.4426 103.482 45.5045 104.039 45.8136C104.41 45.9373 104.719 46.2465 104.966 46.5557C105.337 46.9267 105.708 47.2359 106.017 47.6687C106.203 47.9161 106.512 48.2252 106.759 48.5344L107.501 49.462C107.811 49.8948 108.12 50.3277 108.491 50.6987C108.985 51.1934 109.109 51.8735 108.243 52.1209C106.512 52.5537 103.853 51.8117 102.122 51.317C101.751 51.2552 101.627 51.0697 101.318 50.8842C101.07 50.6987 100.699 50.575 100.39 50.6368C99.6482 50.7605 99.0299 51.9972 99.1535 52.7392C99.2772 53.3576 99.7719 53.4813 100.328 53.4813C101.256 53.4813 101.689 52.9248 102.678 52.9248C103.606 52.9248 103.668 52.9866 104.471 53.0484L106.326 53.6049C106.45 53.6668 106.45 53.6668 106.574 53.7286L107.44 54.0378C107.687 54.0996 107.811 54.2851 108.058 54.2851C108.862 54.4088 109.047 54.8417 109.666 55.0272L110.284 55.2127C110.779 55.3982 110.531 55.46 111.521 55.5837C111.644 55.6455 111.706 55.6455 111.83 55.7074C112.077 55.7692 112.634 55.7692 112.943 55.7692C113.314 55.7692 113.87 55.7074 114.18 55.5837C114.365 55.5219 114.489 55.3982 114.612 55.3363C115.355 54.9653 115.849 54.1615 116.22 53.4194C116.653 52.5537 116.839 50.8223 116.839 49.833C116.777 49.2764 116.406 48.7818 116.344 48.1634C116.344 47.2977 116.282 46.6793 116.653 45.8136C116.653 45.69 116.715 45.6281 116.715 45.5663L117.024 44.8243C117.457 44.1441 117.952 44.2059 118.384 43.3402C118.694 42.8455 118.508 42.289 118.075 41.8562C117.642 41.4851 116.529 41.176 116.158 41.7943C115.664 42.4745 115.973 43.3402 115.973 43.8349C115.973 44.0822 115.911 44.3914 115.849 44.5769C115.726 45.3808 115.726 45.2571 115.416 45.9992C115.416 46.1228 115.355 46.2465 115.355 46.3083C115.293 46.4938 115.231 46.4938 115.169 46.6175C114.798 47.2977 114.736 47.2359 114.365 47.6687C114.18 47.9161 113.561 48.4726 113.314 48.4726H113.19C112.757 47.8542 112.51 47.0504 112.263 46.3083C112.015 45.5663 111.768 44.7006 111.644 43.8967C111.583 43.6494 111.521 43.3402 111.459 43.031C111.15 41.8562 111.397 42.1035 111.397 41.2378C111.397 40.8049 111.212 40.6194 110.964 40.3103C110.717 40.1248 110.717 40.1866 110.469 40.1248C109.727 39.9392 109.727 39.8774 109.233 40.4339C109.109 40.5576 109.109 40.5576 109.047 40.6813C108.8 41.176 108.8 40.8049 108.862 41.547C108.924 41.9798 109.109 42.5982 109.542 42.7837C109.789 42.9074 109.913 42.9074 110.098 43.031C110.346 43.2784 110.408 43.7731 110.593 44.0822C110.902 45.0098 111.088 46.432 111.15 47.4214C111.212 47.8542 111.335 48.3489 111.335 48.8436Z" fill="#82BF4E"/>
<path d="M144.486 36.9979L135.396 57.9979H130.596L121.536 36.9979H126.786L133.176 51.9979L139.656 36.9979H144.486ZM159.619 57.9979L155.569 52.1479H155.329H151.099V57.9979H146.239V36.9979H155.329C157.189 36.9979 158.799 37.3079 160.159 37.9279C161.539 38.5479 162.599 39.4279 163.339 40.5679C164.079 41.7079 164.449 43.0579 164.449 44.6179C164.449 46.1779 164.069 47.5279 163.309 48.6679C162.569 49.7879 161.509 50.6479 160.129 51.2479L164.839 57.9979H159.619ZM159.529 44.6179C159.529 43.4379 159.149 42.5379 158.389 41.9179C157.629 41.2779 156.519 40.9579 155.059 40.9579H151.099V48.2779H155.059C156.519 48.2779 157.629 47.9579 158.389 47.3179C159.149 46.6779 159.529 45.7779 159.529 44.6179Z" fill="#2DA03A"/>
</g>
<defs>
<filter id="filter0_b" x="48" y="7" width="194.069" height="213" filterUnits="userSpaceOnUse" color-interpolation-filters="sRGB">
<feFlood flood-opacity="0" result="BackgroundImageFix"/>
<feGaussianBlur in="BackgroundImage" stdDeviation="2"/>
<feComposite in2="SourceAlpha" operator="in" result="effect1_backgroundBlur"/>
<feBlend mode="normal" in="SourceGraphic" in2="effect1_backgroundBlur" result="shape"/>
</filter>
<clipPath id="clip0">
<path d="M0 9C0 4.02944 4.02944 0 9 0H281C285.971 0 290 4.02944 290 9V162H0V9Z" fill="white"/>
</clipPath>
</defs>
</svg>
