<svg width="290" height="162" viewBox="0 0 290 162" fill="none" xmlns="http://www.w3.org/2000/svg">
<g clip-path="url(#clip0)">
<path d="M0 0H290V162H0V0Z" fill="#DB538C"/>
<g filter="url(#filter0_b)">
<path fill-rule="evenodd" clip-rule="evenodd" d="M142.079 209.178C119.705 208.792 96.7298 218.443 76.5917 208.671C54.7374 198.065 53.1552 178.299 52.0693 154C50.9639 129.264 63.3579 118.801 71.5313 95.4325C79.363 73.0411 59.8044 44.1856 75.1254 26.0908C90.2405 8.23926 118.772 10.3996 142.079 12.1127C164.067 13.729 186.926 19.5629 202.254 35.4353C216.55 50.2391 214.033 73.3203 220.171 92.9772C226.211 112.321 239.766 129.393 237.893 149.573C235.754 172.63 228.864 198.74 209.225 210.958C189.728 223.087 165.027 209.574 142.079 209.178Z" fill="white" fill-opacity="0.3"/>
</g>
<path fill-rule="evenodd" clip-rule="evenodd" d="M203.531 96.4578C204.706 61.5206 180.652 32.396 149.92 31.4066C119.125 30.3554 93.2162 57.8723 92.0413 92.7477C90.8664 127.685 114.921 156.81 145.653 157.861C176.447 158.85 202.356 131.395 203.531 96.4578Z" fill="#85BE4F"/>
<path fill-rule="evenodd" clip-rule="evenodd" d="M123.701 52.1826C132.606 52.1826 139.902 45.0097 139.902 36.1671C139.902 27.3246 132.606 20.1517 123.701 20.1517C114.735 20.1517 107.438 27.3246 107.438 36.1671C107.438 45.0097 114.735 52.1826 123.701 52.1826Z" fill="white" stroke="#1D1D1B" stroke-width="0.2646"/>
<path fill-rule="evenodd" clip-rule="evenodd" d="M123.269 52.1824C130.009 52.1824 135.513 46.679 135.513 39.8771C135.513 33.137 130.009 27.6336 123.269 27.6336C116.467 27.6336 110.964 33.137 110.964 39.8771C110.964 46.679 116.467 52.1824 123.269 52.1824Z" fill="black" stroke="#1D1D1B" stroke-width="0.2646"/>
<path fill-rule="evenodd" clip-rule="evenodd" d="M164.018 52.1826C172.984 52.1826 180.219 45.0097 180.219 36.1671C180.219 27.3246 172.984 20.1517 164.018 20.1517C155.052 20.1517 147.755 27.3246 147.755 36.1671C147.755 45.0097 155.052 52.1826 164.018 52.1826Z" fill="white" stroke="#1D1D1B" stroke-width="0.2646"/>
<path fill-rule="evenodd" clip-rule="evenodd" d="M146.704 157.365C165.934 157.365 181.517 141.164 181.517 121.191C181.517 101.218 165.934 85.0173 146.704 85.0173C127.473 85.0173 111.828 101.218 111.828 121.191C111.828 141.164 127.473 157.365 146.704 157.365Z" fill="#2DA03A"/>
<path fill-rule="evenodd" clip-rule="evenodd" d="M163.587 52.1824C170.327 52.1824 175.83 46.679 175.83 39.8771C175.83 33.137 170.327 27.6336 163.587 27.6336C156.785 27.6336 151.281 33.137 151.281 39.8771C151.281 46.679 156.785 52.1824 163.587 52.1824Z" fill="black" stroke="#1D1D1B" stroke-width="0.2646"/>
<path d="M141.199 78.2782C144.353 79.3913 147.692 79.886 151.093 79.7623C155.978 79.5768 160.739 78.0309 164.882 75.3719" stroke="#37441D" stroke-width="5"/>
<path fill-rule="evenodd" clip-rule="evenodd" d="M100.945 45H183.805C189.865 45 194.75 49.885 194.75 55.9449V77.4019C194.75 83.4618 189.865 88.3469 183.805 88.3469H100.945C94.885 88.3469 90 83.4618 90 77.4019V55.9449C90 49.885 94.885 45 100.945 45Z" fill="#2C3A6A"/>
<path d="M105 8.98745L134.372 2" stroke="#37441D" stroke-width="5"/>
<path d="M153 2L181.506 8.55458" stroke="#37441D" stroke-width="5"/>
<path fill-rule="evenodd" clip-rule="evenodd" d="M196.105 73.6444L210.844 73.9135C211.591 73.9121 212.15 74.5405 212.126 75.2314L210.887 145.887C210.863 146.578 210.316 147.167 209.569 147.169L194.83 146.9C194.083 146.901 193.524 146.273 193.522 145.526L194.73 74.952C194.811 74.2354 195.357 73.6458 196.105 73.6444Z" fill="#2C3A6A"/>
<path fill-rule="evenodd" clip-rule="evenodd" d="M200.447 73.7684L206.532 73.844C207.223 73.8683 207.838 74.471 207.814 75.1619L206.549 145.761C206.551 146.508 205.922 147.067 205.231 147.043L199.146 146.968C198.455 146.943 197.84 146.341 197.864 145.65L199.129 75.0503C199.127 74.3031 199.73 73.6879 200.447 73.7684Z" fill="#586BAF"/>
<path fill-rule="evenodd" clip-rule="evenodd" d="M190.837 140.09C190.498 139.497 190.911 138.765 191.602 138.789L213.239 138.83C213.93 138.855 214.346 139.616 213.994 140.185L203.098 158.895C202.772 159.52 201.943 159.491 201.604 158.898L190.837 140.09Z" fill="#9A968E"/>
<path fill-rule="evenodd" clip-rule="evenodd" d="M197.445 152.028L207.46 152.075L202.451 160.754L197.445 152.028Z" fill="#F6B028"/>
<path fill-rule="evenodd" clip-rule="evenodd" d="M196.501 108.883C203.253 107.294 203.204 105.549 206.428 105.912C208.634 106.127 210.647 107.111 212.196 108.715C213.503 110.09 214.295 111.971 214.283 113.88C214.224 117.918 210.657 120.228 210.176 120.515C208.934 121.219 206.035 122.611 204.641 121.344C203.569 120.338 204.113 118.254 204.174 118.09C204.336 117.404 204.693 116.698 205.183 116.134C205.648 115.514 206.246 115.037 206.895 114.672C207.028 114.815 204.003 119.8 199.66 120.561C197.987 120.917 195.586 120.722 194.939 119.454C194.112 117.792 197.039 114.824 198.72 113.444C199.716 112.649 200.764 111.966 201.863 111.396C201.863 111.396 197.812 114.878 195.251 113.737C193.914 113.192 192.979 111.443 193.489 110.327C193.825 109.425 195.022 109.218 196.501 108.883Z" fill="#72B236" stroke="#2C3A6A" stroke-width="0.1693"/>
<path fill-rule="evenodd" clip-rule="evenodd" d="M173.109 70.2907C173.109 70.538 173.17 70.8472 173.356 70.9709C173.603 71.0327 173.912 70.8472 174.098 70.7854C174.16 70.7235 174.222 70.7235 174.283 70.7235L174.902 70.3525C174.964 70.3525 175.025 70.2907 175.087 70.2907C175.335 70.1052 175.644 69.8578 175.891 69.6723C176.015 69.6105 176.077 69.5487 176.2 69.425L176.695 68.9921C177.313 68.3738 178.365 67.4462 178.921 66.766L179.54 66.1477C179.911 65.653 179.849 65.5912 180.158 65.0346C180.22 64.911 180.282 64.8491 180.343 64.7255C180.405 64.6018 180.467 64.54 180.529 64.4781C181.209 63.7979 181.951 64.3545 182.508 64.8491C182.569 64.911 182.569 64.911 182.631 64.9728C182.755 65.0346 182.817 65.2202 182.817 65.3438C182.879 65.5293 182.879 65.5912 182.817 65.7767C182.508 66.8279 180.962 66.9516 180.405 67.1989C180.096 67.3844 179.725 67.6936 179.478 68.0028C179.168 68.3738 178.736 68.683 178.426 69.1158C178.241 69.3631 177.932 69.6723 177.684 69.9815L176.942 70.9709C176.633 71.3419 176.324 71.7747 175.953 72.1458C175.458 72.6404 175.335 73.3825 176.2 73.568C177.932 74.0008 180.653 73.3206 182.322 72.8259C182.693 72.7023 182.879 72.5168 183.126 72.3313C183.435 72.1458 183.806 72.0839 184.115 72.1458C184.857 72.2076 185.476 73.4443 185.352 74.2482C185.228 74.8665 184.734 74.9902 184.177 74.9902C183.188 74.9902 182.817 74.3718 181.827 74.3718C180.838 74.3718 180.776 74.4337 179.972 74.5573L178.117 75.052C177.994 75.1139 177.994 75.1757 177.87 75.2375L177.004 75.5467C176.757 75.6086 176.633 75.7322 176.386 75.7941C175.582 75.9177 175.397 76.3506 174.778 76.5361L174.098 76.7216C173.603 76.9071 173.851 76.9689 172.923 77.0926C172.799 77.1544 172.676 77.1544 172.614 77.2163C172.305 77.2781 171.748 77.2781 171.439 77.2781C171.068 77.2781 170.573 77.2163 170.202 77.0926C170.017 77.0308 169.893 76.9071 169.769 76.8453C169.027 76.4743 168.533 75.6704 168.162 74.9284C167.729 74.0008 167.543 72.2694 167.543 71.2801C167.543 70.7235 167.976 70.2288 168.038 69.6105C168.038 68.7448 168.1 68.0646 167.729 67.1989C167.729 67.1371 167.667 67.0752 167.667 66.9516L167.296 66.2095C166.925 65.5293 166.43 65.5912 165.936 64.7873C165.688 64.2308 165.812 63.6743 166.245 63.3032C166.678 62.8704 167.853 62.5612 168.224 63.1796C168.718 63.8598 168.409 64.7255 168.409 65.2202C168.409 65.5293 168.471 65.7767 168.533 66.024C168.656 66.766 168.656 66.7042 168.966 67.4462C168.966 67.5081 169.027 67.6317 169.027 67.7554C169.089 67.8791 169.151 67.9409 169.213 68.0646C169.584 68.683 169.646 68.683 170.017 69.1158C170.202 69.3631 170.821 69.9197 171.13 69.9197H171.192C171.625 69.2395 171.872 68.4974 172.119 67.7554C172.428 66.9516 172.614 66.0859 172.799 65.282C172.861 65.0346 172.923 64.7255 172.985 64.4781C173.294 63.2414 172.985 63.5506 172.985 62.6231C172.985 62.1902 173.17 62.0047 173.48 61.6955C173.665 61.51 173.665 61.5718 173.974 61.51C174.654 61.3245 174.716 61.2627 175.211 61.8192C175.335 61.9429 175.273 61.9429 175.397 62.0665C175.644 62.5612 175.644 62.1902 175.582 62.9322C175.52 63.3651 175.335 63.9834 174.84 64.1689C174.654 64.2926 174.531 64.2926 174.345 64.4781C174.036 64.7255 173.974 65.1583 173.851 65.5293C173.48 66.4569 173.356 67.8791 173.232 68.8685C173.232 69.3013 173.109 69.796 173.109 70.2907Z" fill="#82BF4E"/>
<path fill-rule="evenodd" clip-rule="evenodd" d="M107.095 69.555C107.095 69.8023 107.033 70.1115 106.786 70.1733C106.538 70.297 106.291 70.1115 106.044 70.0496C105.982 69.9878 105.982 69.9878 105.92 69.9878L105.302 69.6168C105.24 69.555 105.178 69.555 105.116 69.555C104.807 69.3695 104.56 69.1221 104.25 68.9366C104.189 68.8748 104.127 68.8129 104.003 68.6893L103.508 68.2564C102.89 67.6999 101.839 66.7105 101.282 66.0922L100.726 65.4738C100.293 64.9791 100.417 64.8554 100.108 64.3608C100.046 64.2371 99.9838 64.1753 99.922 64.0516C99.8602 63.9279 99.7983 63.8661 99.6747 63.8042C99.0563 63.124 98.3143 63.6806 97.7577 64.1753C97.6959 64.2371 97.6341 64.2371 97.5722 64.2989C97.5104 64.3608 97.4486 64.4844 97.3867 64.6081C97.3867 64.8554 97.3867 64.8554 97.4486 65.1028C97.7577 66.154 99.2418 66.2158 99.7983 66.525C100.169 66.6487 100.479 66.9579 100.726 67.267C101.097 67.6381 101.468 67.9472 101.777 68.3801C101.963 68.6274 102.272 68.9366 102.519 69.2458L103.261 70.1733C103.57 70.6062 103.879 71.039 104.25 71.41C104.745 71.9047 104.869 72.5849 104.003 72.8323C102.272 73.2651 99.6128 72.5231 97.8814 72.0284C97.5104 71.9666 97.3867 71.781 97.0775 71.5955C96.8302 71.41 96.4592 71.2864 96.15 71.3482C95.408 71.4719 94.7896 72.7086 94.9133 73.4506C95.037 74.069 95.5317 74.1926 96.0882 74.1926C97.0157 74.1926 97.4486 73.6361 98.4379 73.6361C99.3655 73.6361 99.4273 73.698 100.231 73.7598L102.086 74.3163C102.21 74.3781 102.21 74.3781 102.334 74.44L103.199 74.7492C103.447 74.811 103.57 74.9965 103.818 74.9965C104.622 75.1202 104.807 75.553 105.425 75.7385L106.044 75.924C106.538 76.1095 106.291 76.1714 107.28 76.2951C107.404 76.3569 107.466 76.3569 107.59 76.4187C107.837 76.4806 108.393 76.4806 108.703 76.4806C109.074 76.4806 109.63 76.4187 109.939 76.2951C110.125 76.2332 110.249 76.1095 110.372 76.0477C111.114 75.6767 111.609 74.8728 111.98 74.1308C112.413 73.2651 112.598 71.5337 112.598 70.5443C112.536 69.9878 112.165 69.4931 112.104 68.8748C112.104 68.0091 112.042 67.3907 112.413 66.525C112.413 66.4013 112.475 66.3395 112.475 66.2777L112.784 65.5356C113.217 64.8554 113.711 64.9173 114.144 64.0516C114.453 63.5569 114.268 63.0004 113.835 62.5675C113.402 62.1965 112.289 61.8873 111.918 62.5057C111.423 63.1859 111.733 64.0516 111.733 64.5463C111.733 64.7936 111.671 65.1028 111.609 65.2883C111.485 66.0922 111.485 65.9685 111.176 66.7105C111.176 66.8342 111.114 66.9579 111.114 67.0197C111.052 67.2052 110.991 67.2052 110.929 67.3289C110.558 68.0091 110.496 67.9472 110.125 68.3801C109.939 68.6274 109.321 69.1839 109.074 69.1839H108.95C108.517 68.5656 108.27 67.7617 108.022 67.0197C107.775 66.2777 107.528 65.412 107.404 64.6081C107.342 64.3608 107.28 64.0516 107.219 63.7424C106.909 62.5675 107.157 62.8149 107.157 61.9492C107.157 61.5163 106.971 61.3308 106.724 61.0216C106.477 60.8361 106.477 60.898 106.229 60.8361C105.487 60.6506 105.487 60.5888 104.993 61.1453C104.869 61.269 104.869 61.269 104.807 61.3926C104.56 61.8873 104.56 61.5163 104.622 62.2583C104.683 62.6912 104.869 63.3096 105.302 63.4951C105.549 63.6187 105.673 63.6187 105.858 63.7424C106.106 63.9897 106.167 64.4844 106.353 64.7936C106.662 65.7211 106.848 67.1434 106.909 68.1327C106.971 68.5656 107.095 69.0603 107.095 69.555Z" fill="#82BF4E"/>
<path d="M142.383 57.7023L133.293 78.7023H128.493L119.433 57.7023H124.683L131.073 72.7023L137.553 57.7023H142.383ZM157.516 78.7023L153.466 72.8523H153.226H148.996V78.7023H144.136V57.7023H153.226C155.086 57.7023 156.696 58.0123 158.056 58.6323C159.436 59.2523 160.496 60.1323 161.236 61.2723C161.976 62.4123 162.346 63.7623 162.346 65.3223C162.346 66.8823 161.966 68.2323 161.206 69.3723C160.466 70.4923 159.406 71.3523 158.026 71.9523L162.736 78.7023H157.516ZM157.426 65.3223C157.426 64.1423 157.046 63.2423 156.286 62.6223C155.526 61.9823 154.416 61.6623 152.956 61.6623H148.996V68.9823H152.956C154.416 68.9823 155.526 68.6623 156.286 68.0223C157.046 67.3823 157.426 66.4823 157.426 65.3223Z" fill="#2DA03A"/>
</g>
<defs>
<filter id="filter0_b" x="48" y="7" width="194.069" height="213" filterUnits="userSpaceOnUse" color-interpolation-filters="sRGB">
<feFlood flood-opacity="0" result="BackgroundImageFix"/>
<feGaussianBlur in="BackgroundImage" stdDeviation="2"/>
<feComposite in2="SourceAlpha" operator="in" result="effect1_backgroundBlur"/>
<feBlend mode="normal" in="SourceGraphic" in2="effect1_backgroundBlur" result="shape"/>
</filter>
<clipPath id="clip0">
<path d="M0 9C0 4.02944 4.02944 0 9 0H281C285.971 0 290 4.02944 290 9V162H0V9Z" fill="white"/>
</clipPath>
</defs>
</svg>
