<svg width="290" height="162" viewBox="0 0 290 162" fill="none" xmlns="http://www.w3.org/2000/svg">
<g clip-path="url(#clip0)">
<path d="M0 0H290V162H0V0Z" fill="#BD67D5"/>
<g filter="url(#filter0_b)">
<path fill-rule="evenodd" clip-rule="evenodd" d="M148.689 200.263C126.854 200.526 102.553 214.369 84.7962 201.597C67.0423 188.828 71.9849 161.335 65.4547 140.398C59.022 119.775 42.0033 101.024 46.8596 79.9689C51.8124 58.495 71.9808 44.5726 90.3388 32.509C107.92 20.9558 127.698 12.2242 148.689 13.0547C169.186 13.8657 187.762 24.1359 203.793 36.998C219.228 49.3819 230.984 65.4803 237.42 84.2457C243.949 103.278 244.584 123.456 240.185 143.096C235.417 164.386 229.92 188.551 211.479 200.073C193.258 211.457 170.142 200.005 148.689 200.263Z" fill="white" fill-opacity="0.3"/>
</g>
<path fill-rule="evenodd" clip-rule="evenodd" d="M201.225 95.8868C202.318 61.6608 178.808 33.1208 148.683 32.1367C118.557 31.1526 93.1885 58.0523 92.0403 92.2783C90.8922 126.45 114.402 154.99 144.582 155.974C174.708 156.958 200.077 130.058 201.225 95.8868Z" fill="#85BE4F"/>
<path fill-rule="evenodd" clip-rule="evenodd" d="M123.042 52.4748C131.79 52.4748 138.898 45.4765 138.898 36.8379C138.898 28.1994 131.79 21.1464 123.042 21.1464C114.239 21.1464 107.132 28.1994 107.132 36.8379C107.132 45.4765 114.239 52.4748 123.042 52.4748Z" fill="white" stroke="#1D1D1B" stroke-width="0.2646"/>
<path fill-rule="evenodd" clip-rule="evenodd" d="M122.604 52.4752C129.219 52.4752 134.632 47.1171 134.632 40.5015C134.632 33.8313 129.219 28.4732 122.604 28.4732C115.933 28.4732 110.575 33.8313 110.575 40.5015C110.575 47.1171 115.933 52.4752 122.604 52.4752Z" fill="black" stroke="#1D1D1B" stroke-width="0.2646"/>
<path fill-rule="evenodd" clip-rule="evenodd" d="M162.515 52.4748C171.263 52.4748 178.37 45.4765 178.37 36.8379C178.37 28.1994 171.263 21.1464 162.515 21.1464C153.712 21.1464 146.604 28.1994 146.604 36.8379C146.604 45.4765 153.712 52.4748 162.515 52.4748Z" fill="white" stroke="#1D1D1B" stroke-width="0.2646"/>
<path fill-rule="evenodd" clip-rule="evenodd" d="M145.567 155.482C164.375 155.482 179.684 139.626 179.684 120.107C179.684 100.534 164.375 84.6785 145.567 84.6785C126.704 84.6785 111.45 100.534 111.45 120.107C111.45 139.626 126.704 155.482 145.567 155.482Z" fill="#2DA03A"/>
<path fill-rule="evenodd" clip-rule="evenodd" d="M162.077 52.4752C168.693 52.4752 174.105 47.1171 174.105 40.5015C174.105 33.8313 168.693 28.4732 162.077 28.4732C155.407 28.4732 150.049 33.8313 150.049 40.5015C150.049 47.1171 155.407 52.4752 162.077 52.4752Z" fill="black" stroke="#1D1D1B" stroke-width="0.2646"/>
<path d="M140.209 78.063C143.271 79.1565 146.551 79.6486 149.832 79.5392C154.643 79.3205 159.345 77.8443 163.336 75.22" stroke="#37441D" stroke-width="5"/>
<path d="M106 12.8889L134.759 6" stroke="#37441D" stroke-width="5"/>
<path d="M152 6L179.884 12.3969" stroke="#37441D" stroke-width="5"/>
<path fill-rule="evenodd" clip-rule="evenodd" d="M193.401 73.629L207.829 73.6941C208.562 73.7099 209.137 74.2847 209.121 75.018L208.811 144.126C208.845 144.836 208.27 145.411 207.56 145.444L193.132 145.379C192.399 145.363 191.824 144.789 191.84 144.055L192.077 74.9212C192.116 74.2373 192.691 73.6626 193.401 73.629Z" fill="#2C3A6A"/>
<path fill-rule="evenodd" clip-rule="evenodd" d="M197.658 73.6714L203.6 73.7011C204.261 73.6909 204.835 74.2657 204.869 74.9757L204.583 144.133C204.617 144.843 204.042 145.418 203.308 145.402L197.366 145.372C196.656 145.406 196.081 144.831 196.097 144.098L196.334 74.9637C196.35 74.2303 196.924 73.6557 197.658 73.6714Z" fill="#586BAF"/>
<path fill-rule="evenodd" clip-rule="evenodd" d="M189.094 138.762C188.764 138.193 189.17 137.517 189.831 137.506L211.064 137.253C211.725 137.242 212.125 137.96 211.795 138.54L201.371 157.026C201.04 157.606 200.258 157.613 199.928 157.044L189.094 138.762Z" fill="#9A968E"/>
<path fill-rule="evenodd" clip-rule="evenodd" d="M195.791 150.353L205.551 150.269L200.77 158.824L195.791 150.353Z" fill="#F6B028"/>
<path fill-rule="evenodd" clip-rule="evenodd" d="M194.25 108.132C200.84 106.464 200.778 104.799 203.95 105.112C206.075 105.255 208.108 106.228 209.617 107.753C210.932 109.126 211.725 110.928 211.709 112.811C211.747 116.725 208.299 119.023 207.778 119.33C206.613 120.063 203.747 121.42 202.403 120.242C201.347 119.29 201.808 117.196 201.86 117.051C202.071 116.346 202.378 115.717 202.83 115.14C203.283 114.562 203.832 114.061 204.5 113.684C204.62 113.808 201.727 118.687 197.477 119.549C195.831 119.905 193.462 119.756 192.804 118.495C192.006 116.937 194.883 113.942 196.477 112.582C197.448 111.82 198.441 111.108 199.554 110.52C199.554 110.52 195.64 114.007 193.071 112.925C191.786 112.383 190.796 110.675 191.308 109.585C191.67 108.688 192.848 108.493 194.25 108.132Z" fill="#72B236" stroke="#2C3A6A" stroke-width="0.1693"/>
<path fill-rule="evenodd" clip-rule="evenodd" d="M103.716 52H184.798C190.758 52 195.569 56.8113 195.569 62.7162V83.7657C195.569 89.6706 190.758 94.4819 184.798 94.4819H103.716C97.8113 94.4819 93 89.6706 93 83.7657V62.7162C93 56.8113 97.8113 52 103.716 52Z" fill="#2C3A6A"/>
<path fill-rule="evenodd" clip-rule="evenodd" d="M93 62.7161C93 56.8113 97.8113 52 103.716 52H184.798C190.758 52 195.569 56.8113 195.569 62.7161V77.3142H93V62.7161Z" fill="#6378C0"/>
<path d="M131.658 61.7364C133.598 61.7364 135.288 62.1164 136.728 62.8764C138.168 63.6364 139.288 64.7564 140.088 66.2364C140.888 67.7164 141.288 69.5064 141.288 71.6064V83.0964H136.428V78.0564H126.828V83.0964H122.028V71.6064C122.028 69.5064 122.428 67.7164 123.228 66.2364C124.028 64.7564 125.148 63.6364 126.588 62.8764C128.028 62.1164 129.718 61.7364 131.658 61.7364ZM136.428 74.1564V71.1564C136.428 69.4164 135.998 68.1064 135.138 67.2264C134.278 66.3264 133.108 65.8764 131.628 65.8764C130.128 65.8764 128.948 66.3264 128.088 67.2264C127.248 68.1064 126.828 69.4164 126.828 71.1564V74.1564H136.428ZM159.465 83.0964L155.415 77.2464H155.175H150.945V83.0964H146.085V62.0964H155.175C157.035 62.0964 158.645 62.4064 160.005 63.0264C161.385 63.6464 162.445 64.5264 163.185 65.6664C163.925 66.8064 164.295 68.1564 164.295 69.7164C164.295 71.2764 163.915 72.6264 163.155 73.7664C162.415 74.8864 161.355 75.7464 159.975 76.3464L164.685 83.0964H159.465ZM159.375 69.7164C159.375 68.5364 158.995 67.6364 158.235 67.0164C157.475 66.3764 156.365 66.0564 154.905 66.0564H150.945V73.3764H154.905C156.365 73.3764 157.475 73.0564 158.235 72.4164C158.995 71.7764 159.375 70.8764 159.375 69.7164Z" fill="#DB538C"/>
</g>
<defs>
<filter id="filter0_b" x="42" y="9" width="205" height="202" filterUnits="userSpaceOnUse" color-interpolation-filters="sRGB">
<feFlood flood-opacity="0" result="BackgroundImageFix"/>
<feGaussianBlur in="BackgroundImage" stdDeviation="2"/>
<feComposite in2="SourceAlpha" operator="in" result="effect1_backgroundBlur"/>
<feBlend mode="normal" in="SourceGraphic" in2="effect1_backgroundBlur" result="shape"/>
</filter>
<clipPath id="clip0">
<path d="M0 9C0 4.02944 4.02944 0 9 0H281C285.971 0 290 4.02944 290 9V162H0V9Z" fill="white"/>
</clipPath>
</defs>
</svg>
