<svg width="290" height="162" viewBox="0 0 290 162" fill="none" xmlns="http://www.w3.org/2000/svg">
<g clip-path="url(#clip0)">
<path d="M0 0H290V162H0V0Z" fill="#DB538C"/>
<g filter="url(#filter0_b)">
<path fill-rule="evenodd" clip-rule="evenodd" d="M148.689 200.263C126.854 200.526 102.553 214.369 84.7962 201.597C67.0423 188.828 71.9849 161.335 65.4547 140.398C59.022 119.775 42.0033 101.024 46.8596 79.9689C51.8124 58.495 71.9808 44.5726 90.3388 32.509C107.92 20.9558 127.698 12.2242 148.689 13.0547C169.186 13.8657 187.762 24.1359 203.793 36.998C219.228 49.3819 230.984 65.4803 237.42 84.2457C243.949 103.278 244.584 123.456 240.185 143.096C235.417 164.386 229.92 188.551 211.479 200.073C193.258 211.457 170.142 200.005 148.689 200.263Z" fill="white" fill-opacity="0.3"/>
</g>
<path fill-rule="evenodd" clip-rule="evenodd" d="M201.225 95.8868C202.318 61.6608 178.808 33.1208 148.683 32.1367C118.557 31.1526 93.1885 58.0523 92.0403 92.2783C90.8922 126.45 114.402 154.99 144.582 155.974C174.708 156.958 200.077 130.058 201.225 95.8868Z" fill="#85BE4F"/>
<path fill-rule="evenodd" clip-rule="evenodd" d="M123.042 52.4748C131.79 52.4748 138.898 45.4765 138.898 36.8379C138.898 28.1994 131.79 21.1464 123.042 21.1464C114.239 21.1464 107.132 28.1994 107.132 36.8379C107.132 45.4765 114.239 52.4748 123.042 52.4748Z" fill="white" stroke="#1D1D1B" stroke-width="0.2646"/>
<path fill-rule="evenodd" clip-rule="evenodd" d="M122.604 52.4752C129.219 52.4752 134.632 47.1171 134.632 40.5015C134.632 33.8313 129.219 28.4732 122.604 28.4732C115.933 28.4732 110.575 33.8313 110.575 40.5015C110.575 47.1171 115.933 52.4752 122.604 52.4752Z" fill="black" stroke="#1D1D1B" stroke-width="0.2646"/>
<path fill-rule="evenodd" clip-rule="evenodd" d="M162.515 52.4748C171.263 52.4748 178.37 45.4765 178.37 36.8379C178.37 28.1994 171.263 21.1464 162.515 21.1464C153.712 21.1464 146.604 28.1994 146.604 36.8379C146.604 45.4765 153.712 52.4748 162.515 52.4748Z" fill="white" stroke="#1D1D1B" stroke-width="0.2646"/>
<path fill-rule="evenodd" clip-rule="evenodd" d="M145.567 155.482C164.375 155.482 179.684 139.626 179.684 120.107C179.684 100.534 164.375 84.6785 145.567 84.6785C126.704 84.6785 111.45 100.534 111.45 120.107C111.45 139.626 126.704 155.482 145.567 155.482Z" fill="#2DA03A"/>
<path fill-rule="evenodd" clip-rule="evenodd" d="M162.077 52.4752C168.693 52.4752 174.105 47.1171 174.105 40.5015C174.105 33.8313 168.693 28.4732 162.077 28.4732C155.407 28.4732 150.049 33.8313 150.049 40.5015C150.049 47.1171 155.407 52.4752 162.077 52.4752Z" fill="black" stroke="#1D1D1B" stroke-width="0.2646"/>
<path d="M140.209 78.063C143.271 79.1565 146.551 79.6486 149.832 79.5392C154.643 79.3205 159.345 77.8443 163.336 75.22" stroke="#37441D" stroke-width="5"/>
<path fill-rule="evenodd" clip-rule="evenodd" d="M104.998 25.9036H186.08C192.04 25.9036 196.851 30.715 196.851 36.6198V57.6694C196.851 63.5742 192.04 68.3855 186.08 68.3855H104.998C99.0936 68.3855 94.2822 63.5742 94.2822 57.6694V36.6198C94.2822 30.715 99.0936 25.9036 104.998 25.9036Z" fill="#2C3A6A"/>
<path fill-rule="evenodd" clip-rule="evenodd" d="M94.2822 36.6198C94.2822 30.715 99.0936 25.9036 104.998 25.9036H186.08C192.04 25.9036 196.851 30.715 196.851 36.6198V51.2178H94.2822V36.6198Z" fill="#6378C0"/>
<path d="M105.875 19.8889L134.634 13" stroke="#37441D" stroke-width="5"/>
<path d="M150.283 13.1042L178.167 19.5011" stroke="#37441D" stroke-width="5"/>
<path fill-rule="evenodd" clip-rule="evenodd" d="M211.394 73.6337L224.406 79.8665C225.063 80.1946 225.336 80.96 225.008 81.6161L195.156 143.945C194.882 144.601 194.117 144.874 193.461 144.601L180.448 138.368C179.792 138.04 179.519 137.274 179.847 136.618L209.644 74.2351C209.972 73.6337 210.738 73.3603 211.394 73.6337Z" fill="#2C3A6A"/>
<path fill-rule="evenodd" clip-rule="evenodd" d="M215.223 75.4936L220.581 78.0633C221.183 78.3367 221.456 79.1021 221.183 79.7582L191.331 142.141C191.057 142.798 190.292 143.071 189.636 142.743L184.278 140.173C183.621 139.9 183.348 139.134 183.676 138.478L213.474 76.095C213.802 75.4389 214.567 75.1656 215.223 75.4936Z" fill="#586BAF"/>
<path fill-rule="evenodd" clip-rule="evenodd" d="M179.63 130.659C179.575 130.003 180.232 129.566 180.833 129.839L200.133 138.697C200.734 138.97 200.789 139.79 200.242 140.173L182.911 152.42C182.364 152.803 181.653 152.474 181.598 151.818L179.63 130.659Z" fill="#9A968E"/>
<path fill-rule="evenodd" clip-rule="evenodd" d="M180.723 144L189.58 148.101L181.597 153.787L180.723 144Z" fill="#F6B028"/>
<path fill-rule="evenodd" clip-rule="evenodd" d="M197.397 105.181C204.067 106.493 204.723 104.963 207.457 106.603C209.316 107.642 210.737 109.391 211.448 111.414C212.049 113.218 211.995 115.187 211.175 116.882C209.534 120.435 205.434 121.037 204.832 121.092C203.465 121.256 200.294 121.256 199.584 119.615C199.037 118.303 200.349 116.608 200.458 116.499C200.95 115.952 201.497 115.515 202.153 115.187C202.809 114.859 203.52 114.64 204.286 114.585C204.34 114.749 199.638 117.92 195.428 116.882C193.788 116.499 191.711 115.351 191.656 113.929C191.601 112.18 195.483 110.703 197.506 110.157C198.709 109.883 199.912 109.665 201.169 109.61C201.169 109.61 196.139 111.086 194.28 109.008C193.351 107.97 193.187 106.001 194.116 105.236C194.827 104.58 195.975 104.908 197.397 105.181Z" fill="#72B236" stroke="#2C3A6A" stroke-width="0.1693"/>
<path d="M132.94 35.64C134.88 35.64 136.57 36.02 138.01 36.78C139.45 37.54 140.57 38.66 141.37 40.14C142.17 41.62 142.57 43.41 142.57 45.51V57H137.71V51.96H128.11V57H123.31V45.51C123.31 43.41 123.71 41.62 124.51 40.14C125.31 38.66 126.43 37.54 127.87 36.78C129.31 36.02 131 35.64 132.94 35.64ZM137.71 48.06V45.06C137.71 43.32 137.28 42.01 136.42 41.13C135.56 40.23 134.39 39.78 132.91 39.78C131.41 39.78 130.23 40.23 129.37 41.13C128.53 42.01 128.11 43.32 128.11 45.06V48.06H137.71ZM160.747 57L156.697 51.15H156.457H152.227V57H147.367V36H156.457C158.317 36 159.927 36.31 161.287 36.93C162.667 37.55 163.727 38.43 164.467 39.57C165.207 40.71 165.577 42.06 165.577 43.62C165.577 45.18 165.197 46.53 164.437 47.67C163.697 48.79 162.637 49.65 161.257 50.25L165.967 57H160.747ZM160.657 43.62C160.657 42.44 160.277 41.54 159.517 40.92C158.757 40.28 157.647 39.96 156.187 39.96H152.227V47.28H156.187C157.647 47.28 158.757 46.96 159.517 46.32C160.277 45.68 160.657 44.78 160.657 43.62Z" fill="#BD67D5"/>
</g>
<defs>
<filter id="filter0_b" x="42" y="9" width="205" height="202" filterUnits="userSpaceOnUse" color-interpolation-filters="sRGB">
<feFlood flood-opacity="0" result="BackgroundImageFix"/>
<feGaussianBlur in="BackgroundImage" stdDeviation="2"/>
<feComposite in2="SourceAlpha" operator="in" result="effect1_backgroundBlur"/>
<feBlend mode="normal" in="SourceGraphic" in2="effect1_backgroundBlur" result="shape"/>
</filter>
<clipPath id="clip0">
<path d="M0 9C0 4.02944 4.02944 0 9 0H281C285.971 0 290 4.02944 290 9V162H0V9Z" fill="white"/>
</clipPath>
</defs>
</svg>
