<svg width="160" height="160" viewBox="0 0 160 160" fill="none" xmlns="http://www.w3.org/2000/svg">
<rect x="2.5" y="2.5" width="155" height="155" stroke="#DB538C" stroke-width="5" stroke-dasharray="100 100"/>
<path d="M28.3251 50.1797C30.2674 49.8455 32.3332 50.3028 33.9433 51.437C35.532 52.5357 36.6736 54.2603 37.0441 56.1533C37.4559 58.1568 37.0101 60.3189 35.8245 61.9882C34.558 63.8105 32.4553 65.0282 30.2347 65.1967C28.105 65.3878 25.9128 64.6218 24.3709 63.145C23.0292 61.8849 22.1759 60.1235 22.0296 58.2899C21.845 56.2666 22.5308 54.1867 23.8796 52.6631C25.0169 51.3591 26.6142 50.4643 28.3251 50.1797Z" fill="#F6B028"/>
<path d="M42.0494 50.0758C51.6488 50.0758 61.2481 50.0758 70.8475 50.0758C72.8849 50.0631 74.8982 50.9834 76.2201 52.5282C77.2324 53.6892 77.8472 55.1886 77.9324 56.7249C77.965 57.3635 77.63 56.3315 77.6343 56.9701C72.0462 58.0666 67.1931 60.8192 63.4392 63.4063C56.9148 67.9029 53.0979 71.5276 49.4205 76.8079C45.982 81.7453 44.509 85.0957 42.4566 92.4136C40.8679 98.0786 40.5614 103.441 40.5345 109.331C36.7237 109.331 32.9129 109.333 29.1007 109.331C27.2564 109.338 25.4234 108.588 24.1186 107.288C22.7967 105.997 22.0187 104.174 22.0087 102.329C22.0059 91.5743 22.0087 80.8178 22.0073 70.0626C24.7121 71.7037 27.9578 72.4215 31.1055 72.0831C34.6934 71.7235 38.108 69.9593 40.489 67.2606C42.5591 64.9456 43.8512 61.9524 44.1025 58.8601C44.3722 55.8116 43.6439 52.6896 42.0494 50.0758Z" fill="#F6B028"/>
<path fill-rule="evenodd" clip-rule="evenodd" d="M77.7218 69.5892V96.2049C80.2539 96.2049 82.3065 98.2575 82.3065 100.79V105.905C82.3065 107.756 80.942 109.48 79.091 109.477C77.2607 109.473 76.0466 107.781 76.0466 105.951V101.495H51.2714V105.802C51.2714 107.699 49.9061 109.459 48.0092 109.459C46.3014 109.459 45.0996 107.859 45.0996 106.151V100.437C45.0996 98.0996 46.9944 96.2049 49.3317 96.2049C50.5366 91.5313 53.3874 83.5969 57.1786 78.1304C60.9699 72.664 64.7611 70.0245 67.5825 68.1675C68.6443 67.4686 70.3847 66.4752 72.2925 65.6116C75.0504 64.3632 77.7218 66.5619 77.7218 69.5892ZM71.7258 76.5808V96.1167H56.9136C57.5232 93.7569 58.3165 91.2498 59.4737 88.4928C60.631 85.7358 62.7343 82.0101 65.2341 78.9084C66.5664 77.2553 67.9998 75.9635 69.3297 75.0817C70.4449 74.3424 71.7258 75.2427 71.7258 76.5808Z" fill="#72B236"/>
<path d="M87.0609 84.3381C88.2776 84.0818 89.5384 84.0804 90.7708 84.2135C91.1826 84.2673 91.8172 84.4018 91.7746 84.9398C91.7817 88.0166 91.7746 91.0947 91.7775 94.1715C92.8281 94.1658 93.9611 94.2805 94.9067 93.7226C96.0738 93.0501 96.6772 91.7715 97.1444 90.5666C97.8273 88.6806 98.4165 86.7607 99.0994 84.8747C99.2939 84.3352 99.9243 84.2333 100.426 84.1837C101.475 84.1129 102.54 84.0832 103.58 84.2574C103.87 84.3083 104.251 84.4443 104.263 84.794C104.282 85.6195 103.908 86.3826 103.639 87.1444C102.946 88.9015 102.352 90.6997 101.574 92.4214C100.866 93.9803 99.7185 95.4656 98.0317 96.0235C98.8737 96.3859 99.6915 96.8503 100.326 97.5215C101.286 98.5268 101.895 99.7997 102.42 101.07C103.096 102.767 103.766 104.466 104.441 106.164C104.686 106.82 105.01 107.465 105.075 108.172C105.107 108.417 105.009 108.691 104.766 108.792C104.211 109.038 103.587 109.04 102.991 109.068C102.148 109.074 101.292 109.102 100.462 108.921C100.098 108.844 99.7554 108.604 99.6461 108.237C98.9376 106.267 98.2234 104.301 97.5092 102.334C97.0464 101.115 96.4813 99.8336 95.3923 99.045C94.3445 98.3045 92.9985 98.3809 91.7775 98.3823C91.7718 101.696 91.786 105.01 91.7704 108.325C91.7689 108.748 91.2791 108.885 90.9398 108.961C89.882 109.122 88.7959 109.109 87.7353 108.987C87.2781 108.929 86.6406 108.727 86.7116 108.149C86.7059 100.457 86.7087 92.7655 86.7102 85.0729C86.6704 84.7699 86.8493 84.5292 87.0609 84.3381Z" fill="#72B236"/>
<path d="M109.223 84.2149C110.262 84.0974 111.321 84.0875 112.358 84.2404C112.723 84.297 113.258 84.4584 113.191 84.9299C113.191 91.5677 113.191 98.2068 113.19 104.846C115.675 104.846 118.158 104.846 120.643 104.846C120.64 98.3994 120.645 91.9528 120.64 85.5048C120.653 85.2117 120.6 84.9058 120.697 84.6241C120.968 84.2616 121.465 84.2418 121.875 84.1823C122.872 84.1087 123.885 84.0846 124.871 84.2687C125.202 84.3282 125.632 84.5221 125.568 84.9313C125.572 91.5691 125.566 98.2082 125.571 104.847C128.058 104.845 130.547 104.846 133.035 104.846C133.036 98.2096 133.033 91.5733 133.036 84.937C132.981 84.3763 133.654 84.2715 134.068 84.2092C135.116 84.0988 136.188 84.0818 137.232 84.2588C137.575 84.3182 138.059 84.4938 137.994 84.9313C137.988 92.4837 138 100.038 137.988 107.59C138.008 108.271 137.467 108.941 136.759 108.936C127.726 108.948 118.693 108.936 109.66 108.942C109.203 108.959 108.733 108.752 108.48 108.367C108.215 107.977 108.232 107.484 108.218 107.034C108.223 99.6666 108.212 92.2983 108.223 84.9313C108.188 84.3905 108.814 84.2715 109.223 84.2149Z" fill="#72B236"/>
</svg>
