<svg width="116" height="60" viewBox="0 0 116 60" fill="none" xmlns="http://www.w3.org/2000/svg">
<path d="M6.32506 0.17951C8.26737 -0.154641 10.3332 0.302693 11.9433 1.43683C13.532 2.53556 14.6736 4.26013 15.0441 6.15318C15.4559 8.15668 15.0101 10.3188 13.8245 11.9881C12.558 13.8104 10.4553 15.028 8.23471 15.1965C6.10499 15.3877 3.9128 14.6217 2.37088 13.1449C1.02916 11.8847 0.17585 10.1234 0.0296094 8.28977C-0.154966 6.26645 0.530804 4.1865 1.87963 2.66299C3.0169 1.35895 4.61419 0.464106 6.32506 0.17951Z" fill="#F6B028"/>
<path d="M20.0494 0.0756921C29.6488 0.0756921 39.2481 0.0756921 48.8475 0.0756921C50.8849 0.0629491 52.8982 0.983282 54.2201 2.52802C55.2324 3.68906 55.8472 5.18849 55.9324 6.72474C55.965 7.36331 55.63 6.33135 55.6343 6.96992C50.0462 8.0664 45.1931 10.8191 41.4392 13.4062C34.9148 17.9028 31.0979 21.5275 27.4205 26.8077C23.982 31.7451 22.509 35.0955 20.4566 42.4135C18.8679 48.0785 18.5614 53.4408 18.5345 59.331C14.7237 59.331 10.9129 59.3324 7.10071 59.331C5.25638 59.338 3.4234 58.5876 2.11859 57.2878C0.796741 55.9965 0.0186827 54.1743 0.00874403 52.3293C0.00590441 41.5742 0.00874403 30.8176 0.00732422 20.0625C2.71207 21.7035 5.95776 22.4214 9.10549 22.083C12.6934 21.7233 16.108 19.9591 18.489 17.2604C20.5591 14.9454 21.8512 11.9522 22.1025 8.85991C22.3722 5.81149 21.6439 2.68944 20.0494 0.0756921Z" fill="#F6B028"/>
<path fill-rule="evenodd" clip-rule="evenodd" d="M55.7218 19.589V46.2047C58.2539 46.2047 60.3065 48.2574 60.3065 50.7895V55.9052C60.3065 57.7562 58.942 59.48 57.091 59.4765C55.2607 59.473 54.0466 57.7812 54.0466 55.9509V51.4948H29.2714V55.8019C29.2714 57.6989 27.9061 59.4592 26.0092 59.4592C24.3014 59.4592 23.0996 57.8589 23.0996 56.1511V50.4368C23.0996 48.0995 24.9944 46.2047 27.3317 46.2047C28.5366 41.5312 31.3874 33.5967 35.1786 28.1303C38.9699 22.6639 42.7611 20.0244 45.5825 18.1673C46.6443 17.4684 48.3847 16.475 50.2925 15.6114C53.0504 14.3631 55.7218 16.5617 55.7218 19.589ZM49.7258 26.5806V46.1166H34.9136C35.5232 43.7568 36.3165 41.2497 37.4737 38.4926C38.631 35.7356 40.7343 32.0099 43.2341 28.9083C44.5664 27.2551 45.9998 25.9633 47.3297 25.0816C48.4449 24.3422 49.7258 25.2426 49.7258 26.5806Z" fill="#72B236"/>
<path d="M65.0609 34.3379C66.2776 34.0816 67.5384 34.0802 68.7708 34.2133C69.1826 34.2671 69.8172 34.4016 69.7746 34.9397C69.7817 38.0164 69.7746 41.0946 69.7775 44.1713C70.8281 44.1657 71.9611 44.2803 72.9067 43.7225C74.0738 43.0499 74.6772 41.7714 75.1444 40.5664C75.8273 38.6805 76.4165 36.7605 77.0994 34.8745C77.2939 34.3351 77.9243 34.2331 78.4255 34.1836C79.4748 34.1128 80.5396 34.0831 81.5804 34.2572C81.87 34.3082 82.2505 34.4441 82.2633 34.7938C82.2817 35.6193 81.9083 36.3825 81.6386 37.1442C80.9457 38.9014 80.3522 40.6995 79.5742 42.4213C78.8657 43.9802 77.7185 45.4654 76.0317 46.0233C76.8737 46.3858 77.6915 46.8502 78.3261 47.5213C79.2859 48.5266 79.895 49.7995 80.4204 51.0696C81.0962 52.7672 81.7663 54.4663 82.4408 56.164C82.6864 56.8195 83.0101 57.4652 83.0754 58.1717C83.1066 58.4166 83.0087 58.6913 82.7659 58.7919C82.2107 59.0382 81.5875 59.0396 80.9911 59.068C80.1478 59.0736 79.2916 59.1019 78.4624 58.9207C78.0976 58.8442 77.7554 58.6035 77.6461 58.2368C76.9376 56.2673 76.2234 54.3006 75.5092 52.334C75.0464 51.1149 74.4813 49.8335 73.3923 49.0448C72.3445 48.3043 70.9985 48.3808 69.7775 48.3822C69.7718 51.6954 69.786 55.01 69.7704 58.3246C69.7689 58.748 69.2791 58.8853 68.9398 58.9604C67.882 59.1218 66.7959 59.109 65.7353 58.9872C65.2781 58.9292 64.6406 58.7267 64.7116 58.149C64.7059 50.4565 64.7087 42.7653 64.7102 35.0728C64.6704 34.7698 64.8493 34.5291 65.0609 34.3379Z" fill="#72B236"/>
<path d="M87.223 34.2147C88.2623 34.0972 89.3215 34.0873 90.358 34.2402C90.7228 34.2969 91.2581 34.4583 91.1914 34.9298C91.1914 41.5675 91.1914 48.2067 91.19 54.8458C93.6746 54.8458 96.1579 54.8458 98.6426 54.8458C98.6397 48.3992 98.6454 41.9526 98.6397 35.5046C98.6525 35.2115 98.6 34.9057 98.6965 34.6239C98.9677 34.2615 99.4646 34.2416 99.875 34.1822C100.872 34.1085 101.885 34.0845 102.871 34.2685C103.202 34.328 103.632 34.522 103.568 34.9312C103.572 41.5689 103.566 48.2081 103.571 54.8472C106.058 54.8444 108.547 54.8458 111.035 54.8458C111.036 48.2095 111.033 41.5732 111.036 34.9368C110.981 34.3761 111.654 34.2714 112.068 34.2091C113.116 34.0986 114.188 34.0816 115.232 34.2586C115.575 34.3181 116.059 34.4937 115.994 34.9312C115.988 42.4836 116 50.0374 115.988 57.5898C116.008 58.2709 115.467 58.9406 114.759 58.9363C105.726 58.9477 96.6932 58.9363 87.6603 58.942C87.2031 58.959 86.7332 58.7523 86.4804 58.3671C86.2149 57.9764 86.232 57.4836 86.2178 57.0334C86.2235 49.6664 86.2121 42.2981 86.2235 34.9312C86.188 34.3903 86.8141 34.2714 87.223 34.2147Z" fill="#72B236"/>
</svg>
