<svg width="160" height="160" viewBox="0 0 160 160" fill="none" xmlns="http://www.w3.org/2000/svg">
<rect x="2.5" y="2.5" width="155" height="155" stroke="#DB538C" stroke-width="5" stroke-dasharray="100 100"/>
<path d="M28.3251 50.1795C30.2674 49.8454 32.3332 50.3027 33.9433 51.4368C35.532 52.5356 36.6736 54.2601 37.0441 56.1532C37.4559 58.1567 37.0101 60.3188 35.8245 61.9881C34.558 63.8104 32.4553 65.028 30.2347 65.1965C28.105 65.3877 25.9128 64.6217 24.3709 63.1449C23.0292 61.8847 22.1759 60.1234 22.0296 58.2898C21.845 56.2665 22.5308 54.1865 23.8796 52.663C25.0169 51.359 26.6142 50.4641 28.3251 50.1795Z" fill="#F6B028"/>
<path d="M42.0494 50.0757C51.6488 50.0757 61.2481 50.0757 70.8475 50.0757C72.8849 50.0629 74.8982 50.9833 76.2201 52.528C77.2324 53.6891 77.8472 55.1885 77.9324 56.7247C77.965 57.3633 77.63 56.3314 77.6343 56.9699C72.0462 58.0664 67.1931 60.8191 63.4392 63.4062C56.9148 67.9028 53.0979 71.5275 49.4205 76.8077C45.982 81.7451 44.509 85.0955 42.4566 92.4135C40.8679 98.0785 40.5614 103.441 40.5345 109.331C36.7237 109.331 32.9129 109.332 29.1007 109.331C27.2564 109.338 25.4234 108.588 24.1186 107.288C22.7967 105.997 22.0187 104.174 22.0087 102.329C22.0059 91.5742 22.0087 80.8176 22.0073 70.0625C24.7121 71.7035 27.9578 72.4214 31.1055 72.083C34.6934 71.7233 38.108 69.9591 40.489 67.2604C42.5591 64.9454 43.8512 61.9522 44.1025 58.8599C44.3722 55.8115 43.6439 52.6894 42.0494 50.0757Z" fill="#F6B028"/>
<path fill-rule="evenodd" clip-rule="evenodd" d="M77.7218 69.589V96.2047C80.2539 96.2047 82.3065 98.2574 82.3065 100.789V105.905C82.3065 107.756 80.942 109.48 79.091 109.476C77.2607 109.473 76.0466 107.781 76.0466 105.951V101.495H51.2714V105.802C51.2714 107.699 49.9061 109.459 48.0092 109.459C46.3014 109.459 45.0996 107.859 45.0996 106.151V100.437C45.0996 98.0995 46.9944 96.2047 49.3317 96.2047C50.5366 91.5312 53.3874 83.5967 57.1786 78.1303C60.9699 72.6639 64.7611 70.0244 67.5825 68.1673C68.6443 67.4684 70.3847 66.475 72.2925 65.6114C75.0504 64.3631 77.7218 66.5617 77.7218 69.589ZM71.7258 76.5806V96.1166H56.9136C57.5232 93.7568 58.3165 91.2497 59.4737 88.4926C60.631 85.7356 62.7343 82.0099 65.2341 78.9083C66.5664 77.2551 67.9998 75.9633 69.3297 75.0816C70.4449 74.3422 71.7258 75.2426 71.7258 76.5806Z" fill="#72B236"/>
<path d="M87.0609 84.3379C88.2776 84.0816 89.5384 84.0802 90.7708 84.2133C91.1826 84.2671 91.8172 84.4016 91.7746 84.9397C91.7817 88.0164 91.7746 91.0946 91.7775 94.1713C92.8281 94.1657 93.9611 94.2803 94.9067 93.7225C96.0738 93.0499 96.6772 91.7714 97.1444 90.5664C97.8273 88.6805 98.4165 86.7605 99.0994 84.8745C99.2939 84.3351 99.9243 84.2331 100.426 84.1836C101.475 84.1128 102.54 84.0831 103.58 84.2572C103.87 84.3082 104.251 84.4441 104.263 84.7938C104.282 85.6193 103.908 86.3825 103.639 87.1442C102.946 88.9014 102.352 90.6995 101.574 92.4213C100.866 93.9802 99.7185 95.4654 98.0317 96.0233C98.8737 96.3858 99.6915 96.8502 100.326 97.5213C101.286 98.5266 101.895 99.7995 102.42 101.07C103.096 102.767 103.766 104.466 104.441 106.164C104.686 106.82 105.01 107.465 105.075 108.172C105.107 108.417 105.009 108.691 104.766 108.792C104.211 109.038 103.587 109.04 102.991 109.068C102.148 109.074 101.292 109.102 100.462 108.921C100.098 108.844 99.7554 108.604 99.6461 108.237C98.9376 106.267 98.2234 104.301 97.5092 102.334C97.0464 101.115 96.4813 99.8335 95.3923 99.0448C94.3445 98.3043 92.9985 98.3808 91.7775 98.3822C91.7718 101.695 91.786 105.01 91.7704 108.325C91.7689 108.748 91.2791 108.885 90.9398 108.96C89.882 109.122 88.7959 109.109 87.7353 108.987C87.2781 108.929 86.6406 108.727 86.7116 108.149C86.7059 100.456 86.7087 92.7653 86.7102 85.0728C86.6704 84.7698 86.8493 84.5291 87.0609 84.3379Z" fill="#72B236"/>
<path d="M109.223 84.2147C110.262 84.0972 111.321 84.0873 112.358 84.2402C112.723 84.2969 113.258 84.4583 113.191 84.9298C113.191 91.5675 113.191 98.2067 113.19 104.846C115.675 104.846 118.158 104.846 120.643 104.846C120.64 98.3992 120.645 91.9526 120.64 85.5046C120.653 85.2115 120.6 84.9057 120.697 84.6239C120.968 84.2615 121.465 84.2416 121.875 84.1822C122.872 84.1085 123.885 84.0845 124.871 84.2685C125.202 84.328 125.632 84.522 125.568 84.9312C125.572 91.5689 125.566 98.2081 125.571 104.847C128.058 104.844 130.547 104.846 133.035 104.846C133.036 98.2095 133.033 91.5732 133.036 84.9368C132.981 84.3761 133.654 84.2714 134.068 84.2091C135.116 84.0986 136.188 84.0816 137.232 84.2586C137.575 84.3181 138.059 84.4937 137.994 84.9312C137.988 92.4836 138 100.037 137.988 107.59C138.008 108.271 137.467 108.941 136.759 108.936C127.726 108.948 118.693 108.936 109.66 108.942C109.203 108.959 108.733 108.752 108.48 108.367C108.215 107.976 108.232 107.484 108.218 107.033C108.223 99.6664 108.212 92.2981 108.223 84.9312C108.188 84.3903 108.814 84.2714 109.223 84.2147Z" fill="#72B236"/>
</svg>
