<svg width="139" height="139" viewBox="0 0 139 139" fill="none" xmlns="http://www.w3.org/2000/svg">
<rect x="2.5" y="2.5" width="134" height="134" stroke="#DB538C" stroke-width="5" stroke-dasharray="100 100"/>
<path d="M18.3251 32.1795C20.2674 31.8454 22.3332 32.3027 23.9433 33.4368C25.532 34.5356 26.6736 36.2601 27.0441 38.1532C27.4559 40.1567 27.0101 42.3188 25.8245 43.9881C24.558 45.8104 22.4553 47.028 20.2347 47.1965C18.105 47.3877 15.9128 46.6217 14.3709 45.1449C13.0292 43.8847 12.1759 42.1234 12.0296 40.2898C11.845 38.2665 12.5308 36.1865 13.8796 34.663C15.0169 33.359 16.6142 32.4641 18.3251 32.1795Z" fill="#F6B028"/>
<path d="M32.0494 32.0757C41.6488 32.0757 51.2481 32.0757 60.8475 32.0757C62.8849 32.0629 64.8982 32.9833 66.2201 34.528C67.2324 35.6891 67.8472 37.1885 67.9324 38.7247C67.965 39.3633 67.63 38.3314 67.6343 38.9699C62.0462 40.0664 57.1931 42.8191 53.4392 45.4062C46.9148 49.9028 43.0979 53.5275 39.4205 58.8077C35.982 63.7451 34.509 67.0955 32.4566 74.4135C30.8679 80.0785 30.5614 85.4408 30.5345 91.331C26.7237 91.331 22.9129 91.3324 19.1007 91.331C17.2564 91.338 15.4234 90.5876 14.1186 89.2878C12.7967 87.9965 12.0187 86.1743 12.0087 84.3293C12.0059 73.5742 12.0087 62.8176 12.0073 52.0625C14.7121 53.7035 17.9578 54.4214 21.1055 54.083C24.6934 53.7233 28.108 51.9591 30.489 49.2604C32.5591 46.9454 33.8512 43.9522 34.1025 40.8599C34.3722 37.8115 33.6439 34.6894 32.0494 32.0757Z" fill="#F6B028"/>
<path fill-rule="evenodd" clip-rule="evenodd" d="M67.7218 51.589V78.2047C70.2539 78.2047 72.3065 80.2574 72.3065 82.7895V87.9052C72.3065 89.7562 70.942 91.48 69.091 91.4765C67.2607 91.473 66.0466 89.7812 66.0466 87.9509V83.4948H41.2714V87.8019C41.2714 89.6989 39.9061 91.4592 38.0092 91.4592C36.3014 91.4592 35.0996 89.8589 35.0996 88.1511V82.4368C35.0996 80.0995 36.9944 78.2047 39.3317 78.2047C40.5366 73.5312 43.3874 65.5967 47.1786 60.1303C50.9699 54.6639 54.7611 52.0244 57.5825 50.1673C58.6443 49.4684 60.3847 48.475 62.2925 47.6114C65.0504 46.3631 67.7218 48.5617 67.7218 51.589ZM61.7258 58.5806V78.1166H46.9136C47.5232 75.7568 48.3165 73.2497 49.4737 70.4926C50.631 67.7356 52.7343 64.0099 55.2341 60.9083C56.5664 59.2551 57.9998 57.9633 59.3297 57.0816C60.4449 56.3422 61.7258 57.2426 61.7258 58.5806Z" fill="#72B236"/>
<path d="M77.0609 66.3379C78.2776 66.0816 79.5384 66.0802 80.7708 66.2133C81.1826 66.2671 81.8172 66.4016 81.7746 66.9397C81.7817 70.0164 81.7746 73.0946 81.7775 76.1713C82.8281 76.1657 83.9611 76.2803 84.9067 75.7225C86.0738 75.0499 86.6772 73.7714 87.1444 72.5664C87.8273 70.6805 88.4165 68.7605 89.0994 66.8745C89.2939 66.3351 89.9243 66.2331 90.4255 66.1836C91.4748 66.1128 92.5396 66.0831 93.5804 66.2572C93.87 66.3082 94.2505 66.4441 94.2633 66.7938C94.2817 67.6193 93.9083 68.3825 93.6386 69.1442C92.9457 70.9014 92.3522 72.6995 91.5742 74.4213C90.8657 75.9802 89.7185 77.4654 88.0317 78.0233C88.8737 78.3858 89.6915 78.8502 90.3261 79.5213C91.2859 80.5266 91.895 81.7995 92.4204 83.0696C93.0962 84.7672 93.7663 86.4663 94.4408 88.164C94.6864 88.8195 95.0101 89.4652 95.0754 90.1717C95.1066 90.4166 95.0087 90.6913 94.7659 90.7919C94.2107 91.0382 93.5875 91.0396 92.9911 91.068C92.1478 91.0736 91.2916 91.1019 90.4624 90.9207C90.0976 90.8442 89.7554 90.6035 89.6461 90.2368C88.9376 88.2673 88.2234 86.3006 87.5092 84.334C87.0464 83.1149 86.4813 81.8335 85.3923 81.0448C84.3445 80.3043 82.9985 80.3808 81.7775 80.3822C81.7718 83.6954 81.786 87.01 81.7704 90.3246C81.7689 90.748 81.2791 90.8853 80.9398 90.9604C79.882 91.1218 78.7959 91.109 77.7353 90.9872C77.2781 90.9292 76.6406 90.7267 76.7116 90.149C76.7059 82.4565 76.7087 74.7653 76.7102 67.0728C76.6704 66.7698 76.8493 66.5291 77.0609 66.3379Z" fill="#72B236"/>
<path d="M99.223 66.2147C100.262 66.0972 101.321 66.0873 102.358 66.2402C102.723 66.2969 103.258 66.4583 103.191 66.9298C103.191 73.5675 103.191 80.2067 103.19 86.8458C105.675 86.8458 108.158 86.8458 110.643 86.8458C110.64 80.3992 110.645 73.9526 110.64 67.5046C110.653 67.2115 110.6 66.9057 110.697 66.6239C110.968 66.2615 111.465 66.2416 111.875 66.1822C112.872 66.1085 113.885 66.0845 114.871 66.2685C115.202 66.328 115.632 66.522 115.568 66.9312C115.572 73.5689 115.566 80.2081 115.571 86.8472C118.058 86.8444 120.547 86.8458 123.035 86.8458C123.036 80.2095 123.033 73.5732 123.036 66.9368C122.981 66.3761 123.654 66.2714 124.068 66.2091C125.116 66.0986 126.188 66.0816 127.232 66.2586C127.575 66.3181 128.059 66.4937 127.994 66.9312C127.988 74.4836 128 82.0374 127.988 89.5898C128.008 90.2709 127.467 90.9406 126.759 90.9363C117.726 90.9477 108.693 90.9363 99.6603 90.942C99.2031 90.959 98.7332 90.7523 98.4804 90.3671C98.2149 89.9764 98.232 89.4836 98.2178 89.0334C98.2235 81.6664 98.2121 74.2981 98.2235 66.9312C98.188 66.3903 98.8141 66.2714 99.223 66.2147Z" fill="#72B236"/>
</svg>
