<svg width="290" height="162" viewBox="0 0 290 162" fill="none" xmlns="http://www.w3.org/2000/svg">
<g clip-path="url(#clip0)">
<path d="M0 9C0 4.02944 4.02944 0 9 0H281C285.971 0 290 4.02944 290 9V162H0V9Z" fill="#DB538C"/>
<g filter="url(#filter0_bi)">
<path fill-rule="evenodd" clip-rule="evenodd" d="M235.822 63.4114C253.257 82.1096 285.423 93.5226 285.934 118.986C286.433 143.866 255.158 154.952 238.01 172.497C221.91 188.97 219.422 183.465 196.413 185.344C173.262 187.235 152.194 190.881 130.807 181.251C109.212 171.528 80.1238 180.265 64.3162 162.43C48.0845 144.117 46.7756 115.794 51.7377 92.0404C56.4194 69.6291 74.4456 54.0833 90.3287 37.9082C105.382 22.578 119.763 3.51266 141.138 0.99666C162.045 -1.46431 180.653 13.4391 198.463 25.1797C213.669 35.2029 223.363 50.0499 235.822 63.4114Z" fill="white" fill-opacity="0.3"/>
</g>
<path d="M82.5752 10.7168C82.5752 12.2129 82.3291 13.3203 81.8369 14.0391C81.3486 14.7578 80.5947 15.1172 79.5752 15.1172C78.5869 15.1172 77.8408 14.7461 77.3369 14.0039C76.8369 13.2617 76.5869 12.166 76.5869 10.7168C76.5869 9.20508 76.8311 8.0918 77.3193 7.37695C77.8076 6.6582 78.5596 6.29883 79.5752 6.29883C80.5635 6.29883 81.3096 6.67383 81.8135 7.42383C82.3213 8.17383 82.5752 9.27148 82.5752 10.7168ZM78.3857 10.7168C78.3857 11.7676 78.4756 12.5215 78.6553 12.9785C78.8389 13.4316 79.1455 13.6582 79.5752 13.6582C79.9971 13.6582 80.3018 13.4277 80.4893 12.9668C80.6768 12.5059 80.7705 11.7559 80.7705 10.7168C80.7705 9.66602 80.6748 8.91211 80.4834 8.45508C80.2959 7.99414 79.9932 7.76367 79.5752 7.76367C79.1494 7.76367 78.8447 7.99414 78.6611 8.45508C78.4775 8.91211 78.3857 9.66602 78.3857 10.7168ZM87.9658 15H86.1553V10.043L86.1729 9.22852L86.2021 8.33789C85.9014 8.63867 85.6924 8.83594 85.5752 8.92969L84.5908 9.7207L83.7178 8.63086L86.4775 6.43359H87.9658V15ZM96.2861 10.7168C96.2861 12.2129 96.04 13.3203 95.5479 14.0391C95.0596 14.7578 94.3057 15.1172 93.2861 15.1172C92.2979 15.1172 91.5518 14.7461 91.0479 14.0039C90.5479 13.2617 90.2979 12.166 90.2979 10.7168C90.2979 9.20508 90.542 8.0918 91.0303 7.37695C91.5186 6.6582 92.2705 6.29883 93.2861 6.29883C94.2744 6.29883 95.0205 6.67383 95.5244 7.42383C96.0322 8.17383 96.2861 9.27148 96.2861 10.7168ZM92.0967 10.7168C92.0967 11.7676 92.1865 12.5215 92.3662 12.9785C92.5498 13.4316 92.8564 13.6582 93.2861 13.6582C93.708 13.6582 94.0127 13.4277 94.2002 12.9668C94.3877 12.5059 94.4814 11.7559 94.4814 10.7168C94.4814 9.66602 94.3857 8.91211 94.1943 8.45508C94.0068 7.99414 93.7041 7.76367 93.2861 7.76367C92.8604 7.76367 92.5557 7.99414 92.3721 8.45508C92.1885 8.91211 92.0967 9.66602 92.0967 10.7168ZM101.677 15H99.8662V10.043L99.8838 9.22852L99.9131 8.33789C99.6123 8.63867 99.4033 8.83594 99.2861 8.92969L98.3018 9.7207L97.4287 8.63086L100.188 6.43359H101.677V15ZM109.997 10.7168C109.997 12.2129 109.751 13.3203 109.259 14.0391C108.771 14.7578 108.017 15.1172 106.997 15.1172C106.009 15.1172 105.263 14.7461 104.759 14.0039C104.259 13.2617 104.009 12.166 104.009 10.7168C104.009 9.20508 104.253 8.0918 104.741 7.37695C105.229 6.6582 105.981 6.29883 106.997 6.29883C107.985 6.29883 108.731 6.67383 109.235 7.42383C109.743 8.17383 109.997 9.27148 109.997 10.7168ZM105.808 10.7168C105.808 11.7676 105.897 12.5215 106.077 12.9785C106.261 13.4316 106.567 13.6582 106.997 13.6582C107.419 13.6582 107.724 13.4277 107.911 12.9668C108.099 12.5059 108.192 11.7559 108.192 10.7168C108.192 9.66602 108.097 8.91211 107.905 8.45508C107.718 7.99414 107.415 7.76367 106.997 7.76367C106.571 7.76367 106.267 7.99414 106.083 8.45508C105.899 8.91211 105.808 9.66602 105.808 10.7168ZM116.853 10.7168C116.853 12.2129 116.606 13.3203 116.114 14.0391C115.626 14.7578 114.872 15.1172 113.853 15.1172C112.864 15.1172 112.118 14.7461 111.614 14.0039C111.114 13.2617 110.864 12.166 110.864 10.7168C110.864 9.20508 111.108 8.0918 111.597 7.37695C112.085 6.6582 112.837 6.29883 113.853 6.29883C114.841 6.29883 115.587 6.67383 116.091 7.42383C116.599 8.17383 116.853 9.27148 116.853 10.7168ZM112.663 10.7168C112.663 11.7676 112.753 12.5215 112.933 12.9785C113.116 13.4316 113.423 13.6582 113.853 13.6582C114.274 13.6582 114.579 13.4277 114.767 12.9668C114.954 12.5059 115.048 11.7559 115.048 10.7168C115.048 9.66602 114.952 8.91211 114.761 8.45508C114.573 7.99414 114.271 7.76367 113.853 7.76367C113.427 7.76367 113.122 7.99414 112.938 8.45508C112.755 8.91211 112.663 9.66602 112.663 10.7168ZM123.708 10.7168C123.708 12.2129 123.462 13.3203 122.97 14.0391C122.481 14.7578 121.728 15.1172 120.708 15.1172C119.72 15.1172 118.974 14.7461 118.47 14.0039C117.97 13.2617 117.72 12.166 117.72 10.7168C117.72 9.20508 117.964 8.0918 118.452 7.37695C118.94 6.6582 119.692 6.29883 120.708 6.29883C121.696 6.29883 122.442 6.67383 122.946 7.42383C123.454 8.17383 123.708 9.27148 123.708 10.7168ZM119.519 10.7168C119.519 11.7676 119.608 12.5215 119.788 12.9785C119.972 13.4316 120.278 13.6582 120.708 13.6582C121.13 13.6582 121.435 13.4277 121.622 12.9668C121.81 12.5059 121.903 11.7559 121.903 10.7168C121.903 9.66602 121.808 8.91211 121.616 8.45508C121.429 7.99414 121.126 7.76367 120.708 7.76367C120.282 7.76367 119.978 7.99414 119.794 8.45508C119.61 8.91211 119.519 9.66602 119.519 10.7168ZM129.099 15H127.288V10.043L127.306 9.22852L127.335 8.33789C127.034 8.63867 126.825 8.83594 126.708 8.92969L125.724 9.7207L124.851 8.63086L127.61 6.43359H129.099V15ZM137.419 10.7168C137.419 12.2129 137.173 13.3203 136.681 14.0391C136.192 14.7578 135.438 15.1172 134.419 15.1172C133.431 15.1172 132.685 14.7461 132.181 14.0039C131.681 13.2617 131.431 12.166 131.431 10.7168C131.431 9.20508 131.675 8.0918 132.163 7.37695C132.651 6.6582 133.403 6.29883 134.419 6.29883C135.407 6.29883 136.153 6.67383 136.657 7.42383C137.165 8.17383 137.419 9.27148 137.419 10.7168ZM133.229 10.7168C133.229 11.7676 133.319 12.5215 133.499 12.9785C133.683 13.4316 133.989 13.6582 134.419 13.6582C134.841 13.6582 135.146 13.4277 135.333 12.9668C135.521 12.5059 135.614 11.7559 135.614 10.7168C135.614 9.66602 135.519 8.91211 135.327 8.45508C135.14 7.99414 134.837 7.76367 134.419 7.76367C133.993 7.76367 133.688 7.99414 133.505 8.45508C133.321 8.91211 133.229 9.66602 133.229 10.7168ZM142.81 15H140.999V10.043L141.017 9.22852L141.046 8.33789C140.745 8.63867 140.536 8.83594 140.419 8.92969L139.435 9.7207L138.562 8.63086L141.321 6.43359H142.81V15ZM151.13 10.7168C151.13 12.2129 150.884 13.3203 150.392 14.0391C149.903 14.7578 149.149 15.1172 148.13 15.1172C147.142 15.1172 146.396 14.7461 145.892 14.0039C145.392 13.2617 145.142 12.166 145.142 10.7168C145.142 9.20508 145.386 8.0918 145.874 7.37695C146.362 6.6582 147.114 6.29883 148.13 6.29883C149.118 6.29883 149.864 6.67383 150.368 7.42383C150.876 8.17383 151.13 9.27148 151.13 10.7168ZM146.94 10.7168C146.94 11.7676 147.03 12.5215 147.21 12.9785C147.394 13.4316 147.7 13.6582 148.13 13.6582C148.552 13.6582 148.856 13.4277 149.044 12.9668C149.231 12.5059 149.325 11.7559 149.325 10.7168C149.325 9.66602 149.229 8.91211 149.038 8.45508C148.851 7.99414 148.548 7.76367 148.13 7.76367C147.704 7.76367 147.399 7.99414 147.216 8.45508C147.032 8.91211 146.94 9.66602 146.94 10.7168ZM157.985 10.7168C157.985 12.2129 157.739 13.3203 157.247 14.0391C156.759 14.7578 156.005 15.1172 154.985 15.1172C153.997 15.1172 153.251 14.7461 152.747 14.0039C152.247 13.2617 151.997 12.166 151.997 10.7168C151.997 9.20508 152.241 8.0918 152.729 7.37695C153.218 6.6582 153.97 6.29883 154.985 6.29883C155.974 6.29883 156.72 6.67383 157.224 7.42383C157.731 8.17383 157.985 9.27148 157.985 10.7168ZM153.796 10.7168C153.796 11.7676 153.886 12.5215 154.065 12.9785C154.249 13.4316 154.556 13.6582 154.985 13.6582C155.407 13.6582 155.712 13.4277 155.899 12.9668C156.087 12.5059 156.181 11.7559 156.181 10.7168C156.181 9.66602 156.085 8.91211 155.894 8.45508C155.706 7.99414 155.403 7.76367 154.985 7.76367C154.56 7.76367 154.255 7.99414 154.071 8.45508C153.888 8.91211 153.796 9.66602 153.796 10.7168ZM163.376 15H161.565V10.043L161.583 9.22852L161.612 8.33789C161.312 8.63867 161.103 8.83594 160.985 8.92969L160.001 9.7207L159.128 8.63086L161.888 6.43359H163.376V15ZM171.696 10.7168C171.696 12.2129 171.45 13.3203 170.958 14.0391C170.47 14.7578 169.716 15.1172 168.696 15.1172C167.708 15.1172 166.962 14.7461 166.458 14.0039C165.958 13.2617 165.708 12.166 165.708 10.7168C165.708 9.20508 165.952 8.0918 166.44 7.37695C166.929 6.6582 167.681 6.29883 168.696 6.29883C169.685 6.29883 170.431 6.67383 170.935 7.42383C171.442 8.17383 171.696 9.27148 171.696 10.7168ZM167.507 10.7168C167.507 11.7676 167.597 12.5215 167.776 12.9785C167.96 13.4316 168.267 13.6582 168.696 13.6582C169.118 13.6582 169.423 13.4277 169.61 12.9668C169.798 12.5059 169.892 11.7559 169.892 10.7168C169.892 9.66602 169.796 8.91211 169.604 8.45508C169.417 7.99414 169.114 7.76367 168.696 7.76367C168.271 7.76367 167.966 7.99414 167.782 8.45508C167.599 8.91211 167.507 9.66602 167.507 10.7168ZM178.552 10.7168C178.552 12.2129 178.306 13.3203 177.813 14.0391C177.325 14.7578 176.571 15.1172 175.552 15.1172C174.563 15.1172 173.817 14.7461 173.313 14.0039C172.813 13.2617 172.563 12.166 172.563 10.7168C172.563 9.20508 172.808 8.0918 173.296 7.37695C173.784 6.6582 174.536 6.29883 175.552 6.29883C176.54 6.29883 177.286 6.67383 177.79 7.42383C178.298 8.17383 178.552 9.27148 178.552 10.7168ZM174.362 10.7168C174.362 11.7676 174.452 12.5215 174.632 12.9785C174.815 13.4316 175.122 13.6582 175.552 13.6582C175.974 13.6582 176.278 13.4277 176.466 12.9668C176.653 12.5059 176.747 11.7559 176.747 10.7168C176.747 9.66602 176.651 8.91211 176.46 8.45508C176.272 7.99414 175.97 7.76367 175.552 7.76367C175.126 7.76367 174.821 7.99414 174.638 8.45508C174.454 8.91211 174.362 9.66602 174.362 10.7168ZM183.942 15H182.132V10.043L182.149 9.22852L182.179 8.33789C181.878 8.63867 181.669 8.83594 181.552 8.92969L180.567 9.7207L179.694 8.63086L182.454 6.43359H183.942V15ZM190.798 15H188.987V10.043L189.005 9.22852L189.034 8.33789C188.733 8.63867 188.524 8.83594 188.407 8.92969L187.423 9.7207L186.55 8.63086L189.31 6.43359H190.798V15ZM199.118 10.7168C199.118 12.2129 198.872 13.3203 198.38 14.0391C197.892 14.7578 197.138 15.1172 196.118 15.1172C195.13 15.1172 194.384 14.7461 193.88 14.0039C193.38 13.2617 193.13 12.166 193.13 10.7168C193.13 9.20508 193.374 8.0918 193.862 7.37695C194.351 6.6582 195.103 6.29883 196.118 6.29883C197.106 6.29883 197.853 6.67383 198.356 7.42383C198.864 8.17383 199.118 9.27148 199.118 10.7168ZM194.929 10.7168C194.929 11.7676 195.019 12.5215 195.198 12.9785C195.382 13.4316 195.688 13.6582 196.118 13.6582C196.54 13.6582 196.845 13.4277 197.032 12.9668C197.22 12.5059 197.313 11.7559 197.313 10.7168C197.313 9.66602 197.218 8.91211 197.026 8.45508C196.839 7.99414 196.536 7.76367 196.118 7.76367C195.692 7.76367 195.388 7.99414 195.204 8.45508C195.021 8.91211 194.929 9.66602 194.929 10.7168ZM205.974 10.7168C205.974 12.2129 205.728 13.3203 205.235 14.0391C204.747 14.7578 203.993 15.1172 202.974 15.1172C201.985 15.1172 201.239 14.7461 200.735 14.0039C200.235 13.2617 199.985 12.166 199.985 10.7168C199.985 9.20508 200.229 8.0918 200.718 7.37695C201.206 6.6582 201.958 6.29883 202.974 6.29883C203.962 6.29883 204.708 6.67383 205.212 7.42383C205.72 8.17383 205.974 9.27148 205.974 10.7168ZM201.784 10.7168C201.784 11.7676 201.874 12.5215 202.054 12.9785C202.237 13.4316 202.544 13.6582 202.974 13.6582C203.396 13.6582 203.7 13.4277 203.888 12.9668C204.075 12.5059 204.169 11.7559 204.169 10.7168C204.169 9.66602 204.073 8.91211 203.882 8.45508C203.694 7.99414 203.392 7.76367 202.974 7.76367C202.548 7.76367 202.243 7.99414 202.06 8.45508C201.876 8.91211 201.784 9.66602 201.784 10.7168ZM211.364 15H209.554V10.043L209.571 9.22852L209.601 8.33789C209.3 8.63867 209.091 8.83594 208.974 8.92969L207.989 9.7207L207.116 8.63086L209.876 6.43359H211.364V15ZM219.685 10.7168C219.685 12.2129 219.438 13.3203 218.946 14.0391C218.458 14.7578 217.704 15.1172 216.685 15.1172C215.696 15.1172 214.95 14.7461 214.446 14.0039C213.946 13.2617 213.696 12.166 213.696 10.7168C213.696 9.20508 213.94 8.0918 214.429 7.37695C214.917 6.6582 215.669 6.29883 216.685 6.29883C217.673 6.29883 218.419 6.67383 218.923 7.42383C219.431 8.17383 219.685 9.27148 219.685 10.7168ZM215.495 10.7168C215.495 11.7676 215.585 12.5215 215.765 12.9785C215.948 13.4316 216.255 13.6582 216.685 13.6582C217.106 13.6582 217.411 13.4277 217.599 12.9668C217.786 12.5059 217.88 11.7559 217.88 10.7168C217.88 9.66602 217.784 8.91211 217.593 8.45508C217.405 7.99414 217.103 7.76367 216.685 7.76367C216.259 7.76367 215.954 7.99414 215.771 8.45508C215.587 8.91211 215.495 9.66602 215.495 10.7168ZM225.075 15H223.265V10.043L223.282 9.22852L223.312 8.33789C223.011 8.63867 222.802 8.83594 222.685 8.92969L221.7 9.7207L220.827 8.63086L223.587 6.43359H225.075V15ZM82.5752 26.7168C82.5752 28.2129 82.3291 29.3203 81.8369 30.0391C81.3486 30.7578 80.5947 31.1172 79.5752 31.1172C78.5869 31.1172 77.8408 30.7461 77.3369 30.0039C76.8369 29.2617 76.5869 28.166 76.5869 26.7168C76.5869 25.2051 76.8311 24.0918 77.3193 23.377C77.8076 22.6582 78.5596 22.2988 79.5752 22.2988C80.5635 22.2988 81.3096 22.6738 81.8135 23.4238C82.3213 24.1738 82.5752 25.2715 82.5752 26.7168ZM78.3857 26.7168C78.3857 27.7676 78.4756 28.5215 78.6553 28.9785C78.8389 29.4316 79.1455 29.6582 79.5752 29.6582C79.9971 29.6582 80.3018 29.4277 80.4893 28.9668C80.6768 28.5059 80.7705 27.7559 80.7705 26.7168C80.7705 25.666 80.6748 24.9121 80.4834 24.4551C80.2959 23.9941 79.9932 23.7637 79.5752 23.7637C79.1494 23.7637 78.8447 23.9941 78.6611 24.4551C78.4775 24.9121 78.3857 25.666 78.3857 26.7168ZM87.9658 31H86.1553V26.043L86.1729 25.2285L86.2021 24.3379C85.9014 24.6387 85.6924 24.8359 85.5752 24.9297L84.5908 25.7207L83.7178 24.6309L86.4775 22.4336H87.9658V31ZM96.2861 26.7168C96.2861 28.2129 96.04 29.3203 95.5479 30.0391C95.0596 30.7578 94.3057 31.1172 93.2861 31.1172C92.2979 31.1172 91.5518 30.7461 91.0479 30.0039C90.5479 29.2617 90.2979 28.166 90.2979 26.7168C90.2979 25.2051 90.542 24.0918 91.0303 23.377C91.5186 22.6582 92.2705 22.2988 93.2861 22.2988C94.2744 22.2988 95.0205 22.6738 95.5244 23.4238C96.0322 24.1738 96.2861 25.2715 96.2861 26.7168ZM92.0967 26.7168C92.0967 27.7676 92.1865 28.5215 92.3662 28.9785C92.5498 29.4316 92.8564 29.6582 93.2861 29.6582C93.708 29.6582 94.0127 29.4277 94.2002 28.9668C94.3877 28.5059 94.4814 27.7559 94.4814 26.7168C94.4814 25.666 94.3857 24.9121 94.1943 24.4551C94.0068 23.9941 93.7041 23.7637 93.2861 23.7637C92.8604 23.7637 92.5557 23.9941 92.3721 24.4551C92.1885 24.9121 92.0967 25.666 92.0967 26.7168ZM103.142 26.7168C103.142 28.2129 102.896 29.3203 102.403 30.0391C101.915 30.7578 101.161 31.1172 100.142 31.1172C99.1533 31.1172 98.4072 30.7461 97.9033 30.0039C97.4033 29.2617 97.1533 28.166 97.1533 26.7168C97.1533 25.2051 97.3975 24.0918 97.8857 23.377C98.374 22.6582 99.126 22.2988 100.142 22.2988C101.13 22.2988 101.876 22.6738 102.38 23.4238C102.888 24.1738 103.142 25.2715 103.142 26.7168ZM98.9521 26.7168C98.9521 27.7676 99.042 28.5215 99.2217 28.9785C99.4053 29.4316 99.7119 29.6582 100.142 29.6582C100.563 29.6582 100.868 29.4277 101.056 28.9668C101.243 28.5059 101.337 27.7559 101.337 26.7168C101.337 25.666 101.241 24.9121 101.05 24.4551C100.862 23.9941 100.56 23.7637 100.142 23.7637C99.7158 23.7637 99.4111 23.9941 99.2275 24.4551C99.0439 24.9121 98.9521 25.666 98.9521 26.7168ZM108.532 31H106.722V26.043L106.739 25.2285L106.769 24.3379C106.468 24.6387 106.259 24.8359 106.142 24.9297L105.157 25.7207L104.284 24.6309L107.044 22.4336H108.532V31ZM116.853 26.7168C116.853 28.2129 116.606 29.3203 116.114 30.0391C115.626 30.7578 114.872 31.1172 113.853 31.1172C112.864 31.1172 112.118 30.7461 111.614 30.0039C111.114 29.2617 110.864 28.166 110.864 26.7168C110.864 25.2051 111.108 24.0918 111.597 23.377C112.085 22.6582 112.837 22.2988 113.853 22.2988C114.841 22.2988 115.587 22.6738 116.091 23.4238C116.599 24.1738 116.853 25.2715 116.853 26.7168ZM112.663 26.7168C112.663 27.7676 112.753 28.5215 112.933 28.9785C113.116 29.4316 113.423 29.6582 113.853 29.6582C114.274 29.6582 114.579 29.4277 114.767 28.9668C114.954 28.5059 115.048 27.7559 115.048 26.7168C115.048 25.666 114.952 24.9121 114.761 24.4551C114.573 23.9941 114.271 23.7637 113.853 23.7637C113.427 23.7637 113.122 23.9941 112.938 24.4551C112.755 24.9121 112.663 25.666 112.663 26.7168ZM122.243 31H120.433V26.043L120.45 25.2285L120.479 24.3379C120.179 24.6387 119.97 24.8359 119.853 24.9297L118.868 25.7207L117.995 24.6309L120.755 22.4336H122.243V31ZM130.563 26.7168C130.563 28.2129 130.317 29.3203 129.825 30.0391C129.337 30.7578 128.583 31.1172 127.563 31.1172C126.575 31.1172 125.829 30.7461 125.325 30.0039C124.825 29.2617 124.575 28.166 124.575 26.7168C124.575 25.2051 124.819 24.0918 125.308 23.377C125.796 22.6582 126.548 22.2988 127.563 22.2988C128.552 22.2988 129.298 22.6738 129.802 23.4238C130.31 24.1738 130.563 25.2715 130.563 26.7168ZM126.374 26.7168C126.374 27.7676 126.464 28.5215 126.644 28.9785C126.827 29.4316 127.134 29.6582 127.563 29.6582C127.985 29.6582 128.29 29.4277 128.478 28.9668C128.665 28.5059 128.759 27.7559 128.759 26.7168C128.759 25.666 128.663 24.9121 128.472 24.4551C128.284 23.9941 127.981 23.7637 127.563 23.7637C127.138 23.7637 126.833 23.9941 126.649 24.4551C126.466 24.9121 126.374 25.666 126.374 26.7168ZM137.419 26.7168C137.419 28.2129 137.173 29.3203 136.681 30.0391C136.192 30.7578 135.438 31.1172 134.419 31.1172C133.431 31.1172 132.685 30.7461 132.181 30.0039C131.681 29.2617 131.431 28.166 131.431 26.7168C131.431 25.2051 131.675 24.0918 132.163 23.377C132.651 22.6582 133.403 22.2988 134.419 22.2988C135.407 22.2988 136.153 22.6738 136.657 23.4238C137.165 24.1738 137.419 25.2715 137.419 26.7168ZM133.229 26.7168C133.229 27.7676 133.319 28.5215 133.499 28.9785C133.683 29.4316 133.989 29.6582 134.419 29.6582C134.841 29.6582 135.146 29.4277 135.333 28.9668C135.521 28.5059 135.614 27.7559 135.614 26.7168C135.614 25.666 135.519 24.9121 135.327 24.4551C135.14 23.9941 134.837 23.7637 134.419 23.7637C133.993 23.7637 133.688 23.9941 133.505 24.4551C133.321 24.9121 133.229 25.666 133.229 26.7168ZM144.274 26.7168C144.274 28.2129 144.028 29.3203 143.536 30.0391C143.048 30.7578 142.294 31.1172 141.274 31.1172C140.286 31.1172 139.54 30.7461 139.036 30.0039C138.536 29.2617 138.286 28.166 138.286 26.7168C138.286 25.2051 138.53 24.0918 139.019 23.377C139.507 22.6582 140.259 22.2988 141.274 22.2988C142.263 22.2988 143.009 22.6738 143.513 23.4238C144.021 24.1738 144.274 25.2715 144.274 26.7168ZM140.085 26.7168C140.085 27.7676 140.175 28.5215 140.354 28.9785C140.538 29.4316 140.845 29.6582 141.274 29.6582C141.696 29.6582 142.001 29.4277 142.188 28.9668C142.376 28.5059 142.47 27.7559 142.47 26.7168C142.47 25.666 142.374 24.9121 142.183 24.4551C141.995 23.9941 141.692 23.7637 141.274 23.7637C140.849 23.7637 140.544 23.9941 140.36 24.4551C140.177 24.9121 140.085 25.666 140.085 26.7168ZM151.13 26.7168C151.13 28.2129 150.884 29.3203 150.392 30.0391C149.903 30.7578 149.149 31.1172 148.13 31.1172C147.142 31.1172 146.396 30.7461 145.892 30.0039C145.392 29.2617 145.142 28.166 145.142 26.7168C145.142 25.2051 145.386 24.0918 145.874 23.377C146.362 22.6582 147.114 22.2988 148.13 22.2988C149.118 22.2988 149.864 22.6738 150.368 23.4238C150.876 24.1738 151.13 25.2715 151.13 26.7168ZM146.94 26.7168C146.94 27.7676 147.03 28.5215 147.21 28.9785C147.394 29.4316 147.7 29.6582 148.13 29.6582C148.552 29.6582 148.856 29.4277 149.044 28.9668C149.231 28.5059 149.325 27.7559 149.325 26.7168C149.325 25.666 149.229 24.9121 149.038 24.4551C148.851 23.9941 148.548 23.7637 148.13 23.7637C147.704 23.7637 147.399 23.9941 147.216 24.4551C147.032 24.9121 146.94 25.666 146.94 26.7168ZM157.985 26.7168C157.985 28.2129 157.739 29.3203 157.247 30.0391C156.759 30.7578 156.005 31.1172 154.985 31.1172C153.997 31.1172 153.251 30.7461 152.747 30.0039C152.247 29.2617 151.997 28.166 151.997 26.7168C151.997 25.2051 152.241 24.0918 152.729 23.377C153.218 22.6582 153.97 22.2988 154.985 22.2988C155.974 22.2988 156.72 22.6738 157.224 23.4238C157.731 24.1738 157.985 25.2715 157.985 26.7168ZM153.796 26.7168C153.796 27.7676 153.886 28.5215 154.065 28.9785C154.249 29.4316 154.556 29.6582 154.985 29.6582C155.407 29.6582 155.712 29.4277 155.899 28.9668C156.087 28.5059 156.181 27.7559 156.181 26.7168C156.181 25.666 156.085 24.9121 155.894 24.4551C155.706 23.9941 155.403 23.7637 154.985 23.7637C154.56 23.7637 154.255 23.9941 154.071 24.4551C153.888 24.9121 153.796 25.666 153.796 26.7168ZM163.376 31H161.565V26.043L161.583 25.2285L161.612 24.3379C161.312 24.6387 161.103 24.8359 160.985 24.9297L160.001 25.7207L159.128 24.6309L161.888 22.4336H163.376V31ZM171.696 26.7168C171.696 28.2129 171.45 29.3203 170.958 30.0391C170.47 30.7578 169.716 31.1172 168.696 31.1172C167.708 31.1172 166.962 30.7461 166.458 30.0039C165.958 29.2617 165.708 28.166 165.708 26.7168C165.708 25.2051 165.952 24.0918 166.44 23.377C166.929 22.6582 167.681 22.2988 168.696 22.2988C169.685 22.2988 170.431 22.6738 170.935 23.4238C171.442 24.1738 171.696 25.2715 171.696 26.7168ZM167.507 26.7168C167.507 27.7676 167.597 28.5215 167.776 28.9785C167.96 29.4316 168.267 29.6582 168.696 29.6582C169.118 29.6582 169.423 29.4277 169.61 28.9668C169.798 28.5059 169.892 27.7559 169.892 26.7168C169.892 25.666 169.796 24.9121 169.604 24.4551C169.417 23.9941 169.114 23.7637 168.696 23.7637C168.271 23.7637 167.966 23.9941 167.782 24.4551C167.599 24.9121 167.507 25.666 167.507 26.7168ZM177.087 31H175.276V26.043L175.294 25.2285L175.323 24.3379C175.022 24.6387 174.813 24.8359 174.696 24.9297L173.712 25.7207L172.839 24.6309L175.599 22.4336H177.087V31ZM185.407 26.7168C185.407 28.2129 185.161 29.3203 184.669 30.0391C184.181 30.7578 183.427 31.1172 182.407 31.1172C181.419 31.1172 180.673 30.7461 180.169 30.0039C179.669 29.2617 179.419 28.166 179.419 26.7168C179.419 25.2051 179.663 24.0918 180.151 23.377C180.64 22.6582 181.392 22.2988 182.407 22.2988C183.396 22.2988 184.142 22.6738 184.646 23.4238C185.153 24.1738 185.407 25.2715 185.407 26.7168ZM181.218 26.7168C181.218 27.7676 181.308 28.5215 181.487 28.9785C181.671 29.4316 181.978 29.6582 182.407 29.6582C182.829 29.6582 183.134 29.4277 183.321 28.9668C183.509 28.5059 183.603 27.7559 183.603 26.7168C183.603 25.666 183.507 24.9121 183.315 24.4551C183.128 23.9941 182.825 23.7637 182.407 23.7637C181.981 23.7637 181.677 23.9941 181.493 24.4551C181.31 24.9121 181.218 25.666 181.218 26.7168ZM192.263 26.7168C192.263 28.2129 192.017 29.3203 191.524 30.0391C191.036 30.7578 190.282 31.1172 189.263 31.1172C188.274 31.1172 187.528 30.7461 187.024 30.0039C186.524 29.2617 186.274 28.166 186.274 26.7168C186.274 25.2051 186.519 24.0918 187.007 23.377C187.495 22.6582 188.247 22.2988 189.263 22.2988C190.251 22.2988 190.997 22.6738 191.501 23.4238C192.009 24.1738 192.263 25.2715 192.263 26.7168ZM188.073 26.7168C188.073 27.7676 188.163 28.5215 188.343 28.9785C188.526 29.4316 188.833 29.6582 189.263 29.6582C189.685 29.6582 189.989 29.4277 190.177 28.9668C190.364 28.5059 190.458 27.7559 190.458 26.7168C190.458 25.666 190.362 24.9121 190.171 24.4551C189.983 23.9941 189.681 23.7637 189.263 23.7637C188.837 23.7637 188.532 23.9941 188.349 24.4551C188.165 24.9121 188.073 25.666 188.073 26.7168ZM197.653 31H195.843V26.043L195.86 25.2285L195.89 24.3379C195.589 24.6387 195.38 24.8359 195.263 24.9297L194.278 25.7207L193.405 24.6309L196.165 22.4336H197.653V31ZM205.974 26.7168C205.974 28.2129 205.728 29.3203 205.235 30.0391C204.747 30.7578 203.993 31.1172 202.974 31.1172C201.985 31.1172 201.239 30.7461 200.735 30.0039C200.235 29.2617 199.985 28.166 199.985 26.7168C199.985 25.2051 200.229 24.0918 200.718 23.377C201.206 22.6582 201.958 22.2988 202.974 22.2988C203.962 22.2988 204.708 22.6738 205.212 23.4238C205.72 24.1738 205.974 25.2715 205.974 26.7168ZM201.784 26.7168C201.784 27.7676 201.874 28.5215 202.054 28.9785C202.237 29.4316 202.544 29.6582 202.974 29.6582C203.396 29.6582 203.7 29.4277 203.888 28.9668C204.075 28.5059 204.169 27.7559 204.169 26.7168C204.169 25.666 204.073 24.9121 203.882 24.4551C203.694 23.9941 203.392 23.7637 202.974 23.7637C202.548 23.7637 202.243 23.9941 202.06 24.4551C201.876 24.9121 201.784 25.666 201.784 26.7168ZM212.829 26.7168C212.829 28.2129 212.583 29.3203 212.091 30.0391C211.603 30.7578 210.849 31.1172 209.829 31.1172C208.841 31.1172 208.095 30.7461 207.591 30.0039C207.091 29.2617 206.841 28.166 206.841 26.7168C206.841 25.2051 207.085 24.0918 207.573 23.377C208.062 22.6582 208.813 22.2988 209.829 22.2988C210.817 22.2988 211.563 22.6738 212.067 23.4238C212.575 24.1738 212.829 25.2715 212.829 26.7168ZM208.64 26.7168C208.64 27.7676 208.729 28.5215 208.909 28.9785C209.093 29.4316 209.399 29.6582 209.829 29.6582C210.251 29.6582 210.556 29.4277 210.743 28.9668C210.931 28.5059 211.024 27.7559 211.024 26.7168C211.024 25.666 210.929 24.9121 210.737 24.4551C210.55 23.9941 210.247 23.7637 209.829 23.7637C209.403 23.7637 209.099 23.9941 208.915 24.4551C208.731 24.9121 208.64 25.666 208.64 26.7168ZM218.22 31H216.409V26.043L216.427 25.2285L216.456 24.3379C216.155 24.6387 215.946 24.8359 215.829 24.9297L214.845 25.7207L213.972 24.6309L216.731 22.4336H218.22V31ZM226.54 26.7168C226.54 28.2129 226.294 29.3203 225.802 30.0391C225.313 30.7578 224.56 31.1172 223.54 31.1172C222.552 31.1172 221.806 30.7461 221.302 30.0039C220.802 29.2617 220.552 28.166 220.552 26.7168C220.552 25.2051 220.796 24.0918 221.284 23.377C221.772 22.6582 222.524 22.2988 223.54 22.2988C224.528 22.2988 225.274 22.6738 225.778 23.4238C226.286 24.1738 226.54 25.2715 226.54 26.7168ZM222.351 26.7168C222.351 27.7676 222.44 28.5215 222.62 28.9785C222.804 29.4316 223.11 29.6582 223.54 29.6582C223.962 29.6582 224.267 29.4277 224.454 28.9668C224.642 28.5059 224.735 27.7559 224.735 26.7168C224.735 25.666 224.64 24.9121 224.448 24.4551C224.261 23.9941 223.958 23.7637 223.54 23.7637C223.114 23.7637 222.81 23.9941 222.626 24.4551C222.442 24.9121 222.351 25.666 222.351 26.7168ZM82.5752 42.7168C82.5752 44.2129 82.3291 45.3203 81.8369 46.0391C81.3486 46.7578 80.5947 47.1172 79.5752 47.1172C78.5869 47.1172 77.8408 46.7461 77.3369 46.0039C76.8369 45.2617 76.5869 44.166 76.5869 42.7168C76.5869 41.2051 76.8311 40.0918 77.3193 39.377C77.8076 38.6582 78.5596 38.2988 79.5752 38.2988C80.5635 38.2988 81.3096 38.6738 81.8135 39.4238C82.3213 40.1738 82.5752 41.2715 82.5752 42.7168ZM78.3857 42.7168C78.3857 43.7676 78.4756 44.5215 78.6553 44.9785C78.8389 45.4316 79.1455 45.6582 79.5752 45.6582C79.9971 45.6582 80.3018 45.4277 80.4893 44.9668C80.6768 44.5059 80.7705 43.7559 80.7705 42.7168C80.7705 41.666 80.6748 40.9121 80.4834 40.4551C80.2959 39.9941 79.9932 39.7637 79.5752 39.7637C79.1494 39.7637 78.8447 39.9941 78.6611 40.4551C78.4775 40.9121 78.3857 41.666 78.3857 42.7168ZM89.4307 42.7168C89.4307 44.2129 89.1846 45.3203 88.6924 46.0391C88.2041 46.7578 87.4502 47.1172 86.4307 47.1172C85.4424 47.1172 84.6963 46.7461 84.1924 46.0039C83.6924 45.2617 83.4424 44.166 83.4424 42.7168C83.4424 41.2051 83.6865 40.0918 84.1748 39.377C84.6631 38.6582 85.415 38.2988 86.4307 38.2988C87.4189 38.2988 88.165 38.6738 88.6689 39.4238C89.1768 40.1738 89.4307 41.2715 89.4307 42.7168ZM85.2412 42.7168C85.2412 43.7676 85.3311 44.5215 85.5107 44.9785C85.6943 45.4316 86.001 45.6582 86.4307 45.6582C86.8525 45.6582 87.1572 45.4277 87.3447 44.9668C87.5322 44.5059 87.626 43.7559 87.626 42.7168C87.626 41.666 87.5303 40.9121 87.3389 40.4551C87.1514 39.9941 86.8486 39.7637 86.4307 39.7637C86.0049 39.7637 85.7002 39.9941 85.5166 40.4551C85.333 40.9121 85.2412 41.666 85.2412 42.7168ZM96.2861 42.7168C96.2861 44.2129 96.04 45.3203 95.5479 46.0391C95.0596 46.7578 94.3057 47.1172 93.2861 47.1172C92.2979 47.1172 91.5518 46.7461 91.0479 46.0039C90.5479 45.2617 90.2979 44.166 90.2979 42.7168C90.2979 41.2051 90.542 40.0918 91.0303 39.377C91.5186 38.6582 92.2705 38.2988 93.2861 38.2988C94.2744 38.2988 95.0205 38.6738 95.5244 39.4238C96.0322 40.1738 96.2861 41.2715 96.2861 42.7168ZM92.0967 42.7168C92.0967 43.7676 92.1865 44.5215 92.3662 44.9785C92.5498 45.4316 92.8564 45.6582 93.2861 45.6582C93.708 45.6582 94.0127 45.4277 94.2002 44.9668C94.3877 44.5059 94.4814 43.7559 94.4814 42.7168C94.4814 41.666 94.3857 40.9121 94.1943 40.4551C94.0068 39.9941 93.7041 39.7637 93.2861 39.7637C92.8604 39.7637 92.5557 39.9941 92.3721 40.4551C92.1885 40.9121 92.0967 41.666 92.0967 42.7168ZM101.677 47H99.8662V42.043L99.8838 41.2285L99.9131 40.3379C99.6123 40.6387 99.4033 40.8359 99.2861 40.9297L98.3018 41.7207L97.4287 40.6309L100.188 38.4336H101.677V47ZM109.997 42.7168C109.997 44.2129 109.751 45.3203 109.259 46.0391C108.771 46.7578 108.017 47.1172 106.997 47.1172C106.009 47.1172 105.263 46.7461 104.759 46.0039C104.259 45.2617 104.009 44.166 104.009 42.7168C104.009 41.2051 104.253 40.0918 104.741 39.377C105.229 38.6582 105.981 38.2988 106.997 38.2988C107.985 38.2988 108.731 38.6738 109.235 39.4238C109.743 40.1738 109.997 41.2715 109.997 42.7168ZM105.808 42.7168C105.808 43.7676 105.897 44.5215 106.077 44.9785C106.261 45.4316 106.567 45.6582 106.997 45.6582C107.419 45.6582 107.724 45.4277 107.911 44.9668C108.099 44.5059 108.192 43.7559 108.192 42.7168C108.192 41.666 108.097 40.9121 107.905 40.4551C107.718 39.9941 107.415 39.7637 106.997 39.7637C106.571 39.7637 106.267 39.9941 106.083 40.4551C105.899 40.9121 105.808 41.666 105.808 42.7168ZM115.388 47H113.577V42.043L113.595 41.2285L113.624 40.3379C113.323 40.6387 113.114 40.8359 112.997 40.9297L112.013 41.7207L111.14 40.6309L113.899 38.4336H115.388V47ZM123.708 42.7168C123.708 44.2129 123.462 45.3203 122.97 46.0391C122.481 46.7578 121.728 47.1172 120.708 47.1172C119.72 47.1172 118.974 46.7461 118.47 46.0039C117.97 45.2617 117.72 44.166 117.72 42.7168C117.72 41.2051 117.964 40.0918 118.452 39.377C118.94 38.6582 119.692 38.2988 120.708 38.2988C121.696 38.2988 122.442 38.6738 122.946 39.4238C123.454 40.1738 123.708 41.2715 123.708 42.7168ZM119.519 42.7168C119.519 43.7676 119.608 44.5215 119.788 44.9785C119.972 45.4316 120.278 45.6582 120.708 45.6582C121.13 45.6582 121.435 45.4277 121.622 44.9668C121.81 44.5059 121.903 43.7559 121.903 42.7168C121.903 41.666 121.808 40.9121 121.616 40.4551C121.429 39.9941 121.126 39.7637 120.708 39.7637C120.282 39.7637 119.978 39.9941 119.794 40.4551C119.61 40.9121 119.519 41.666 119.519 42.7168ZM130.563 42.7168C130.563 44.2129 130.317 45.3203 129.825 46.0391C129.337 46.7578 128.583 47.1172 127.563 47.1172C126.575 47.1172 125.829 46.7461 125.325 46.0039C124.825 45.2617 124.575 44.166 124.575 42.7168C124.575 41.2051 124.819 40.0918 125.308 39.377C125.796 38.6582 126.548 38.2988 127.563 38.2988C128.552 38.2988 129.298 38.6738 129.802 39.4238C130.31 40.1738 130.563 41.2715 130.563 42.7168ZM126.374 42.7168C126.374 43.7676 126.464 44.5215 126.644 44.9785C126.827 45.4316 127.134 45.6582 127.563 45.6582C127.985 45.6582 128.29 45.4277 128.478 44.9668C128.665 44.5059 128.759 43.7559 128.759 42.7168C128.759 41.666 128.663 40.9121 128.472 40.4551C128.284 39.9941 127.981 39.7637 127.563 39.7637C127.138 39.7637 126.833 39.9941 126.649 40.4551C126.466 40.9121 126.374 41.666 126.374 42.7168ZM137.419 42.7168C137.419 44.2129 137.173 45.3203 136.681 46.0391C136.192 46.7578 135.438 47.1172 134.419 47.1172C133.431 47.1172 132.685 46.7461 132.181 46.0039C131.681 45.2617 131.431 44.166 131.431 42.7168C131.431 41.2051 131.675 40.0918 132.163 39.377C132.651 38.6582 133.403 38.2988 134.419 38.2988C135.407 38.2988 136.153 38.6738 136.657 39.4238C137.165 40.1738 137.419 41.2715 137.419 42.7168ZM133.229 42.7168C133.229 43.7676 133.319 44.5215 133.499 44.9785C133.683 45.4316 133.989 45.6582 134.419 45.6582C134.841 45.6582 135.146 45.4277 135.333 44.9668C135.521 44.5059 135.614 43.7559 135.614 42.7168C135.614 41.666 135.519 40.9121 135.327 40.4551C135.14 39.9941 134.837 39.7637 134.419 39.7637C133.993 39.7637 133.688 39.9941 133.505 40.4551C133.321 40.9121 133.229 41.666 133.229 42.7168ZM142.81 47H140.999V42.043L141.017 41.2285L141.046 40.3379C140.745 40.6387 140.536 40.8359 140.419 40.9297L139.435 41.7207L138.562 40.6309L141.321 38.4336H142.81V47ZM151.13 42.7168C151.13 44.2129 150.884 45.3203 150.392 46.0391C149.903 46.7578 149.149 47.1172 148.13 47.1172C147.142 47.1172 146.396 46.7461 145.892 46.0039C145.392 45.2617 145.142 44.166 145.142 42.7168C145.142 41.2051 145.386 40.0918 145.874 39.377C146.362 38.6582 147.114 38.2988 148.13 38.2988C149.118 38.2988 149.864 38.6738 150.368 39.4238C150.876 40.1738 151.13 41.2715 151.13 42.7168ZM146.94 42.7168C146.94 43.7676 147.03 44.5215 147.21 44.9785C147.394 45.4316 147.7 45.6582 148.13 45.6582C148.552 45.6582 148.856 45.4277 149.044 44.9668C149.231 44.5059 149.325 43.7559 149.325 42.7168C149.325 41.666 149.229 40.9121 149.038 40.4551C148.851 39.9941 148.548 39.7637 148.13 39.7637C147.704 39.7637 147.399 39.9941 147.216 40.4551C147.032 40.9121 146.94 41.666 146.94 42.7168ZM156.521 47H154.71V42.043L154.728 41.2285L154.757 40.3379C154.456 40.6387 154.247 40.8359 154.13 40.9297L153.146 41.7207L152.272 40.6309L155.032 38.4336H156.521V47ZM164.841 42.7168C164.841 44.2129 164.595 45.3203 164.103 46.0391C163.614 46.7578 162.86 47.1172 161.841 47.1172C160.853 47.1172 160.106 46.7461 159.603 46.0039C159.103 45.2617 158.853 44.166 158.853 42.7168C158.853 41.2051 159.097 40.0918 159.585 39.377C160.073 38.6582 160.825 38.2988 161.841 38.2988C162.829 38.2988 163.575 38.6738 164.079 39.4238C164.587 40.1738 164.841 41.2715 164.841 42.7168ZM160.651 42.7168C160.651 43.7676 160.741 44.5215 160.921 44.9785C161.104 45.4316 161.411 45.6582 161.841 45.6582C162.263 45.6582 162.567 45.4277 162.755 44.9668C162.942 44.5059 163.036 43.7559 163.036 42.7168C163.036 41.666 162.94 40.9121 162.749 40.4551C162.562 39.9941 162.259 39.7637 161.841 39.7637C161.415 39.7637 161.11 39.9941 160.927 40.4551C160.743 40.9121 160.651 41.666 160.651 42.7168ZM170.231 47H168.421V42.043L168.438 41.2285L168.468 40.3379C168.167 40.6387 167.958 40.8359 167.841 40.9297L166.856 41.7207L165.983 40.6309L168.743 38.4336H170.231V47ZM178.552 42.7168C178.552 44.2129 178.306 45.3203 177.813 46.0391C177.325 46.7578 176.571 47.1172 175.552 47.1172C174.563 47.1172 173.817 46.7461 173.313 46.0039C172.813 45.2617 172.563 44.166 172.563 42.7168C172.563 41.2051 172.808 40.0918 173.296 39.377C173.784 38.6582 174.536 38.2988 175.552 38.2988C176.54 38.2988 177.286 38.6738 177.79 39.4238C178.298 40.1738 178.552 41.2715 178.552 42.7168ZM174.362 42.7168C174.362 43.7676 174.452 44.5215 174.632 44.9785C174.815 45.4316 175.122 45.6582 175.552 45.6582C175.974 45.6582 176.278 45.4277 176.466 44.9668C176.653 44.5059 176.747 43.7559 176.747 42.7168C176.747 41.666 176.651 40.9121 176.46 40.4551C176.272 39.9941 175.97 39.7637 175.552 39.7637C175.126 39.7637 174.821 39.9941 174.638 40.4551C174.454 40.9121 174.362 41.666 174.362 42.7168ZM185.407 42.7168C185.407 44.2129 185.161 45.3203 184.669 46.0391C184.181 46.7578 183.427 47.1172 182.407 47.1172C181.419 47.1172 180.673 46.7461 180.169 46.0039C179.669 45.2617 179.419 44.166 179.419 42.7168C179.419 41.2051 179.663 40.0918 180.151 39.377C180.64 38.6582 181.392 38.2988 182.407 38.2988C183.396 38.2988 184.142 38.6738 184.646 39.4238C185.153 40.1738 185.407 41.2715 185.407 42.7168ZM181.218 42.7168C181.218 43.7676 181.308 44.5215 181.487 44.9785C181.671 45.4316 181.978 45.6582 182.407 45.6582C182.829 45.6582 183.134 45.4277 183.321 44.9668C183.509 44.5059 183.603 43.7559 183.603 42.7168C183.603 41.666 183.507 40.9121 183.315 40.4551C183.128 39.9941 182.825 39.7637 182.407 39.7637C181.981 39.7637 181.677 39.9941 181.493 40.4551C181.31 40.9121 181.218 41.666 181.218 42.7168ZM190.798 47H188.987V42.043L189.005 41.2285L189.034 40.3379C188.733 40.6387 188.524 40.8359 188.407 40.9297L187.423 41.7207L186.55 40.6309L189.31 38.4336H190.798V47ZM199.118 42.7168C199.118 44.2129 198.872 45.3203 198.38 46.0391C197.892 46.7578 197.138 47.1172 196.118 47.1172C195.13 47.1172 194.384 46.7461 193.88 46.0039C193.38 45.2617 193.13 44.166 193.13 42.7168C193.13 41.2051 193.374 40.0918 193.862 39.377C194.351 38.6582 195.103 38.2988 196.118 38.2988C197.106 38.2988 197.853 38.6738 198.356 39.4238C198.864 40.1738 199.118 41.2715 199.118 42.7168ZM194.929 42.7168C194.929 43.7676 195.019 44.5215 195.198 44.9785C195.382 45.4316 195.688 45.6582 196.118 45.6582C196.54 45.6582 196.845 45.4277 197.032 44.9668C197.22 44.5059 197.313 43.7559 197.313 42.7168C197.313 41.666 197.218 40.9121 197.026 40.4551C196.839 39.9941 196.536 39.7637 196.118 39.7637C195.692 39.7637 195.388 39.9941 195.204 40.4551C195.021 40.9121 194.929 41.666 194.929 42.7168ZM204.509 47H202.698V42.043L202.716 41.2285L202.745 40.3379C202.444 40.6387 202.235 40.8359 202.118 40.9297L201.134 41.7207L200.261 40.6309L203.021 38.4336H204.509V47ZM212.829 42.7168C212.829 44.2129 212.583 45.3203 212.091 46.0391C211.603 46.7578 210.849 47.1172 209.829 47.1172C208.841 47.1172 208.095 46.7461 207.591 46.0039C207.091 45.2617 206.841 44.166 206.841 42.7168C206.841 41.2051 207.085 40.0918 207.573 39.377C208.062 38.6582 208.813 38.2988 209.829 38.2988C210.817 38.2988 211.563 38.6738 212.067 39.4238C212.575 40.1738 212.829 41.2715 212.829 42.7168ZM208.64 42.7168C208.64 43.7676 208.729 44.5215 208.909 44.9785C209.093 45.4316 209.399 45.6582 209.829 45.6582C210.251 45.6582 210.556 45.4277 210.743 44.9668C210.931 44.5059 211.024 43.7559 211.024 42.7168C211.024 41.666 210.929 40.9121 210.737 40.4551C210.55 39.9941 210.247 39.7637 209.829 39.7637C209.403 39.7637 209.099 39.9941 208.915 40.4551C208.731 40.9121 208.64 41.666 208.64 42.7168ZM218.22 47H216.409V42.043L216.427 41.2285L216.456 40.3379C216.155 40.6387 215.946 40.8359 215.829 40.9297L214.845 41.7207L213.972 40.6309L216.731 38.4336H218.22V47ZM226.54 42.7168C226.54 44.2129 226.294 45.3203 225.802 46.0391C225.313 46.7578 224.56 47.1172 223.54 47.1172C222.552 47.1172 221.806 46.7461 221.302 46.0039C220.802 45.2617 220.552 44.166 220.552 42.7168C220.552 41.2051 220.796 40.0918 221.284 39.377C221.772 38.6582 222.524 38.2988 223.54 38.2988C224.528 38.2988 225.274 38.6738 225.778 39.4238C226.286 40.1738 226.54 41.2715 226.54 42.7168ZM222.351 42.7168C222.351 43.7676 222.44 44.5215 222.62 44.9785C222.804 45.4316 223.11 45.6582 223.54 45.6582C223.962 45.6582 224.267 45.4277 224.454 44.9668C224.642 44.5059 224.735 43.7559 224.735 42.7168C224.735 41.666 224.64 40.9121 224.448 40.4551C224.261 39.9941 223.958 39.7637 223.54 39.7637C223.114 39.7637 222.81 39.9941 222.626 40.4551C222.442 40.9121 222.351 41.666 222.351 42.7168ZM82.5752 58.7168C82.5752 60.2129 82.3291 61.3203 81.8369 62.0391C81.3486 62.7578 80.5947 63.1172 79.5752 63.1172C78.5869 63.1172 77.8408 62.7461 77.3369 62.0039C76.8369 61.2617 76.5869 60.166 76.5869 58.7168C76.5869 57.2051 76.8311 56.0918 77.3193 55.377C77.8076 54.6582 78.5596 54.2988 79.5752 54.2988C80.5635 54.2988 81.3096 54.6738 81.8135 55.4238C82.3213 56.1738 82.5752 57.2715 82.5752 58.7168ZM78.3857 58.7168C78.3857 59.7676 78.4756 60.5215 78.6553 60.9785C78.8389 61.4316 79.1455 61.6582 79.5752 61.6582C79.9971 61.6582 80.3018 61.4277 80.4893 60.9668C80.6768 60.5059 80.7705 59.7559 80.7705 58.7168C80.7705 57.666 80.6748 56.9121 80.4834 56.4551C80.2959 55.9941 79.9932 55.7637 79.5752 55.7637C79.1494 55.7637 78.8447 55.9941 78.6611 56.4551C78.4775 56.9121 78.3857 57.666 78.3857 58.7168ZM87.9658 63H86.1553V58.043L86.1729 57.2285L86.2021 56.3379C85.9014 56.6387 85.6924 56.8359 85.5752 56.9297L84.5908 57.7207L83.7178 56.6309L86.4775 54.4336H87.9658V63ZM96.2861 58.7168C96.2861 60.2129 96.04 61.3203 95.5479 62.0391C95.0596 62.7578 94.3057 63.1172 93.2861 63.1172C92.2979 63.1172 91.5518 62.7461 91.0479 62.0039C90.5479 61.2617 90.2979 60.166 90.2979 58.7168C90.2979 57.2051 90.542 56.0918 91.0303 55.377C91.5186 54.6582 92.2705 54.2988 93.2861 54.2988C94.2744 54.2988 95.0205 54.6738 95.5244 55.4238C96.0322 56.1738 96.2861 57.2715 96.2861 58.7168ZM92.0967 58.7168C92.0967 59.7676 92.1865 60.5215 92.3662 60.9785C92.5498 61.4316 92.8564 61.6582 93.2861 61.6582C93.708 61.6582 94.0127 61.4277 94.2002 60.9668C94.3877 60.5059 94.4814 59.7559 94.4814 58.7168C94.4814 57.666 94.3857 56.9121 94.1943 56.4551C94.0068 55.9941 93.7041 55.7637 93.2861 55.7637C92.8604 55.7637 92.5557 55.9941 92.3721 56.4551C92.1885 56.9121 92.0967 57.666 92.0967 58.7168ZM101.677 63H99.8662V58.043L99.8838 57.2285L99.9131 56.3379C99.6123 56.6387 99.4033 56.8359 99.2861 56.9297L98.3018 57.7207L97.4287 56.6309L100.188 54.4336H101.677V63ZM109.997 58.7168C109.997 60.2129 109.751 61.3203 109.259 62.0391C108.771 62.7578 108.017 63.1172 106.997 63.1172C106.009 63.1172 105.263 62.7461 104.759 62.0039C104.259 61.2617 104.009 60.166 104.009 58.7168C104.009 57.2051 104.253 56.0918 104.741 55.377C105.229 54.6582 105.981 54.2988 106.997 54.2988C107.985 54.2988 108.731 54.6738 109.235 55.4238C109.743 56.1738 109.997 57.2715 109.997 58.7168ZM105.808 58.7168C105.808 59.7676 105.897 60.5215 106.077 60.9785C106.261 61.4316 106.567 61.6582 106.997 61.6582C107.419 61.6582 107.724 61.4277 107.911 60.9668C108.099 60.5059 108.192 59.7559 108.192 58.7168C108.192 57.666 108.097 56.9121 107.905 56.4551C107.718 55.9941 107.415 55.7637 106.997 55.7637C106.571 55.7637 106.267 55.9941 106.083 56.4551C105.899 56.9121 105.808 57.666 105.808 58.7168ZM116.853 58.7168C116.853 60.2129 116.606 61.3203 116.114 62.0391C115.626 62.7578 114.872 63.1172 113.853 63.1172C112.864 63.1172 112.118 62.7461 111.614 62.0039C111.114 61.2617 110.864 60.166 110.864 58.7168C110.864 57.2051 111.108 56.0918 111.597 55.377C112.085 54.6582 112.837 54.2988 113.853 54.2988C114.841 54.2988 115.587 54.6738 116.091 55.4238C116.599 56.1738 116.853 57.2715 116.853 58.7168ZM112.663 58.7168C112.663 59.7676 112.753 60.5215 112.933 60.9785C113.116 61.4316 113.423 61.6582 113.853 61.6582C114.274 61.6582 114.579 61.4277 114.767 60.9668C114.954 60.5059 115.048 59.7559 115.048 58.7168C115.048 57.666 114.952 56.9121 114.761 56.4551C114.573 55.9941 114.271 55.7637 113.853 55.7637C113.427 55.7637 113.122 55.9941 112.938 56.4551C112.755 56.9121 112.663 57.666 112.663 58.7168ZM122.243 63H120.433V58.043L120.45 57.2285L120.479 56.3379C120.179 56.6387 119.97 56.8359 119.853 56.9297L118.868 57.7207L117.995 56.6309L120.755 54.4336H122.243V63ZM129.099 63H127.288V58.043L127.306 57.2285L127.335 56.3379C127.034 56.6387 126.825 56.8359 126.708 56.9297L125.724 57.7207L124.851 56.6309L127.61 54.4336H129.099V63ZM137.419 58.7168C137.419 60.2129 137.173 61.3203 136.681 62.0391C136.192 62.7578 135.438 63.1172 134.419 63.1172C133.431 63.1172 132.685 62.7461 132.181 62.0039C131.681 61.2617 131.431 60.166 131.431 58.7168C131.431 57.2051 131.675 56.0918 132.163 55.377C132.651 54.6582 133.403 54.2988 134.419 54.2988C135.407 54.2988 136.153 54.6738 136.657 55.4238C137.165 56.1738 137.419 57.2715 137.419 58.7168ZM133.229 58.7168C133.229 59.7676 133.319 60.5215 133.499 60.9785C133.683 61.4316 133.989 61.6582 134.419 61.6582C134.841 61.6582 135.146 61.4277 135.333 60.9668C135.521 60.5059 135.614 59.7559 135.614 58.7168C135.614 57.666 135.519 56.9121 135.327 56.4551C135.14 55.9941 134.837 55.7637 134.419 55.7637C133.993 55.7637 133.688 55.9941 133.505 56.4551C133.321 56.9121 133.229 57.666 133.229 58.7168ZM142.81 63H140.999V58.043L141.017 57.2285L141.046 56.3379C140.745 56.6387 140.536 56.8359 140.419 56.9297L139.435 57.7207L138.562 56.6309L141.321 54.4336H142.81V63ZM151.13 58.7168C151.13 60.2129 150.884 61.3203 150.392 62.0391C149.903 62.7578 149.149 63.1172 148.13 63.1172C147.142 63.1172 146.396 62.7461 145.892 62.0039C145.392 61.2617 145.142 60.166 145.142 58.7168C145.142 57.2051 145.386 56.0918 145.874 55.377C146.362 54.6582 147.114 54.2988 148.13 54.2988C149.118 54.2988 149.864 54.6738 150.368 55.4238C150.876 56.1738 151.13 57.2715 151.13 58.7168ZM146.94 58.7168C146.94 59.7676 147.03 60.5215 147.21 60.9785C147.394 61.4316 147.7 61.6582 148.13 61.6582C148.552 61.6582 148.856 61.4277 149.044 60.9668C149.231 60.5059 149.325 59.7559 149.325 58.7168C149.325 57.666 149.229 56.9121 149.038 56.4551C148.851 55.9941 148.548 55.7637 148.13 55.7637C147.704 55.7637 147.399 55.9941 147.216 56.4551C147.032 56.9121 146.94 57.666 146.94 58.7168ZM156.521 63H154.71V58.043L154.728 57.2285L154.757 56.3379C154.456 56.6387 154.247 56.8359 154.13 56.9297L153.146 57.7207L152.272 56.6309L155.032 54.4336H156.521V63ZM164.841 58.7168C164.841 60.2129 164.595 61.3203 164.103 62.0391C163.614 62.7578 162.86 63.1172 161.841 63.1172C160.853 63.1172 160.106 62.7461 159.603 62.0039C159.103 61.2617 158.853 60.166 158.853 58.7168C158.853 57.2051 159.097 56.0918 159.585 55.377C160.073 54.6582 160.825 54.2988 161.841 54.2988C162.829 54.2988 163.575 54.6738 164.079 55.4238C164.587 56.1738 164.841 57.2715 164.841 58.7168ZM160.651 58.7168C160.651 59.7676 160.741 60.5215 160.921 60.9785C161.104 61.4316 161.411 61.6582 161.841 61.6582C162.263 61.6582 162.567 61.4277 162.755 60.9668C162.942 60.5059 163.036 59.7559 163.036 58.7168C163.036 57.666 162.94 56.9121 162.749 56.4551C162.562 55.9941 162.259 55.7637 161.841 55.7637C161.415 55.7637 161.11 55.9941 160.927 56.4551C160.743 56.9121 160.651 57.666 160.651 58.7168ZM171.696 58.7168C171.696 60.2129 171.45 61.3203 170.958 62.0391C170.47 62.7578 169.716 63.1172 168.696 63.1172C167.708 63.1172 166.962 62.7461 166.458 62.0039C165.958 61.2617 165.708 60.166 165.708 58.7168C165.708 57.2051 165.952 56.0918 166.44 55.377C166.929 54.6582 167.681 54.2988 168.696 54.2988C169.685 54.2988 170.431 54.6738 170.935 55.4238C171.442 56.1738 171.696 57.2715 171.696 58.7168ZM167.507 58.7168C167.507 59.7676 167.597 60.5215 167.776 60.9785C167.96 61.4316 168.267 61.6582 168.696 61.6582C169.118 61.6582 169.423 61.4277 169.61 60.9668C169.798 60.5059 169.892 59.7559 169.892 58.7168C169.892 57.666 169.796 56.9121 169.604 56.4551C169.417 55.9941 169.114 55.7637 168.696 55.7637C168.271 55.7637 167.966 55.9941 167.782 56.4551C167.599 56.9121 167.507 57.666 167.507 58.7168ZM177.087 63H175.276V58.043L175.294 57.2285L175.323 56.3379C175.022 56.6387 174.813 56.8359 174.696 56.9297L173.712 57.7207L172.839 56.6309L175.599 54.4336H177.087V63ZM183.942 63H182.132V58.043L182.149 57.2285L182.179 56.3379C181.878 56.6387 181.669 56.8359 181.552 56.9297L180.567 57.7207L179.694 56.6309L182.454 54.4336H183.942V63ZM190.798 63H188.987V58.043L189.005 57.2285L189.034 56.3379C188.733 56.6387 188.524 56.8359 188.407 56.9297L187.423 57.7207L186.55 56.6309L189.31 54.4336H190.798V63ZM197.653 63H195.843V58.043L195.86 57.2285L195.89 56.3379C195.589 56.6387 195.38 56.8359 195.263 56.9297L194.278 57.7207L193.405 56.6309L196.165 54.4336H197.653V63ZM205.974 58.7168C205.974 60.2129 205.728 61.3203 205.235 62.0391C204.747 62.7578 203.993 63.1172 202.974 63.1172C201.985 63.1172 201.239 62.7461 200.735 62.0039C200.235 61.2617 199.985 60.166 199.985 58.7168C199.985 57.2051 200.229 56.0918 200.718 55.377C201.206 54.6582 201.958 54.2988 202.974 54.2988C203.962 54.2988 204.708 54.6738 205.212 55.4238C205.72 56.1738 205.974 57.2715 205.974 58.7168ZM201.784 58.7168C201.784 59.7676 201.874 60.5215 202.054 60.9785C202.237 61.4316 202.544 61.6582 202.974 61.6582C203.396 61.6582 203.7 61.4277 203.888 60.9668C204.075 60.5059 204.169 59.7559 204.169 58.7168C204.169 57.666 204.073 56.9121 203.882 56.4551C203.694 55.9941 203.392 55.7637 202.974 55.7637C202.548 55.7637 202.243 55.9941 202.06 56.4551C201.876 56.9121 201.784 57.666 201.784 58.7168ZM211.364 63H209.554V58.043L209.571 57.2285L209.601 56.3379C209.3 56.6387 209.091 56.8359 208.974 56.9297L207.989 57.7207L207.116 56.6309L209.876 54.4336H211.364V63ZM219.685 58.7168C219.685 60.2129 219.438 61.3203 218.946 62.0391C218.458 62.7578 217.704 63.1172 216.685 63.1172C215.696 63.1172 214.95 62.7461 214.446 62.0039C213.946 61.2617 213.696 60.166 213.696 58.7168C213.696 57.2051 213.94 56.0918 214.429 55.377C214.917 54.6582 215.669 54.2988 216.685 54.2988C217.673 54.2988 218.419 54.6738 218.923 55.4238C219.431 56.1738 219.685 57.2715 219.685 58.7168ZM215.495 58.7168C215.495 59.7676 215.585 60.5215 215.765 60.9785C215.948 61.4316 216.255 61.6582 216.685 61.6582C217.106 61.6582 217.411 61.4277 217.599 60.9668C217.786 60.5059 217.88 59.7559 217.88 58.7168C217.88 57.666 217.784 56.9121 217.593 56.4551C217.405 55.9941 217.103 55.7637 216.685 55.7637C216.259 55.7637 215.954 55.9941 215.771 56.4551C215.587 56.9121 215.495 57.666 215.495 58.7168ZM226.54 58.7168C226.54 60.2129 226.294 61.3203 225.802 62.0391C225.313 62.7578 224.56 63.1172 223.54 63.1172C222.552 63.1172 221.806 62.7461 221.302 62.0039C220.802 61.2617 220.552 60.166 220.552 58.7168C220.552 57.2051 220.796 56.0918 221.284 55.377C221.772 54.6582 222.524 54.2988 223.54 54.2988C224.528 54.2988 225.274 54.6738 225.778 55.4238C226.286 56.1738 226.54 57.2715 226.54 58.7168ZM222.351 58.7168C222.351 59.7676 222.44 60.5215 222.62 60.9785C222.804 61.4316 223.11 61.6582 223.54 61.6582C223.962 61.6582 224.267 61.4277 224.454 60.9668C224.642 60.5059 224.735 59.7559 224.735 58.7168C224.735 57.666 224.64 56.9121 224.448 56.4551C224.261 55.9941 223.958 55.7637 223.54 55.7637C223.114 55.7637 222.81 55.9941 222.626 56.4551C222.442 56.9121 222.351 57.666 222.351 58.7168ZM81.1104 79H79.2998V74.043L79.3174 73.2285L79.3467 72.3379C79.0459 72.6387 78.8369 72.8359 78.7197 72.9297L77.7354 73.7207L76.8623 72.6309L79.6221 70.4336H81.1104V79ZM89.4307 74.7168C89.4307 76.2129 89.1846 77.3203 88.6924 78.0391C88.2041 78.7578 87.4502 79.1172 86.4307 79.1172C85.4424 79.1172 84.6963 78.7461 84.1924 78.0039C83.6924 77.2617 83.4424 76.166 83.4424 74.7168C83.4424 73.2051 83.6865 72.0918 84.1748 71.377C84.6631 70.6582 85.415 70.2988 86.4307 70.2988C87.4189 70.2988 88.165 70.6738 88.6689 71.4238C89.1768 72.1738 89.4307 73.2715 89.4307 74.7168ZM85.2412 74.7168C85.2412 75.7676 85.3311 76.5215 85.5107 76.9785C85.6943 77.4316 86.001 77.6582 86.4307 77.6582C86.8525 77.6582 87.1572 77.4277 87.3447 76.9668C87.5322 76.5059 87.626 75.7559 87.626 74.7168C87.626 73.666 87.5303 72.9121 87.3389 72.4551C87.1514 71.9941 86.8486 71.7637 86.4307 71.7637C86.0049 71.7637 85.7002 71.9941 85.5166 72.4551C85.333 72.9121 85.2412 73.666 85.2412 74.7168ZM96.2861 74.7168C96.2861 76.2129 96.04 77.3203 95.5479 78.0391C95.0596 78.7578 94.3057 79.1172 93.2861 79.1172C92.2979 79.1172 91.5518 78.7461 91.0479 78.0039C90.5479 77.2617 90.2979 76.166 90.2979 74.7168C90.2979 73.2051 90.542 72.0918 91.0303 71.377C91.5186 70.6582 92.2705 70.2988 93.2861 70.2988C94.2744 70.2988 95.0205 70.6738 95.5244 71.4238C96.0322 72.1738 96.2861 73.2715 96.2861 74.7168ZM92.0967 74.7168C92.0967 75.7676 92.1865 76.5215 92.3662 76.9785C92.5498 77.4316 92.8564 77.6582 93.2861 77.6582C93.708 77.6582 94.0127 77.4277 94.2002 76.9668C94.3877 76.5059 94.4814 75.7559 94.4814 74.7168C94.4814 73.666 94.3857 72.9121 94.1943 72.4551C94.0068 71.9941 93.7041 71.7637 93.2861 71.7637C92.8604 71.7637 92.5557 71.9941 92.3721 72.4551C92.1885 72.9121 92.0967 73.666 92.0967 74.7168ZM101.677 79H99.8662V74.043L99.8838 73.2285L99.9131 72.3379C99.6123 72.6387 99.4033 72.8359 99.2861 72.9297L98.3018 73.7207L97.4287 72.6309L100.188 70.4336H101.677V79ZM109.997 74.7168C109.997 76.2129 109.751 77.3203 109.259 78.0391C108.771 78.7578 108.017 79.1172 106.997 79.1172C106.009 79.1172 105.263 78.7461 104.759 78.0039C104.259 77.2617 104.009 76.166 104.009 74.7168C104.009 73.2051 104.253 72.0918 104.741 71.377C105.229 70.6582 105.981 70.2988 106.997 70.2988C107.985 70.2988 108.731 70.6738 109.235 71.4238C109.743 72.1738 109.997 73.2715 109.997 74.7168ZM105.808 74.7168C105.808 75.7676 105.897 76.5215 106.077 76.9785C106.261 77.4316 106.567 77.6582 106.997 77.6582C107.419 77.6582 107.724 77.4277 107.911 76.9668C108.099 76.5059 108.192 75.7559 108.192 74.7168C108.192 73.666 108.097 72.9121 107.905 72.4551C107.718 71.9941 107.415 71.7637 106.997 71.7637C106.571 71.7637 106.267 71.9941 106.083 72.4551C105.899 72.9121 105.808 73.666 105.808 74.7168ZM115.388 79H113.577V74.043L113.595 73.2285L113.624 72.3379C113.323 72.6387 113.114 72.8359 112.997 72.9297L112.013 73.7207L111.14 72.6309L113.899 70.4336H115.388V79ZM123.708 74.7168C123.708 76.2129 123.462 77.3203 122.97 78.0391C122.481 78.7578 121.728 79.1172 120.708 79.1172C119.72 79.1172 118.974 78.7461 118.47 78.0039C117.97 77.2617 117.72 76.166 117.72 74.7168C117.72 73.2051 117.964 72.0918 118.452 71.377C118.94 70.6582 119.692 70.2988 120.708 70.2988C121.696 70.2988 122.442 70.6738 122.946 71.4238C123.454 72.1738 123.708 73.2715 123.708 74.7168ZM119.519 74.7168C119.519 75.7676 119.608 76.5215 119.788 76.9785C119.972 77.4316 120.278 77.6582 120.708 77.6582C121.13 77.6582 121.435 77.4277 121.622 76.9668C121.81 76.5059 121.903 75.7559 121.903 74.7168C121.903 73.666 121.808 72.9121 121.616 72.4551C121.429 71.9941 121.126 71.7637 120.708 71.7637C120.282 71.7637 119.978 71.9941 119.794 72.4551C119.61 72.9121 119.519 73.666 119.519 74.7168ZM130.563 74.7168C130.563 76.2129 130.317 77.3203 129.825 78.0391C129.337 78.7578 128.583 79.1172 127.563 79.1172C126.575 79.1172 125.829 78.7461 125.325 78.0039C124.825 77.2617 124.575 76.166 124.575 74.7168C124.575 73.2051 124.819 72.0918 125.308 71.377C125.796 70.6582 126.548 70.2988 127.563 70.2988C128.552 70.2988 129.298 70.6738 129.802 71.4238C130.31 72.1738 130.563 73.2715 130.563 74.7168ZM126.374 74.7168C126.374 75.7676 126.464 76.5215 126.644 76.9785C126.827 77.4316 127.134 77.6582 127.563 77.6582C127.985 77.6582 128.29 77.4277 128.478 76.9668C128.665 76.5059 128.759 75.7559 128.759 74.7168C128.759 73.666 128.663 72.9121 128.472 72.4551C128.284 71.9941 127.981 71.7637 127.563 71.7637C127.138 71.7637 126.833 71.9941 126.649 72.4551C126.466 72.9121 126.374 73.666 126.374 74.7168ZM135.954 79H134.144V74.043L134.161 73.2285L134.19 72.3379C133.89 72.6387 133.681 72.8359 133.563 72.9297L132.579 73.7207L131.706 72.6309L134.466 70.4336H135.954V79ZM144.274 74.7168C144.274 76.2129 144.028 77.3203 143.536 78.0391C143.048 78.7578 142.294 79.1172 141.274 79.1172C140.286 79.1172 139.54 78.7461 139.036 78.0039C138.536 77.2617 138.286 76.166 138.286 74.7168C138.286 73.2051 138.53 72.0918 139.019 71.377C139.507 70.6582 140.259 70.2988 141.274 70.2988C142.263 70.2988 143.009 70.6738 143.513 71.4238C144.021 72.1738 144.274 73.2715 144.274 74.7168ZM140.085 74.7168C140.085 75.7676 140.175 76.5215 140.354 76.9785C140.538 77.4316 140.845 77.6582 141.274 77.6582C141.696 77.6582 142.001 77.4277 142.188 76.9668C142.376 76.5059 142.47 75.7559 142.47 74.7168C142.47 73.666 142.374 72.9121 142.183 72.4551C141.995 71.9941 141.692 71.7637 141.274 71.7637C140.849 71.7637 140.544 71.9941 140.36 72.4551C140.177 72.9121 140.085 73.666 140.085 74.7168ZM149.665 79H147.854V74.043L147.872 73.2285L147.901 72.3379C147.601 72.6387 147.392 72.8359 147.274 72.9297L146.29 73.7207L145.417 72.6309L148.177 70.4336H149.665V79ZM157.985 74.7168C157.985 76.2129 157.739 77.3203 157.247 78.0391C156.759 78.7578 156.005 79.1172 154.985 79.1172C153.997 79.1172 153.251 78.7461 152.747 78.0039C152.247 77.2617 151.997 76.166 151.997 74.7168C151.997 73.2051 152.241 72.0918 152.729 71.377C153.218 70.6582 153.97 70.2988 154.985 70.2988C155.974 70.2988 156.72 70.6738 157.224 71.4238C157.731 72.1738 157.985 73.2715 157.985 74.7168ZM153.796 74.7168C153.796 75.7676 153.886 76.5215 154.065 76.9785C154.249 77.4316 154.556 77.6582 154.985 77.6582C155.407 77.6582 155.712 77.4277 155.899 76.9668C156.087 76.5059 156.181 75.7559 156.181 74.7168C156.181 73.666 156.085 72.9121 155.894 72.4551C155.706 71.9941 155.403 71.7637 154.985 71.7637C154.56 71.7637 154.255 71.9941 154.071 72.4551C153.888 72.9121 153.796 73.666 153.796 74.7168ZM164.841 74.7168C164.841 76.2129 164.595 77.3203 164.103 78.0391C163.614 78.7578 162.86 79.1172 161.841 79.1172C160.853 79.1172 160.106 78.7461 159.603 78.0039C159.103 77.2617 158.853 76.166 158.853 74.7168C158.853 73.2051 159.097 72.0918 159.585 71.377C160.073 70.6582 160.825 70.2988 161.841 70.2988C162.829 70.2988 163.575 70.6738 164.079 71.4238C164.587 72.1738 164.841 73.2715 164.841 74.7168ZM160.651 74.7168C160.651 75.7676 160.741 76.5215 160.921 76.9785C161.104 77.4316 161.411 77.6582 161.841 77.6582C162.263 77.6582 162.567 77.4277 162.755 76.9668C162.942 76.5059 163.036 75.7559 163.036 74.7168C163.036 73.666 162.94 72.9121 162.749 72.4551C162.562 71.9941 162.259 71.7637 161.841 71.7637C161.415 71.7637 161.11 71.9941 160.927 72.4551C160.743 72.9121 160.651 73.666 160.651 74.7168ZM170.231 79H168.421V74.043L168.438 73.2285L168.468 72.3379C168.167 72.6387 167.958 72.8359 167.841 72.9297L166.856 73.7207L165.983 72.6309L168.743 70.4336H170.231V79ZM178.552 74.7168C178.552 76.2129 178.306 77.3203 177.813 78.0391C177.325 78.7578 176.571 79.1172 175.552 79.1172C174.563 79.1172 173.817 78.7461 173.313 78.0039C172.813 77.2617 172.563 76.166 172.563 74.7168C172.563 73.2051 172.808 72.0918 173.296 71.377C173.784 70.6582 174.536 70.2988 175.552 70.2988C176.54 70.2988 177.286 70.6738 177.79 71.4238C178.298 72.1738 178.552 73.2715 178.552 74.7168ZM174.362 74.7168C174.362 75.7676 174.452 76.5215 174.632 76.9785C174.815 77.4316 175.122 77.6582 175.552 77.6582C175.974 77.6582 176.278 77.4277 176.466 76.9668C176.653 76.5059 176.747 75.7559 176.747 74.7168C176.747 73.666 176.651 72.9121 176.46 72.4551C176.272 71.9941 175.97 71.7637 175.552 71.7637C175.126 71.7637 174.821 71.9941 174.638 72.4551C174.454 72.9121 174.362 73.666 174.362 74.7168ZM183.942 79H182.132V74.043L182.149 73.2285L182.179 72.3379C181.878 72.6387 181.669 72.8359 181.552 72.9297L180.567 73.7207L179.694 72.6309L182.454 70.4336H183.942V79ZM192.263 74.7168C192.263 76.2129 192.017 77.3203 191.524 78.0391C191.036 78.7578 190.282 79.1172 189.263 79.1172C188.274 79.1172 187.528 78.7461 187.024 78.0039C186.524 77.2617 186.274 76.166 186.274 74.7168C186.274 73.2051 186.519 72.0918 187.007 71.377C187.495 70.6582 188.247 70.2988 189.263 70.2988C190.251 70.2988 190.997 70.6738 191.501 71.4238C192.009 72.1738 192.263 73.2715 192.263 74.7168ZM188.073 74.7168C188.073 75.7676 188.163 76.5215 188.343 76.9785C188.526 77.4316 188.833 77.6582 189.263 77.6582C189.685 77.6582 189.989 77.4277 190.177 76.9668C190.364 76.5059 190.458 75.7559 190.458 74.7168C190.458 73.666 190.362 72.9121 190.171 72.4551C189.983 71.9941 189.681 71.7637 189.263 71.7637C188.837 71.7637 188.532 71.9941 188.349 72.4551C188.165 72.9121 188.073 73.666 188.073 74.7168ZM197.653 79H195.843V74.043L195.86 73.2285L195.89 72.3379C195.589 72.6387 195.38 72.8359 195.263 72.9297L194.278 73.7207L193.405 72.6309L196.165 70.4336H197.653V79ZM205.974 74.7168C205.974 76.2129 205.728 77.3203 205.235 78.0391C204.747 78.7578 203.993 79.1172 202.974 79.1172C201.985 79.1172 201.239 78.7461 200.735 78.0039C200.235 77.2617 199.985 76.166 199.985 74.7168C199.985 73.2051 200.229 72.0918 200.718 71.377C201.206 70.6582 201.958 70.2988 202.974 70.2988C203.962 70.2988 204.708 70.6738 205.212 71.4238C205.72 72.1738 205.974 73.2715 205.974 74.7168ZM201.784 74.7168C201.784 75.7676 201.874 76.5215 202.054 76.9785C202.237 77.4316 202.544 77.6582 202.974 77.6582C203.396 77.6582 203.7 77.4277 203.888 76.9668C204.075 76.5059 204.169 75.7559 204.169 74.7168C204.169 73.666 204.073 72.9121 203.882 72.4551C203.694 71.9941 203.392 71.7637 202.974 71.7637C202.548 71.7637 202.243 71.9941 202.06 72.4551C201.876 72.9121 201.784 73.666 201.784 74.7168ZM212.829 74.7168C212.829 76.2129 212.583 77.3203 212.091 78.0391C211.603 78.7578 210.849 79.1172 209.829 79.1172C208.841 79.1172 208.095 78.7461 207.591 78.0039C207.091 77.2617 206.841 76.166 206.841 74.7168C206.841 73.2051 207.085 72.0918 207.573 71.377C208.062 70.6582 208.813 70.2988 209.829 70.2988C210.817 70.2988 211.563 70.6738 212.067 71.4238C212.575 72.1738 212.829 73.2715 212.829 74.7168ZM208.64 74.7168C208.64 75.7676 208.729 76.5215 208.909 76.9785C209.093 77.4316 209.399 77.6582 209.829 77.6582C210.251 77.6582 210.556 77.4277 210.743 76.9668C210.931 76.5059 211.024 75.7559 211.024 74.7168C211.024 73.666 210.929 72.9121 210.737 72.4551C210.55 71.9941 210.247 71.7637 209.829 71.7637C209.403 71.7637 209.099 71.9941 208.915 72.4551C208.731 72.9121 208.64 73.666 208.64 74.7168ZM218.22 79H216.409V74.043L216.427 73.2285L216.456 72.3379C216.155 72.6387 215.946 72.8359 215.829 72.9297L214.845 73.7207L213.972 72.6309L216.731 70.4336H218.22V79ZM226.54 74.7168C226.54 76.2129 226.294 77.3203 225.802 78.0391C225.313 78.7578 224.56 79.1172 223.54 79.1172C222.552 79.1172 221.806 78.7461 221.302 78.0039C220.802 77.2617 220.552 76.166 220.552 74.7168C220.552 73.2051 220.796 72.0918 221.284 71.377C221.772 70.6582 222.524 70.2988 223.54 70.2988C224.528 70.2988 225.274 70.6738 225.778 71.4238C226.286 72.1738 226.54 73.2715 226.54 74.7168ZM222.351 74.7168C222.351 75.7676 222.44 76.5215 222.62 76.9785C222.804 77.4316 223.11 77.6582 223.54 77.6582C223.962 77.6582 224.267 77.4277 224.454 76.9668C224.642 76.5059 224.735 75.7559 224.735 74.7168C224.735 73.666 224.64 72.9121 224.448 72.4551C224.261 71.9941 223.958 71.7637 223.54 71.7637C223.114 71.7637 222.81 71.9941 222.626 72.4551C222.442 72.9121 222.351 73.666 222.351 74.7168ZM81.1104 95H79.2998V90.043L79.3174 89.2285L79.3467 88.3379C79.0459 88.6387 78.8369 88.8359 78.7197 88.9297L77.7354 89.7207L76.8623 88.6309L79.6221 86.4336H81.1104V95ZM89.4307 90.7168C89.4307 92.2129 89.1846 93.3203 88.6924 94.0391C88.2041 94.7578 87.4502 95.1172 86.4307 95.1172C85.4424 95.1172 84.6963 94.7461 84.1924 94.0039C83.6924 93.2617 83.4424 92.166 83.4424 90.7168C83.4424 89.2051 83.6865 88.0918 84.1748 87.377C84.6631 86.6582 85.415 86.2988 86.4307 86.2988C87.4189 86.2988 88.165 86.6738 88.6689 87.4238C89.1768 88.1738 89.4307 89.2715 89.4307 90.7168ZM85.2412 90.7168C85.2412 91.7676 85.3311 92.5215 85.5107 92.9785C85.6943 93.4316 86.001 93.6582 86.4307 93.6582C86.8525 93.6582 87.1572 93.4277 87.3447 92.9668C87.5322 92.5059 87.626 91.7559 87.626 90.7168C87.626 89.666 87.5303 88.9121 87.3389 88.4551C87.1514 87.9941 86.8486 87.7637 86.4307 87.7637C86.0049 87.7637 85.7002 87.9941 85.5166 88.4551C85.333 88.9121 85.2412 89.666 85.2412 90.7168ZM94.8213 95H93.0107V90.043L93.0283 89.2285L93.0576 88.3379C92.7568 88.6387 92.5479 88.8359 92.4307 88.9297L91.4463 89.7207L90.5732 88.6309L93.333 86.4336H94.8213V95ZM103.142 90.7168C103.142 92.2129 102.896 93.3203 102.403 94.0391C101.915 94.7578 101.161 95.1172 100.142 95.1172C99.1533 95.1172 98.4072 94.7461 97.9033 94.0039C97.4033 93.2617 97.1533 92.166 97.1533 90.7168C97.1533 89.2051 97.3975 88.0918 97.8857 87.377C98.374 86.6582 99.126 86.2988 100.142 86.2988C101.13 86.2988 101.876 86.6738 102.38 87.4238C102.888 88.1738 103.142 89.2715 103.142 90.7168ZM98.9521 90.7168C98.9521 91.7676 99.042 92.5215 99.2217 92.9785C99.4053 93.4316 99.7119 93.6582 100.142 93.6582C100.563 93.6582 100.868 93.4277 101.056 92.9668C101.243 92.5059 101.337 91.7559 101.337 90.7168C101.337 89.666 101.241 88.9121 101.05 88.4551C100.862 87.9941 100.56 87.7637 100.142 87.7637C99.7158 87.7637 99.4111 87.9941 99.2275 88.4551C99.0439 88.9121 98.9521 89.666 98.9521 90.7168ZM108.532 95H106.722V90.043L106.739 89.2285L106.769 88.3379C106.468 88.6387 106.259 88.8359 106.142 88.9297L105.157 89.7207L104.284 88.6309L107.044 86.4336H108.532V95ZM116.853 90.7168C116.853 92.2129 116.606 93.3203 116.114 94.0391C115.626 94.7578 114.872 95.1172 113.853 95.1172C112.864 95.1172 112.118 94.7461 111.614 94.0039C111.114 93.2617 110.864 92.166 110.864 90.7168C110.864 89.2051 111.108 88.0918 111.597 87.377C112.085 86.6582 112.837 86.2988 113.853 86.2988C114.841 86.2988 115.587 86.6738 116.091 87.4238C116.599 88.1738 116.853 89.2715 116.853 90.7168ZM112.663 90.7168C112.663 91.7676 112.753 92.5215 112.933 92.9785C113.116 93.4316 113.423 93.6582 113.853 93.6582C114.274 93.6582 114.579 93.4277 114.767 92.9668C114.954 92.5059 115.048 91.7559 115.048 90.7168C115.048 89.666 114.952 88.9121 114.761 88.4551C114.573 87.9941 114.271 87.7637 113.853 87.7637C113.427 87.7637 113.122 87.9941 112.938 88.4551C112.755 88.9121 112.663 89.666 112.663 90.7168ZM122.243 95H120.433V90.043L120.45 89.2285L120.479 88.3379C120.179 88.6387 119.97 88.8359 119.853 88.9297L118.868 89.7207L117.995 88.6309L120.755 86.4336H122.243V95ZM130.563 90.7168C130.563 92.2129 130.317 93.3203 129.825 94.0391C129.337 94.7578 128.583 95.1172 127.563 95.1172C126.575 95.1172 125.829 94.7461 125.325 94.0039C124.825 93.2617 124.575 92.166 124.575 90.7168C124.575 89.2051 124.819 88.0918 125.308 87.377C125.796 86.6582 126.548 86.2988 127.563 86.2988C128.552 86.2988 129.298 86.6738 129.802 87.4238C130.31 88.1738 130.563 89.2715 130.563 90.7168ZM126.374 90.7168C126.374 91.7676 126.464 92.5215 126.644 92.9785C126.827 93.4316 127.134 93.6582 127.563 93.6582C127.985 93.6582 128.29 93.4277 128.478 92.9668C128.665 92.5059 128.759 91.7559 128.759 90.7168C128.759 89.666 128.663 88.9121 128.472 88.4551C128.284 87.9941 127.981 87.7637 127.563 87.7637C127.138 87.7637 126.833 87.9941 126.649 88.4551C126.466 88.9121 126.374 89.666 126.374 90.7168ZM135.954 95H134.144V90.043L134.161 89.2285L134.19 88.3379C133.89 88.6387 133.681 88.8359 133.563 88.9297L132.579 89.7207L131.706 88.6309L134.466 86.4336H135.954V95ZM144.274 90.7168C144.274 92.2129 144.028 93.3203 143.536 94.0391C143.048 94.7578 142.294 95.1172 141.274 95.1172C140.286 95.1172 139.54 94.7461 139.036 94.0039C138.536 93.2617 138.286 92.166 138.286 90.7168C138.286 89.2051 138.53 88.0918 139.019 87.377C139.507 86.6582 140.259 86.2988 141.274 86.2988C142.263 86.2988 143.009 86.6738 143.513 87.4238C144.021 88.1738 144.274 89.2715 144.274 90.7168ZM140.085 90.7168C140.085 91.7676 140.175 92.5215 140.354 92.9785C140.538 93.4316 140.845 93.6582 141.274 93.6582C141.696 93.6582 142.001 93.4277 142.188 92.9668C142.376 92.5059 142.47 91.7559 142.47 90.7168C142.47 89.666 142.374 88.9121 142.183 88.4551C141.995 87.9941 141.692 87.7637 141.274 87.7637C140.849 87.7637 140.544 87.9941 140.36 88.4551C140.177 88.9121 140.085 89.666 140.085 90.7168ZM149.665 95H147.854V90.043L147.872 89.2285L147.901 88.3379C147.601 88.6387 147.392 88.8359 147.274 88.9297L146.29 89.7207L145.417 88.6309L148.177 86.4336H149.665V95ZM157.985 90.7168C157.985 92.2129 157.739 93.3203 157.247 94.0391C156.759 94.7578 156.005 95.1172 154.985 95.1172C153.997 95.1172 153.251 94.7461 152.747 94.0039C152.247 93.2617 151.997 92.166 151.997 90.7168C151.997 89.2051 152.241 88.0918 152.729 87.377C153.218 86.6582 153.97 86.2988 154.985 86.2988C155.974 86.2988 156.72 86.6738 157.224 87.4238C157.731 88.1738 157.985 89.2715 157.985 90.7168ZM153.796 90.7168C153.796 91.7676 153.886 92.5215 154.065 92.9785C154.249 93.4316 154.556 93.6582 154.985 93.6582C155.407 93.6582 155.712 93.4277 155.899 92.9668C156.087 92.5059 156.181 91.7559 156.181 90.7168C156.181 89.666 156.085 88.9121 155.894 88.4551C155.706 87.9941 155.403 87.7637 154.985 87.7637C154.56 87.7637 154.255 87.9941 154.071 88.4551C153.888 88.9121 153.796 89.666 153.796 90.7168ZM163.376 95H161.565V90.043L161.583 89.2285L161.612 88.3379C161.312 88.6387 161.103 88.8359 160.985 88.9297L160.001 89.7207L159.128 88.6309L161.888 86.4336H163.376V95ZM171.696 90.7168C171.696 92.2129 171.45 93.3203 170.958 94.0391C170.47 94.7578 169.716 95.1172 168.696 95.1172C167.708 95.1172 166.962 94.7461 166.458 94.0039C165.958 93.2617 165.708 92.166 165.708 90.7168C165.708 89.2051 165.952 88.0918 166.44 87.377C166.929 86.6582 167.681 86.2988 168.696 86.2988C169.685 86.2988 170.431 86.6738 170.935 87.4238C171.442 88.1738 171.696 89.2715 171.696 90.7168ZM167.507 90.7168C167.507 91.7676 167.597 92.5215 167.776 92.9785C167.96 93.4316 168.267 93.6582 168.696 93.6582C169.118 93.6582 169.423 93.4277 169.61 92.9668C169.798 92.5059 169.892 91.7559 169.892 90.7168C169.892 89.666 169.796 88.9121 169.604 88.4551C169.417 87.9941 169.114 87.7637 168.696 87.7637C168.271 87.7637 167.966 87.9941 167.782 88.4551C167.599 88.9121 167.507 89.666 167.507 90.7168ZM178.552 90.7168C178.552 92.2129 178.306 93.3203 177.813 94.0391C177.325 94.7578 176.571 95.1172 175.552 95.1172C174.563 95.1172 173.817 94.7461 173.313 94.0039C172.813 93.2617 172.563 92.166 172.563 90.7168C172.563 89.2051 172.808 88.0918 173.296 87.377C173.784 86.6582 174.536 86.2988 175.552 86.2988C176.54 86.2988 177.286 86.6738 177.79 87.4238C178.298 88.1738 178.552 89.2715 178.552 90.7168ZM174.362 90.7168C174.362 91.7676 174.452 92.5215 174.632 92.9785C174.815 93.4316 175.122 93.6582 175.552 93.6582C175.974 93.6582 176.278 93.4277 176.466 92.9668C176.653 92.5059 176.747 91.7559 176.747 90.7168C176.747 89.666 176.651 88.9121 176.46 88.4551C176.272 87.9941 175.97 87.7637 175.552 87.7637C175.126 87.7637 174.821 87.9941 174.638 88.4551C174.454 88.9121 174.362 89.666 174.362 90.7168ZM183.942 95H182.132V90.043L182.149 89.2285L182.179 88.3379C181.878 88.6387 181.669 88.8359 181.552 88.9297L180.567 89.7207L179.694 88.6309L182.454 86.4336H183.942V95ZM192.263 90.7168C192.263 92.2129 192.017 93.3203 191.524 94.0391C191.036 94.7578 190.282 95.1172 189.263 95.1172C188.274 95.1172 187.528 94.7461 187.024 94.0039C186.524 93.2617 186.274 92.166 186.274 90.7168C186.274 89.2051 186.519 88.0918 187.007 87.377C187.495 86.6582 188.247 86.2988 189.263 86.2988C190.251 86.2988 190.997 86.6738 191.501 87.4238C192.009 88.1738 192.263 89.2715 192.263 90.7168ZM188.073 90.7168C188.073 91.7676 188.163 92.5215 188.343 92.9785C188.526 93.4316 188.833 93.6582 189.263 93.6582C189.685 93.6582 189.989 93.4277 190.177 92.9668C190.364 92.5059 190.458 91.7559 190.458 90.7168C190.458 89.666 190.362 88.9121 190.171 88.4551C189.983 87.9941 189.681 87.7637 189.263 87.7637C188.837 87.7637 188.532 87.9941 188.349 88.4551C188.165 88.9121 188.073 89.666 188.073 90.7168ZM197.653 95H195.843V90.043L195.86 89.2285L195.89 88.3379C195.589 88.6387 195.38 88.8359 195.263 88.9297L194.278 89.7207L193.405 88.6309L196.165 86.4336H197.653V95ZM205.974 90.7168C205.974 92.2129 205.728 93.3203 205.235 94.0391C204.747 94.7578 203.993 95.1172 202.974 95.1172C201.985 95.1172 201.239 94.7461 200.735 94.0039C200.235 93.2617 199.985 92.166 199.985 90.7168C199.985 89.2051 200.229 88.0918 200.718 87.377C201.206 86.6582 201.958 86.2988 202.974 86.2988C203.962 86.2988 204.708 86.6738 205.212 87.4238C205.72 88.1738 205.974 89.2715 205.974 90.7168ZM201.784 90.7168C201.784 91.7676 201.874 92.5215 202.054 92.9785C202.237 93.4316 202.544 93.6582 202.974 93.6582C203.396 93.6582 203.7 93.4277 203.888 92.9668C204.075 92.5059 204.169 91.7559 204.169 90.7168C204.169 89.666 204.073 88.9121 203.882 88.4551C203.694 87.9941 203.392 87.7637 202.974 87.7637C202.548 87.7637 202.243 87.9941 202.06 88.4551C201.876 88.9121 201.784 89.666 201.784 90.7168ZM211.364 95H209.554V90.043L209.571 89.2285L209.601 88.3379C209.3 88.6387 209.091 88.8359 208.974 88.9297L207.989 89.7207L207.116 88.6309L209.876 86.4336H211.364V95ZM219.685 90.7168C219.685 92.2129 219.438 93.3203 218.946 94.0391C218.458 94.7578 217.704 95.1172 216.685 95.1172C215.696 95.1172 214.95 94.7461 214.446 94.0039C213.946 93.2617 213.696 92.166 213.696 90.7168C213.696 89.2051 213.94 88.0918 214.429 87.377C214.917 86.6582 215.669 86.2988 216.685 86.2988C217.673 86.2988 218.419 86.6738 218.923 87.4238C219.431 88.1738 219.685 89.2715 219.685 90.7168ZM215.495 90.7168C215.495 91.7676 215.585 92.5215 215.765 92.9785C215.948 93.4316 216.255 93.6582 216.685 93.6582C217.106 93.6582 217.411 93.4277 217.599 92.9668C217.786 92.5059 217.88 91.7559 217.88 90.7168C217.88 89.666 217.784 88.9121 217.593 88.4551C217.405 87.9941 217.103 87.7637 216.685 87.7637C216.259 87.7637 215.954 87.9941 215.771 88.4551C215.587 88.9121 215.495 89.666 215.495 90.7168ZM226.54 90.7168C226.54 92.2129 226.294 93.3203 225.802 94.0391C225.313 94.7578 224.56 95.1172 223.54 95.1172C222.552 95.1172 221.806 94.7461 221.302 94.0039C220.802 93.2617 220.552 92.166 220.552 90.7168C220.552 89.2051 220.796 88.0918 221.284 87.377C221.772 86.6582 222.524 86.2988 223.54 86.2988C224.528 86.2988 225.274 86.6738 225.778 87.4238C226.286 88.1738 226.54 89.2715 226.54 90.7168ZM222.351 90.7168C222.351 91.7676 222.44 92.5215 222.62 92.9785C222.804 93.4316 223.11 93.6582 223.54 93.6582C223.962 93.6582 224.267 93.4277 224.454 92.9668C224.642 92.5059 224.735 91.7559 224.735 90.7168C224.735 89.666 224.64 88.9121 224.448 88.4551C224.261 87.9941 223.958 87.7637 223.54 87.7637C223.114 87.7637 222.81 87.9941 222.626 88.4551C222.442 88.9121 222.351 89.666 222.351 90.7168ZM81.1104 111H79.2998V106.043L79.3174 105.229L79.3467 104.338C79.0459 104.639 78.8369 104.836 78.7197 104.93L77.7354 105.721L76.8623 104.631L79.6221 102.434H81.1104V111ZM89.4307 106.717C89.4307 108.213 89.1846 109.32 88.6924 110.039C88.2041 110.758 87.4502 111.117 86.4307 111.117C85.4424 111.117 84.6963 110.746 84.1924 110.004C83.6924 109.262 83.4424 108.166 83.4424 106.717C83.4424 105.205 83.6865 104.092 84.1748 103.377C84.6631 102.658 85.415 102.299 86.4307 102.299C87.4189 102.299 88.165 102.674 88.6689 103.424C89.1768 104.174 89.4307 105.271 89.4307 106.717ZM85.2412 106.717C85.2412 107.768 85.3311 108.521 85.5107 108.979C85.6943 109.432 86.001 109.658 86.4307 109.658C86.8525 109.658 87.1572 109.428 87.3447 108.967C87.5322 108.506 87.626 107.756 87.626 106.717C87.626 105.666 87.5303 104.912 87.3389 104.455C87.1514 103.994 86.8486 103.764 86.4307 103.764C86.0049 103.764 85.7002 103.994 85.5166 104.455C85.333 104.912 85.2412 105.666 85.2412 106.717ZM94.8213 111H93.0107V106.043L93.0283 105.229L93.0576 104.338C92.7568 104.639 92.5479 104.836 92.4307 104.93L91.4463 105.721L90.5732 104.631L93.333 102.434H94.8213V111ZM103.142 106.717C103.142 108.213 102.896 109.32 102.403 110.039C101.915 110.758 101.161 111.117 100.142 111.117C99.1533 111.117 98.4072 110.746 97.9033 110.004C97.4033 109.262 97.1533 108.166 97.1533 106.717C97.1533 105.205 97.3975 104.092 97.8857 103.377C98.374 102.658 99.126 102.299 100.142 102.299C101.13 102.299 101.876 102.674 102.38 103.424C102.888 104.174 103.142 105.271 103.142 106.717ZM98.9521 106.717C98.9521 107.768 99.042 108.521 99.2217 108.979C99.4053 109.432 99.7119 109.658 100.142 109.658C100.563 109.658 100.868 109.428 101.056 108.967C101.243 108.506 101.337 107.756 101.337 106.717C101.337 105.666 101.241 104.912 101.05 104.455C100.862 103.994 100.56 103.764 100.142 103.764C99.7158 103.764 99.4111 103.994 99.2275 104.455C99.0439 104.912 98.9521 105.666 98.9521 106.717ZM108.532 111H106.722V106.043L106.739 105.229L106.769 104.338C106.468 104.639 106.259 104.836 106.142 104.93L105.157 105.721L104.284 104.631L107.044 102.434H108.532V111ZM116.853 106.717C116.853 108.213 116.606 109.32 116.114 110.039C115.626 110.758 114.872 111.117 113.853 111.117C112.864 111.117 112.118 110.746 111.614 110.004C111.114 109.262 110.864 108.166 110.864 106.717C110.864 105.205 111.108 104.092 111.597 103.377C112.085 102.658 112.837 102.299 113.853 102.299C114.841 102.299 115.587 102.674 116.091 103.424C116.599 104.174 116.853 105.271 116.853 106.717ZM112.663 106.717C112.663 107.768 112.753 108.521 112.933 108.979C113.116 109.432 113.423 109.658 113.853 109.658C114.274 109.658 114.579 109.428 114.767 108.967C114.954 108.506 115.048 107.756 115.048 106.717C115.048 105.666 114.952 104.912 114.761 104.455C114.573 103.994 114.271 103.764 113.853 103.764C113.427 103.764 113.122 103.994 112.938 104.455C112.755 104.912 112.663 105.666 112.663 106.717ZM122.243 111H120.433V106.043L120.45 105.229L120.479 104.338C120.179 104.639 119.97 104.836 119.853 104.93L118.868 105.721L117.995 104.631L120.755 102.434H122.243V111ZM130.563 106.717C130.563 108.213 130.317 109.32 129.825 110.039C129.337 110.758 128.583 111.117 127.563 111.117C126.575 111.117 125.829 110.746 125.325 110.004C124.825 109.262 124.575 108.166 124.575 106.717C124.575 105.205 124.819 104.092 125.308 103.377C125.796 102.658 126.548 102.299 127.563 102.299C128.552 102.299 129.298 102.674 129.802 103.424C130.31 104.174 130.563 105.271 130.563 106.717ZM126.374 106.717C126.374 107.768 126.464 108.521 126.644 108.979C126.827 109.432 127.134 109.658 127.563 109.658C127.985 109.658 128.29 109.428 128.478 108.967C128.665 108.506 128.759 107.756 128.759 106.717C128.759 105.666 128.663 104.912 128.472 104.455C128.284 103.994 127.981 103.764 127.563 103.764C127.138 103.764 126.833 103.994 126.649 104.455C126.466 104.912 126.374 105.666 126.374 106.717ZM135.954 111H134.144V106.043L134.161 105.229L134.19 104.338C133.89 104.639 133.681 104.836 133.563 104.93L132.579 105.721L131.706 104.631L134.466 102.434H135.954V111ZM144.274 106.717C144.274 108.213 144.028 109.32 143.536 110.039C143.048 110.758 142.294 111.117 141.274 111.117C140.286 111.117 139.54 110.746 139.036 110.004C138.536 109.262 138.286 108.166 138.286 106.717C138.286 105.205 138.53 104.092 139.019 103.377C139.507 102.658 140.259 102.299 141.274 102.299C142.263 102.299 143.009 102.674 143.513 103.424C144.021 104.174 144.274 105.271 144.274 106.717ZM140.085 106.717C140.085 107.768 140.175 108.521 140.354 108.979C140.538 109.432 140.845 109.658 141.274 109.658C141.696 109.658 142.001 109.428 142.188 108.967C142.376 108.506 142.47 107.756 142.47 106.717C142.47 105.666 142.374 104.912 142.183 104.455C141.995 103.994 141.692 103.764 141.274 103.764C140.849 103.764 140.544 103.994 140.36 104.455C140.177 104.912 140.085 105.666 140.085 106.717ZM149.665 111H147.854V106.043L147.872 105.229L147.901 104.338C147.601 104.639 147.392 104.836 147.274 104.93L146.29 105.721L145.417 104.631L148.177 102.434H149.665V111ZM157.985 106.717C157.985 108.213 157.739 109.32 157.247 110.039C156.759 110.758 156.005 111.117 154.985 111.117C153.997 111.117 153.251 110.746 152.747 110.004C152.247 109.262 151.997 108.166 151.997 106.717C151.997 105.205 152.241 104.092 152.729 103.377C153.218 102.658 153.97 102.299 154.985 102.299C155.974 102.299 156.72 102.674 157.224 103.424C157.731 104.174 157.985 105.271 157.985 106.717ZM153.796 106.717C153.796 107.768 153.886 108.521 154.065 108.979C154.249 109.432 154.556 109.658 154.985 109.658C155.407 109.658 155.712 109.428 155.899 108.967C156.087 108.506 156.181 107.756 156.181 106.717C156.181 105.666 156.085 104.912 155.894 104.455C155.706 103.994 155.403 103.764 154.985 103.764C154.56 103.764 154.255 103.994 154.071 104.455C153.888 104.912 153.796 105.666 153.796 106.717ZM164.841 106.717C164.841 108.213 164.595 109.32 164.103 110.039C163.614 110.758 162.86 111.117 161.841 111.117C160.853 111.117 160.106 110.746 159.603 110.004C159.103 109.262 158.853 108.166 158.853 106.717C158.853 105.205 159.097 104.092 159.585 103.377C160.073 102.658 160.825 102.299 161.841 102.299C162.829 102.299 163.575 102.674 164.079 103.424C164.587 104.174 164.841 105.271 164.841 106.717ZM160.651 106.717C160.651 107.768 160.741 108.521 160.921 108.979C161.104 109.432 161.411 109.658 161.841 109.658C162.263 109.658 162.567 109.428 162.755 108.967C162.942 108.506 163.036 107.756 163.036 106.717C163.036 105.666 162.94 104.912 162.749 104.455C162.562 103.994 162.259 103.764 161.841 103.764C161.415 103.764 161.11 103.994 160.927 104.455C160.743 104.912 160.651 105.666 160.651 106.717ZM170.231 111H168.421V106.043L168.438 105.229L168.468 104.338C168.167 104.639 167.958 104.836 167.841 104.93L166.856 105.721L165.983 104.631L168.743 102.434H170.231V111ZM178.552 106.717C178.552 108.213 178.306 109.32 177.813 110.039C177.325 110.758 176.571 111.117 175.552 111.117C174.563 111.117 173.817 110.746 173.313 110.004C172.813 109.262 172.563 108.166 172.563 106.717C172.563 105.205 172.808 104.092 173.296 103.377C173.784 102.658 174.536 102.299 175.552 102.299C176.54 102.299 177.286 102.674 177.79 103.424C178.298 104.174 178.552 105.271 178.552 106.717ZM174.362 106.717C174.362 107.768 174.452 108.521 174.632 108.979C174.815 109.432 175.122 109.658 175.552 109.658C175.974 109.658 176.278 109.428 176.466 108.967C176.653 108.506 176.747 107.756 176.747 106.717C176.747 105.666 176.651 104.912 176.46 104.455C176.272 103.994 175.97 103.764 175.552 103.764C175.126 103.764 174.821 103.994 174.638 104.455C174.454 104.912 174.362 105.666 174.362 106.717ZM183.942 111H182.132V106.043L182.149 105.229L182.179 104.338C181.878 104.639 181.669 104.836 181.552 104.93L180.567 105.721L179.694 104.631L182.454 102.434H183.942V111ZM190.798 111H188.987V106.043L189.005 105.229L189.034 104.338C188.733 104.639 188.524 104.836 188.407 104.93L187.423 105.721L186.55 104.631L189.31 102.434H190.798V111ZM199.118 106.717C199.118 108.213 198.872 109.32 198.38 110.039C197.892 110.758 197.138 111.117 196.118 111.117C195.13 111.117 194.384 110.746 193.88 110.004C193.38 109.262 193.13 108.166 193.13 106.717C193.13 105.205 193.374 104.092 193.862 103.377C194.351 102.658 195.103 102.299 196.118 102.299C197.106 102.299 197.853 102.674 198.356 103.424C198.864 104.174 199.118 105.271 199.118 106.717ZM194.929 106.717C194.929 107.768 195.019 108.521 195.198 108.979C195.382 109.432 195.688 109.658 196.118 109.658C196.54 109.658 196.845 109.428 197.032 108.967C197.22 108.506 197.313 107.756 197.313 106.717C197.313 105.666 197.218 104.912 197.026 104.455C196.839 103.994 196.536 103.764 196.118 103.764C195.692 103.764 195.388 103.994 195.204 104.455C195.021 104.912 194.929 105.666 194.929 106.717ZM204.509 111H202.698V106.043L202.716 105.229L202.745 104.338C202.444 104.639 202.235 104.836 202.118 104.93L201.134 105.721L200.261 104.631L203.021 102.434H204.509V111ZM212.829 106.717C212.829 108.213 212.583 109.32 212.091 110.039C211.603 110.758 210.849 111.117 209.829 111.117C208.841 111.117 208.095 110.746 207.591 110.004C207.091 109.262 206.841 108.166 206.841 106.717C206.841 105.205 207.085 104.092 207.573 103.377C208.062 102.658 208.813 102.299 209.829 102.299C210.817 102.299 211.563 102.674 212.067 103.424C212.575 104.174 212.829 105.271 212.829 106.717ZM208.64 106.717C208.64 107.768 208.729 108.521 208.909 108.979C209.093 109.432 209.399 109.658 209.829 109.658C210.251 109.658 210.556 109.428 210.743 108.967C210.931 108.506 211.024 107.756 211.024 106.717C211.024 105.666 210.929 104.912 210.737 104.455C210.55 103.994 210.247 103.764 209.829 103.764C209.403 103.764 209.099 103.994 208.915 104.455C208.731 104.912 208.64 105.666 208.64 106.717ZM218.22 111H216.409V106.043L216.427 105.229L216.456 104.338C216.155 104.639 215.946 104.836 215.829 104.93L214.845 105.721L213.972 104.631L216.731 102.434H218.22V111ZM226.54 106.717C226.54 108.213 226.294 109.32 225.802 110.039C225.313 110.758 224.56 111.117 223.54 111.117C222.552 111.117 221.806 110.746 221.302 110.004C220.802 109.262 220.552 108.166 220.552 106.717C220.552 105.205 220.796 104.092 221.284 103.377C221.772 102.658 222.524 102.299 223.54 102.299C224.528 102.299 225.274 102.674 225.778 103.424C226.286 104.174 226.54 105.271 226.54 106.717ZM222.351 106.717C222.351 107.768 222.44 108.521 222.62 108.979C222.804 109.432 223.11 109.658 223.54 109.658C223.962 109.658 224.267 109.428 224.454 108.967C224.642 108.506 224.735 107.756 224.735 106.717C224.735 105.666 224.64 104.912 224.448 104.455C224.261 103.994 223.958 103.764 223.54 103.764C223.114 103.764 222.81 103.994 222.626 104.455C222.442 104.912 222.351 105.666 222.351 106.717Z" fill="white"/>
<path d="M211.593 99.6186C212.837 65.332 187.175 36.7282 154.274 35.7303C121.374 34.7324 93.6947 61.7183 92.4507 96.0049C91.2067 130.292 116.869 158.895 149.769 159.893C182.67 160.891 210.349 133.905 211.593 99.6186Z" fill="#8CC754"/>
<path d="M126.283 56.3192C135.883 56.3192 143.665 49.2039 143.665 40.4266C143.665 31.6494 135.883 24.534 126.283 24.534C116.683 24.534 108.901 31.6494 108.901 40.4266C108.901 49.2039 116.683 56.3192 126.283 56.3192Z" fill="#FBFBFB" stroke="#272727" stroke-miterlimit="10"/>
<path d="M125.821 55.9528C133.019 55.9528 138.854 50.6175 138.854 44.0361C138.854 37.4547 133.019 32.1194 125.821 32.1194C118.623 32.1194 112.788 37.4547 112.788 44.0361C112.788 50.6175 118.623 55.9528 125.821 55.9528Z" fill="#272727" stroke="#272727" stroke-miterlimit="10"/>
<path d="M169.403 56.3192C179.003 56.3192 186.785 49.2039 186.785 40.4266C186.785 31.6494 179.003 24.534 169.403 24.534C159.804 24.534 152.021 31.6494 152.021 40.4266C152.021 49.2039 159.804 56.3192 169.403 56.3192Z" fill="#FBFBFB" stroke="#272727" stroke-miterlimit="10"/>
<path d="M150.807 159.305C171.322 159.305 187.952 143.453 187.952 123.899C187.952 104.345 171.322 88.4933 150.807 88.4933C130.293 88.4933 113.663 104.345 113.663 123.899C113.663 143.453 130.293 159.305 150.807 159.305Z" fill="#72B236"/>
<path d="M168.894 55.9528C176.092 55.9528 181.927 50.6175 181.927 44.0361C181.927 37.4547 176.092 32.1194 168.894 32.1194C161.696 32.1194 155.86 37.4547 155.86 44.0361C155.86 50.6175 161.696 55.9528 168.894 55.9528Z" fill="#272727" stroke="#272727" stroke-miterlimit="10"/>
<path d="M123.695 74.3664C134.724 74.3664 143.664 66.1919 143.664 56.1082C143.664 46.0245 134.724 37.85 123.695 37.85C112.667 37.85 103.726 46.0245 103.726 56.1082C103.726 66.1919 112.667 74.3664 123.695 74.3664Z" stroke="#37441D" stroke-width="4" stroke-miterlimit="10"/>
<path d="M177.044 74.3664C188.073 74.3664 197.014 66.1919 197.014 56.1082C197.014 46.0245 188.073 37.85 177.044 37.85C166.016 37.85 157.075 46.0245 157.075 56.1082C157.075 66.1919 166.016 74.3664 177.044 74.3664Z" stroke="#37441D" stroke-width="4" stroke-miterlimit="10"/>
<path d="M143.665 56.1083H157.062" stroke="#37441D" stroke-width="4" stroke-miterlimit="10"/>
<path opacity="0.41" d="M124.388 74.3663C134.638 74.3663 142.948 66.7686 142.948 57.3964C142.948 48.0242 134.638 40.4265 124.388 40.4265C114.137 40.4265 105.828 48.0242 105.828 57.3964C105.828 66.7686 114.137 74.3663 124.388 74.3663Z" fill="#9D9D9C"/>
<path opacity="0.41" d="M177.044 74.3663C187.294 74.3663 195.604 66.7686 195.604 57.3964C195.604 48.0242 187.294 40.4265 177.044 40.4265C166.793 40.4265 158.483 48.0242 158.483 57.3964C158.483 66.7686 166.793 74.3663 177.044 74.3663Z" fill="#9D9D9C"/>
<path d="M103.714 24.8449L138.867 16.0934" stroke="#37441D" stroke-width="4" stroke-miterlimit="10"/>
<path d="M158.483 15.7048L192.227 23.6344" stroke="#37441D" stroke-width="4" stroke-miterlimit="10"/>
<path d="M144.806 81.6743C148.19 82.7567 151.767 83.2465 155.349 83.1181C160.602 82.9164 165.697 81.4198 170.096 78.7867" stroke="#006633" stroke-width="4" stroke-miterlimit="10"/>
</g>
<defs>
<filter id="filter0_bi" x="1" y="-47" width="310.555" height="304.905" filterUnits="userSpaceOnUse" color-interpolation-filters="sRGB">
<feFlood flood-opacity="0" result="BackgroundImageFix"/>
<feGaussianBlur in="BackgroundImage" stdDeviation="5"/>
<feComposite in2="SourceAlpha" operator="in" result="effect1_backgroundBlur"/>
<feBlend mode="normal" in="SourceGraphic" in2="effect1_backgroundBlur" result="shape"/>
<feColorMatrix in="SourceAlpha" type="matrix" values="0 0 0 0 0 0 0 0 0 0 0 0 0 0 0 0 0 0 127 0" result="hardAlpha"/>
<feOffset/>
<feGaussianBlur stdDeviation="5"/>
<feComposite in2="hardAlpha" operator="arithmetic" k2="-1" k3="1"/>
<feColorMatrix type="matrix" values="0 0 0 0 1 0 0 0 0 1 0 0 0 0 1 0 0 0 0.2 0"/>
<feBlend mode="normal" in2="shape" result="effect2_innerShadow"/>
</filter>
<clipPath id="clip0">
<rect width="290" height="162" fill="white"/>
</clipPath>
</defs>
</svg>
