<svg width="40" height="40" viewBox="0 0 40 40" fill="none" xmlns="http://www.w3.org/2000/svg">
<path d="M30 16.25H27.5C27.499 15.2557 27.1036 14.3025 26.4006 13.5994C25.6975 12.8964 24.7443 12.501 23.75 12.5V10C25.407 10.002 26.9956 10.6611 28.1672 11.8328C29.3389 13.0044 29.998 14.593 30 16.25Z" fill="#72B236"/>
<path d="M35 16.25H32.5C32.4974 13.9302 31.5746 11.7061 29.9343 10.0657C28.2939 8.42537 26.0698 7.50265 23.75 7.5V5C26.7327 5.00331 29.5922 6.18964 31.7013 8.2987C33.8104 10.4078 34.9967 13.2673 35 16.25Z" fill="#72B236"/>
<path d="M32.5003 36.25H32.2878C7.72529 34.8375 4.23779 14.1125 3.75029 7.7875C3.6741 6.79594 3.99489 5.81471 4.64212 5.05966C5.28934 4.3046 6.20998 3.83756 7.20154 3.76125C7.30071 3.75375 7.40029 3.75 7.50029 3.75H14.0878C14.5885 3.74952 15.0778 3.89939 15.4923 4.1802C15.9069 4.46102 16.2275 4.85984 16.4128 5.325L18.3128 10C18.4957 10.4544 18.5411 10.9526 18.4433 11.4326C18.3456 11.9126 18.1089 12.3533 17.7628 12.7L15.1003 15.3875C15.5145 17.7517 16.6458 19.9312 18.3407 21.6306C20.0356 23.3301 22.2122 24.4671 24.5753 24.8875L27.2878 22.2C27.6397 21.8577 28.0845 21.6266 28.5669 21.5354C29.0493 21.4443 29.5478 21.4972 30.0003 21.6875L34.7128 23.575C35.1709 23.7661 35.5618 24.0893 35.8356 24.5033C36.1095 24.9174 36.2538 25.4036 36.2503 25.9V32.5C36.2503 33.4946 35.8552 34.4484 35.1519 35.1517C34.4487 35.8549 33.4949 36.25 32.5003 36.25ZM7.50029 6.25C7.33614 6.24951 7.17349 6.28135 7.02165 6.34372C6.8698 6.40608 6.73173 6.49774 6.6153 6.61346C6.49888 6.72919 6.4064 6.86671 6.34312 7.01818C6.27985 7.16965 6.24703 7.3321 6.24654 7.49625C6.24654 7.53125 6.24779 7.56583 6.25029 7.6C6.82529 15 10.5128 32.5 32.4253 33.75C32.7561 33.7698 33.0813 33.6574 33.3293 33.4376C33.5773 33.2177 33.7278 32.9083 33.7478 32.5775L33.7503 32.5V25.9L29.0378 24.0125L25.4503 27.575L24.8503 27.5C13.9753 26.1375 12.5003 15.2625 12.5003 15.15L12.4253 14.55L15.9753 10.9625L14.1003 6.25H7.50029Z" fill="#72B236"/>
</svg>
