<svg width="130" height="260" viewBox="0 0 130 260" fill="none" xmlns="http://www.w3.org/2000/svg">
<path fill-rule="evenodd" clip-rule="evenodd" d="M13.3206 -39.9237C39.24 -39.0349 62.8525 -26.6778 83.4787 -10.9462C103.705 4.48003 122.76 23.4171 128.784 48.1403C134.605 72.0243 117.777 94.3335 115.09 118.77C111.347 152.806 130.243 191.236 110.011 218.851C88.9629 247.581 47.7084 266.896 13.3206 257.679C-21.2964 248.402 -29.1989 203.239 -51.869 175.466C-67.1151 156.788 -90.7057 144.855 -97.6278 121.754C-104.475 98.9024 -94.939 75.5361 -88.7133 52.5068C-82.1135 28.0934 -79.1571 1.09296 -60.4201 -15.8805C-40.7741 -33.6775 -13.1645 -40.8319 13.3206 -39.9237Z" fill="url(#paint0_linear)"/>
<defs>
<linearGradient id="paint0_linear" x1="15" y1="-40" x2="15" y2="260" gradientUnits="userSpaceOnUse">
<stop stop-color="#DB538C"/>
<stop offset="1" stop-color="#BD67D5"/>
</linearGradient>
</defs>
</svg>
