<svg width="290" height="162" viewBox="0 0 290 162" fill="none" xmlns="http://www.w3.org/2000/svg">
<g clip-path="url(#clip0)">
<path d="M0 9C0 4.02944 4.02944 0 9 0H281C285.971 0 290 4.02944 290 9V162H0V9Z" fill="#BD67D5"/>
<g filter="url(#filter0_bi)">
<path fill-rule="evenodd" clip-rule="evenodd" d="M229.162 151.981C221.979 175.903 231.444 162.453 209.934 175.17C188.917 187.596 155.12 181.368 131.464 175.17C109.253 169.351 77.6306 193.934 64.4079 175.17C51.1041 156.291 77.9724 141.964 75.407 119.037C72.8168 95.8867 50.6623 75.234 57.9285 53.1192C65.3897 30.4111 88.941 15.6331 111.752 8.41944C133.275 1.61341 155.665 9.52628 177.511 15.3035C198.216 20.7789 205.553 36.0601 218.495 53.1193C231.154 69.8053 244.029 80.7183 242.984 101.606C242.092 119.439 234.294 134.886 229.162 151.981Z" fill="white" fill-opacity="0.3"/>
</g>
<path d="M111.437 66.9517C111.437 56.2567 113.91 53.2193 122.701 40.4349C124.929 37.1952 124.7 33.0128 121.061 31.5239C114.734 28.935 105.074 27.7712 102.726 30.8134C98.6302 36.1185 93.0001 50.2426 93 59.9572C92.9999 68.3598 98.0996 82.4951 107.122 92.5982C118.721 105.587 134.228 105.547 148.089 109.292C161.95 113.037 188.413 116.554 188.413 125.207C188.413 148.612 126.184 141.504 134.228 144.243C154.39 151.109 191.563 144.243 197.548 133.633C201.922 125.88 201.329 115.689 188.413 109.292C172.661 101.49 150.294 101.49 134.228 94.6251C118.162 87.7597 111.437 76.6709 111.437 66.9517Z" fill="#F6B028" stroke="#F6A514"/>
<path d="M142.675 28.0691C146.281 28.0691 149.203 25.1472 149.203 21.5428C149.203 17.9384 146.281 15.0165 142.675 15.0165C139.07 15.0165 136.147 17.9384 136.147 21.5428C136.147 25.1472 139.07 28.0691 142.675 28.0691Z" fill="#ED721C" stroke="#EC671C" stroke-miterlimit="10"/>
<path d="M142.51 28.069C145.203 28.069 147.385 25.8498 147.385 23.1124C147.385 20.3749 145.203 18.1557 142.51 18.1557C139.818 18.1557 137.635 20.3749 137.635 23.1124C137.635 25.8498 139.818 28.069 142.51 28.069Z" fill="#ED721C" stroke="#EC671C" stroke-miterlimit="10"/>
<path d="M139.436 35.8609C138.406 36.2692 137.302 36.3756 136.198 36.4927C121.521 38.0502 82.8228 61.8492 101.337 31.9439C101.816 31.1702 102.445 30.4249 103.125 29.8197C113.952 20.1847 114.41 20.0419 122.907 17.3929C130.594 14.9964 141.069 15.4455 144.673 19.2525C145.628 20.2615 146.3 21.5395 146.968 22.7562C149.681 27.6938 146.287 33.1464 139.436 35.8609Z" fill="#F6B028"/>
<path d="M137 30C140.314 30 143 27.3137 143 24C143 20.6863 140.314 18 137 18C133.686 18 131 20.6863 131 24C131 27.3137 133.686 30 137 30Z" fill="#FBFBFB" stroke="#272727" stroke-miterlimit="10"/>
<path d="M137 30C139.761 30 142 27.9853 142 25.5C142 23.0147 139.761 21 137 21C134.239 21 132 23.0147 132 25.5C132 27.9853 134.239 30 137 30Z" fill="#272727" stroke="#272727" stroke-miterlimit="10"/>
<path d="M193.212 104.881C194.259 73.3351 172.665 47.0177 144.981 46.0996C117.297 45.1815 94.0056 70.0102 92.9588 101.556C91.912 133.102 113.506 159.419 141.19 160.337C168.874 161.256 192.165 136.427 193.212 104.881Z" fill="#8CC754"/>
<path d="M121.428 64.8612C129.457 64.8612 135.966 58.3541 135.966 50.3272C135.966 42.3003 129.457 35.7932 121.428 35.7932C113.399 35.7932 106.89 42.3003 106.89 50.3272C106.89 58.3541 113.399 64.8612 121.428 64.8612Z" fill="#FBFBFB" stroke="#272727" stroke-miterlimit="10"/>
<path d="M121.06 64.8611C127.056 64.8611 131.918 59.919 131.918 53.8226C131.918 47.7262 127.056 42.7841 121.06 42.7841C115.064 42.7841 110.203 47.7262 110.203 53.8226C110.203 59.919 115.064 64.8611 121.06 64.8611Z" fill="#272727" stroke="#272727" stroke-miterlimit="10"/>
<path d="M157.679 64.8612C165.81 64.8612 172.401 58.3541 172.401 50.3272C172.401 42.3003 165.81 35.7932 157.679 35.7932C149.548 35.7932 142.957 42.3003 142.957 50.3272C142.957 58.3541 149.548 64.8612 157.679 64.8612Z" fill="#FBFBFB" stroke="#272727" stroke-miterlimit="10"/>
<path d="M142.222 159.792C159.499 159.792 173.506 145.213 173.506 127.229C173.506 109.245 159.499 94.6653 142.222 94.6653C124.944 94.6653 110.938 109.245 110.938 127.229C110.938 145.213 124.944 159.792 142.222 159.792Z" fill="#72B236"/>
<path d="M157.311 64.8611C163.41 64.8611 168.353 59.919 168.353 53.8226C168.353 47.7262 163.41 42.7841 157.311 42.7841C151.213 42.7841 146.27 47.7262 146.27 53.8226C146.27 59.919 151.213 64.8611 157.311 64.8611Z" fill="#272727" stroke="#272727" stroke-miterlimit="10"/>
<path d="M130.584 86.7801C133.322 88.9847 136.644 90.3439 140.143 90.6915C149.015 91.4904 155.031 85.009 155.777 84.1725" stroke="#006633" stroke-width="3" stroke-miterlimit="10"/>
</g>
<defs>
<filter id="filter0_bi" x="-5" y="-38.9998" width="294.99" height="293.236" filterUnits="userSpaceOnUse" color-interpolation-filters="sRGB">
<feFlood flood-opacity="0" result="BackgroundImageFix"/>
<feGaussianBlur in="BackgroundImage" stdDeviation="5"/>
<feComposite in2="SourceAlpha" operator="in" result="effect1_backgroundBlur"/>
<feBlend mode="normal" in="SourceGraphic" in2="effect1_backgroundBlur" result="shape"/>
<feColorMatrix in="SourceAlpha" type="matrix" values="0 0 0 0 0 0 0 0 0 0 0 0 0 0 0 0 0 0 127 0" result="hardAlpha"/>
<feOffset/>
<feGaussianBlur stdDeviation="5"/>
<feComposite in2="hardAlpha" operator="arithmetic" k2="-1" k3="1"/>
<feColorMatrix type="matrix" values="0 0 0 0 1 0 0 0 0 1 0 0 0 0 1 0 0 0 0.2 0"/>
<feBlend mode="normal" in2="shape" result="effect2_innerShadow"/>
</filter>
<clipPath id="clip0">
<rect width="290" height="162" fill="white"/>
</clipPath>
</defs>
</svg>
