<svg width="454" height="558" viewBox="0 0 454 558" fill="none" xmlns="http://www.w3.org/2000/svg">
<circle r="363" transform="matrix(-1 0 0 1 363 417)" fill="url(#paint0_linear)"/>
<path fill-rule="evenodd" clip-rule="evenodd" d="M512.239 545.772C541.46 504.79 651.095 453.862 664.018 405.844C677.789 354.673 625.242 306.7 604.545 256.099C583.426 204.466 530.883 173.368 478.374 154.287C429.49 136.524 376.362 146.454 323.625 154.019C268.413 161.94 198.089 152.571 165.62 199.154C132.266 247.007 180.472 307.682 176.827 364.63C173.86 410.996 145.722 445.263 160.901 488.217C176.349 531.933 214.911 554.67 253.071 580.387C298.642 611.1 426.482 741.726 467.455 782.698C507.402 822.644 462.298 615.813 512.239 545.772Z" fill="url(#paint1_linear)"/>
<path fill-rule="evenodd" clip-rule="evenodd" d="M598.239 642.772C627.46 601.79 737.095 550.862 750.018 502.844C763.789 451.673 711.242 403.7 690.545 353.099C669.426 301.466 616.883 270.368 564.374 251.287C515.49 233.524 462.362 243.454 409.625 251.019C354.413 258.94 284.089 249.571 251.62 296.154C218.266 344.007 266.472 404.682 262.827 461.63C259.86 507.996 231.722 542.262 246.901 585.217C262.349 628.933 300.911 651.67 339.071 677.387C384.642 708.1 512.482 838.726 553.455 879.698C593.402 919.644 548.298 712.813 598.239 642.772Z" fill="url(#paint2_linear)"/>
<path fill-rule="evenodd" clip-rule="evenodd" d="M521.792 586.872C537.955 564.204 598.595 536.035 605.743 509.476C613.36 481.173 584.296 454.639 572.848 426.651C561.167 398.092 532.105 380.891 503.062 370.338C476.024 360.513 446.638 366.005 417.468 370.19C386.93 374.57 348.033 369.388 330.075 395.154C311.626 421.622 338.289 455.182 336.273 486.68C334.632 512.326 319.069 531.279 327.464 555.038C336.009 579.217 357.338 591.793 378.444 606.018C403.65 623.005 474.36 695.256 497.022 717.918C519.117 740.012 494.17 625.612 521.792 586.872Z" fill="url(#paint3_linear)"/>
<defs>
<linearGradient id="paint0_linear" x1="179.241" y1="61.7552" x2="570.859" y2="662.739" gradientUnits="userSpaceOnUse">
<stop stop-color="#DB538C"/>
<stop offset="1" stop-color="#F6B028"/>
</linearGradient>
<linearGradient id="paint1_linear" x1="427.187" y1="652.024" x2="-54.8877" y2="117.659" gradientUnits="userSpaceOnUse">
<stop stop-color="#DB538C"/>
<stop offset="1" stop-color="#F6B028"/>
</linearGradient>
<linearGradient id="paint2_linear" x1="513.187" y1="749.024" x2="31.1123" y2="214.659" gradientUnits="userSpaceOnUse">
<stop stop-color="#F6B028"/>
<stop offset="0.817708" stop-color="#DB538C"/>
</linearGradient>
<linearGradient id="paint3_linear" x1="474.75" y1="645.641" x2="208.11" y2="350.078" gradientUnits="userSpaceOnUse">
<stop stop-color="#DB538C"/>
<stop offset="1" stop-color="#F6B028"/>
</linearGradient>
</defs>
</svg>
