<svg width="19" height="19" viewBox="0 0 19 19" fill="none" xmlns="http://www.w3.org/2000/svg">
<path d="M3.95833 11.875H2.375V15.0417C2.375 15.9125 3.0875 16.625 3.95833 16.625H7.125V15.0417H3.95833V11.875ZM3.95833 3.95833H7.125V2.375H3.95833C3.0875 2.375 2.375 3.0875 2.375 3.95833V7.125H3.95833V3.95833ZM15.0417 2.375H11.875V3.95833H15.0417V7.125H16.625V3.95833C16.625 3.0875 15.9125 2.375 15.0417 2.375ZM15.0417 15.0417H11.875V16.625H15.0417C15.9125 16.625 16.625 15.9125 16.625 15.0417V11.875H15.0417V15.0417ZM9.5 6.33333C7.75042 6.33333 6.33333 7.75042 6.33333 9.5C6.33333 11.2496 7.75042 12.6667 9.5 12.6667C11.2496 12.6667 12.6667 11.2496 12.6667 9.5C12.6667 7.75042 11.2496 6.33333 9.5 6.33333ZM9.5 11.0833C8.62917 11.0833 7.91667 10.3708 7.91667 9.5C7.91667 8.62917 8.62917 7.91667 9.5 7.91667C10.3708 7.91667 11.0833 8.62917 11.0833 9.5C11.0833 10.3708 10.3708 11.0833 9.5 11.0833Z" fill="#72B236"/>
</svg>
