<svg width="290" height="162" viewBox="0 0 290 162" fill="none" xmlns="http://www.w3.org/2000/svg">
<g clip-path="url(#clip0)">
<path d="M0 0H290V162H0V0Z" fill="#BD67D5"/>
<g filter="url(#filter0_b)">
<path fill-rule="evenodd" clip-rule="evenodd" d="M148.689 200.263C126.854 200.526 102.553 214.369 84.7962 201.597C67.0423 188.828 71.9849 161.335 65.4547 140.398C59.022 119.775 42.0033 101.024 46.8596 79.9689C51.8124 58.495 71.9808 44.5726 90.3388 32.509C107.92 20.9558 127.698 12.2242 148.689 13.0547C169.186 13.8657 187.762 24.1359 203.793 36.998C219.228 49.3819 230.984 65.4803 237.42 84.2457C243.949 103.278 244.584 123.456 240.185 143.096C235.417 164.386 229.92 188.551 211.479 200.073C193.258 211.457 170.142 200.005 148.689 200.263Z" fill="white" fill-opacity="0.3"/>
</g>
<rect x="129.519" y="39.3088" width="113.481" height="83.15" rx="10" fill="#131930"/>
<rect x="138.248" y="45.7769" width="95.7409" height="70.2156" rx="10" fill="#2C3A6A"/>
<rect x="168.561" y="122.356" width="34.9173" height="10.7787" fill="#131930"/>
<rect x="168.941" y="122.459" width="9.57409" height="10.7787" rx="4.78705" fill="#2C3A6A"/>
<rect x="138.248" y="132.127" width="95.7409" height="5.85129" rx="2.92565" fill="#131930"/>
<rect x="138.248" y="133.238" width="10.4189" height="5.85129" rx="2.92565" fill="#2C3A6A"/>
<rect x="207" y="48" width="23" height="13" rx="6.5" fill="#BD67D5"/>
<rect x="202" y="65" width="11" height="45" rx="5.5" fill="#83BF4F"/>
<rect x="210.688" y="84.7819" width="11.1104" height="30.7744" rx="5.5552" transform="rotate(-28.6899 210.688 84.7819)" fill="#DCDD25"/>
<path d="M183.259 88.1341C184.492 51.0876 159.069 20.1814 126.477 19.1032C93.8843 18.0249 66.4637 47.183 65.2314 84.2296C63.999 121.276 89.4215 152.182 122.014 153.261C154.607 154.339 182.027 125.181 183.259 88.1341Z" fill="#8CC754"/>
<path d="M98.7483 41.1366C108.201 41.1366 115.864 33.4949 115.864 24.0683C115.864 14.6417 108.201 7 98.7483 7C89.2957 7 81.6328 14.6417 81.6328 24.0683C81.6328 33.4949 89.2957 41.1366 98.7483 41.1366Z" fill="#FBFBFB" stroke="#272727" stroke-miterlimit="10"/>
<path d="M98.3147 41.1366C105.374 41.1366 111.097 35.3327 111.097 28.1733C111.097 21.0139 105.374 15.21 98.3147 15.21C91.2551 15.21 85.5322 21.0139 85.5322 28.1733C85.5322 35.3327 91.2551 41.1366 98.3147 41.1366Z" fill="#272727" stroke="#272727" stroke-miterlimit="10"/>
<path d="M141.428 41.1366C151 41.1366 158.76 33.4949 158.76 24.0683C158.76 14.6417 151 7 141.428 7C131.856 7 124.096 14.6417 124.096 24.0683C124.096 33.4949 131.856 41.1366 141.428 41.1366Z" fill="#FBFBFB" stroke="#272727" stroke-miterlimit="10"/>
<path d="M123.23 152.62C143.571 152.62 160.061 135.499 160.061 114.378C160.061 93.2581 143.571 76.1367 123.23 76.1367C102.889 76.1367 86.3994 93.2581 86.3994 114.378C86.3994 135.499 102.889 152.62 123.23 152.62Z" fill="#72B236"/>
<path d="M140.995 41.1366C148.174 41.1366 153.994 35.3327 153.994 28.1733C153.994 21.0139 148.174 15.21 140.995 15.21C133.816 15.21 127.996 21.0139 127.996 28.1733C127.996 35.3327 133.816 41.1366 140.995 41.1366Z" fill="#272727" stroke="#272727" stroke-miterlimit="10"/>
<path d="M103.829 59.1208C107.859 62.3572 112.747 64.3524 117.896 64.8626C130.953 66.0353 139.806 56.521 140.905 55.293" stroke="#006633" stroke-width="3" stroke-miterlimit="10"/>
</g>
<defs>
<filter id="filter0_b" x="42" y="9" width="205" height="202" filterUnits="userSpaceOnUse" color-interpolation-filters="sRGB">
<feFlood flood-opacity="0" result="BackgroundImageFix"/>
<feGaussianBlur in="BackgroundImage" stdDeviation="2"/>
<feComposite in2="SourceAlpha" operator="in" result="effect1_backgroundBlur"/>
<feBlend mode="normal" in="SourceGraphic" in2="effect1_backgroundBlur" result="shape"/>
</filter>
<clipPath id="clip0">
<path d="M0 9C0 4.02944 4.02944 0 9 0H281C285.971 0 290 4.02944 290 9V162H0V9Z" fill="white"/>
</clipPath>
</defs>
</svg>
